<mxfile host="app.diagrams.net" modified="2024-01-30T21:04:08.090Z" agent="Mozilla/5.0 (Macintosh; Intel Mac OS X 10_15_7) AppleWebKit/537.36 (KHTML, like Gecko) Chrome/120.0.0.0 Safari/537.36" etag="0gl95MbcoN9_ICSDldyf" version="23.0.2" type="device" pages="2">
  <diagram name="Page-1" id="uipDwqWf_9gKhfxhQmsI">
    <mxGraphModel dx="1562" dy="1420" grid="0" gridSize="10" guides="1" tooltips="1" connect="1" arrows="1" fold="1" page="0" pageScale="1" pageWidth="1920" pageHeight="1200" math="0" shadow="0">
      <root>
        <mxCell id="0" />
        <mxCell id="1" parent="0" />
        <mxCell id="-uuyGiPhGbqL3aWWoljg-2" value="" style="verticalLabelPosition=bottom;sketch=0;aspect=fixed;html=1;verticalAlign=top;strokeColor=none;align=center;outlineConnect=0;shape=mxgraph.citrix.1u_2u_server;" parent="1" vertex="1">
          <mxGeometry x="157" y="9" width="100" height="39.1" as="geometry" />
        </mxCell>
        <mxCell id="-uuyGiPhGbqL3aWWoljg-3" value="" style="verticalLabelPosition=bottom;sketch=0;aspect=fixed;html=1;verticalAlign=top;strokeColor=none;align=center;outlineConnect=0;shape=mxgraph.citrix.1u_2u_server;" parent="1" vertex="1">
          <mxGeometry x="157" y="61" width="100" height="39.1" as="geometry" />
        </mxCell>
        <mxCell id="-uuyGiPhGbqL3aWWoljg-4" value="" style="verticalLabelPosition=bottom;sketch=0;aspect=fixed;html=1;verticalAlign=top;strokeColor=none;align=center;outlineConnect=0;shape=mxgraph.citrix.1u_2u_server;" parent="1" vertex="1">
          <mxGeometry x="151" y="-43" width="100" height="39.1" as="geometry" />
        </mxCell>
        <mxCell id="-uuyGiPhGbqL3aWWoljg-5" value="" style="verticalLabelPosition=bottom;sketch=0;aspect=fixed;html=1;verticalAlign=top;strokeColor=none;align=center;outlineConnect=0;shape=mxgraph.citrix.1u_2u_server;" parent="1" vertex="1">
          <mxGeometry x="266" y="-17" width="100" height="39.1" as="geometry" />
        </mxCell>
        <mxCell id="-uuyGiPhGbqL3aWWoljg-6" value="" style="verticalLabelPosition=bottom;sketch=0;aspect=fixed;html=1;verticalAlign=top;strokeColor=none;align=center;outlineConnect=0;shape=mxgraph.citrix.1u_2u_server;" parent="1" vertex="1">
          <mxGeometry x="272" y="41" width="100" height="39.1" as="geometry" />
        </mxCell>
        <mxCell id="-uuyGiPhGbqL3aWWoljg-54" style="edgeStyle=orthogonalEdgeStyle;rounded=0;orthogonalLoop=1;jettySize=auto;html=1;" parent="1" source="-uuyGiPhGbqL3aWWoljg-7" edge="1">
          <mxGeometry relative="1" as="geometry">
            <mxPoint x="251.5" y="188" as="targetPoint" />
          </mxGeometry>
        </mxCell>
        <mxCell id="-uuyGiPhGbqL3aWWoljg-55" value="Mount EBS volume to user-session" style="edgeLabel;html=1;align=center;verticalAlign=middle;resizable=0;points=[];" parent="-uuyGiPhGbqL3aWWoljg-54" vertex="1" connectable="0">
          <mxGeometry x="-0.2567" relative="1" as="geometry">
            <mxPoint as="offset" />
          </mxGeometry>
        </mxCell>
        <mxCell id="-uuyGiPhGbqL3aWWoljg-7" value="" style="rounded=1;whiteSpace=wrap;html=1;fillColor=none;sketch=1;curveFitting=1;jiggle=2;strokeColor=#FFB570;" parent="1" vertex="1">
          <mxGeometry x="122" y="-63.89999999999998" width="259" height="195.9" as="geometry" />
        </mxCell>
        <mxCell id="-uuyGiPhGbqL3aWWoljg-8" value="Amazon EKS" style="sketch=0;outlineConnect=0;fontColor=#232F3E;gradientColor=none;strokeColor=#ffffff;fillColor=#232F3E;dashed=0;verticalLabelPosition=middle;verticalAlign=bottom;align=center;html=1;whiteSpace=wrap;fontSize=10;fontStyle=1;spacing=3;shape=mxgraph.aws4.productIcon;prIcon=mxgraph.aws4.eks;" parent="1" vertex="1">
          <mxGeometry x="107" y="-79" width="38" height="69" as="geometry" />
        </mxCell>
        <mxCell id="-uuyGiPhGbqL3aWWoljg-9" value="" style="outlineConnect=0;dashed=0;verticalLabelPosition=bottom;verticalAlign=top;align=center;html=1;shape=mxgraph.aws3.volume;fillColor=#E05243;gradientColor=none;" parent="1" vertex="1">
          <mxGeometry x="1101" y="-92" width="23" height="45" as="geometry" />
        </mxCell>
        <mxCell id="-uuyGiPhGbqL3aWWoljg-10" value="" style="outlineConnect=0;dashed=0;verticalLabelPosition=bottom;verticalAlign=top;align=center;html=1;shape=mxgraph.aws3.volume;fillColor=#E05243;gradientColor=none;" parent="1" vertex="1">
          <mxGeometry x="1059" y="-92" width="23" height="45" as="geometry" />
        </mxCell>
        <mxCell id="-uuyGiPhGbqL3aWWoljg-11" value="" style="outlineConnect=0;dashed=0;verticalLabelPosition=bottom;verticalAlign=top;align=center;html=1;shape=mxgraph.aws3.volume;fillColor=#E05243;gradientColor=none;" parent="1" vertex="1">
          <mxGeometry x="1087" y="-40" width="23" height="45" as="geometry" />
        </mxCell>
        <mxCell id="-uuyGiPhGbqL3aWWoljg-12" value="" style="outlineConnect=0;dashed=0;verticalLabelPosition=bottom;verticalAlign=top;align=center;html=1;shape=mxgraph.aws3.volume;fillColor=#E05243;gradientColor=none;" parent="1" vertex="1">
          <mxGeometry x="1055" y="-10" width="23" height="45" as="geometry" />
        </mxCell>
        <mxCell id="-uuyGiPhGbqL3aWWoljg-13" value="" style="outlineConnect=0;dashed=0;verticalLabelPosition=bottom;verticalAlign=top;align=center;html=1;shape=mxgraph.aws3.volume;fillColor=#E05243;gradientColor=none;" parent="1" vertex="1">
          <mxGeometry x="1119" y="-10" width="23" height="45" as="geometry" />
        </mxCell>
        <mxCell id="-uuyGiPhGbqL3aWWoljg-14" value="EC2-NodePool" style="text;html=1;align=center;verticalAlign=middle;resizable=0;points=[];autosize=1;strokeColor=#d79b00;fillColor=#ffe6cc;shadow=0;rounded=1;glass=0;" parent="1" vertex="1">
          <mxGeometry x="205.5" y="-79" width="98" height="26" as="geometry" />
        </mxCell>
        <mxCell id="-uuyGiPhGbqL3aWWoljg-15" value="" style="rounded=1;whiteSpace=wrap;html=1;fillColor=none;strokeColor=#FFB570;" parent="1" vertex="1">
          <mxGeometry x="1018" y="-110" width="157" height="163" as="geometry" />
        </mxCell>
        <mxCell id="-uuyGiPhGbqL3aWWoljg-17" value="EBS Volumes" style="text;html=1;align=center;verticalAlign=middle;resizable=0;points=[];autosize=1;strokeColor=#d79b00;fillColor=#ffe6cc;" parent="1" vertex="1">
          <mxGeometry x="1051" y="-126" width="91" height="26" as="geometry" />
        </mxCell>
        <mxCell id="-uuyGiPhGbqL3aWWoljg-23" value="" style="outlineConnect=0;dashed=0;verticalLabelPosition=bottom;verticalAlign=top;align=center;html=1;shape=mxgraph.aws3.efs_share;fillColor=#E05243;gradientColor=none;" parent="1" vertex="1">
          <mxGeometry x="1088" y="183" width="36" height="35" as="geometry" />
        </mxCell>
        <mxCell id="-uuyGiPhGbqL3aWWoljg-24" value="" style="outlineConnect=0;dashed=0;verticalLabelPosition=bottom;verticalAlign=top;align=center;html=1;shape=mxgraph.aws3.efs_share;fillColor=#E05243;gradientColor=none;" parent="1" vertex="1">
          <mxGeometry x="1092" y="226" width="36" height="35" as="geometry" />
        </mxCell>
        <mxCell id="-uuyGiPhGbqL3aWWoljg-25" value="" style="outlineConnect=0;dashed=0;verticalLabelPosition=bottom;verticalAlign=top;align=center;html=1;shape=mxgraph.aws3.efs_share;fillColor=#E05243;gradientColor=none;" parent="1" vertex="1">
          <mxGeometry x="1094" y="272" width="36" height="35" as="geometry" />
        </mxCell>
        <mxCell id="-uuyGiPhGbqL3aWWoljg-26" value="" style="outlineConnect=0;dashed=0;verticalLabelPosition=bottom;verticalAlign=top;align=center;html=1;shape=mxgraph.aws3.efs_share;fillColor=#E05243;gradientColor=none;" parent="1" vertex="1">
          <mxGeometry x="1142" y="215" width="36" height="35" as="geometry" />
        </mxCell>
        <mxCell id="-uuyGiPhGbqL3aWWoljg-27" value="" style="outlineConnect=0;dashed=0;verticalLabelPosition=bottom;verticalAlign=top;align=center;html=1;shape=mxgraph.aws3.efs_share;fillColor=#E05243;gradientColor=none;" parent="1" vertex="1">
          <mxGeometry x="1142" y="261" width="36" height="35" as="geometry" />
        </mxCell>
        <mxCell id="-uuyGiPhGbqL3aWWoljg-29" value="" style="rounded=1;whiteSpace=wrap;html=1;fillColor=none;strokeColor=#FFB570;" parent="1" vertex="1">
          <mxGeometry x="1008" y="158" width="220" height="180" as="geometry" />
        </mxCell>
        <mxCell id="-uuyGiPhGbqL3aWWoljg-31" value="" style="sketch=0;points=[[0,0,0],[0.25,0,0],[0.5,0,0],[0.75,0,0],[1,0,0],[0,1,0],[0.25,1,0],[0.5,1,0],[0.75,1,0],[1,1,0],[0,0.25,0],[0,0.5,0],[0,0.75,0],[1,0.25,0],[1,0.5,0],[1,0.75,0]];outlineConnect=0;fontColor=#232F3E;fillColor=#7AA116;strokeColor=#ffffff;dashed=0;verticalLabelPosition=bottom;verticalAlign=top;align=center;html=1;fontSize=12;fontStyle=0;aspect=fixed;shape=mxgraph.aws4.resourceIcon;resIcon=mxgraph.aws4.efs_standard;" parent="1" vertex="1">
          <mxGeometry x="1016" y="207" width="59" height="59" as="geometry" />
        </mxCell>
        <mxCell id="-uuyGiPhGbqL3aWWoljg-32" value="Student &lt;br&gt;Directories" style="text;html=1;align=center;verticalAlign=middle;resizable=0;points=[];autosize=1;strokeColor=#82b366;fillColor=#d5e8d4;" parent="1" vertex="1">
          <mxGeometry x="1132" y="169.05" width="75" height="41" as="geometry" />
        </mxCell>
        <mxCell id="-uuyGiPhGbqL3aWWoljg-33" value="EFS Storage" style="text;html=1;align=center;verticalAlign=middle;resizable=0;points=[];autosize=1;strokeColor=#d79b00;fillColor=#ffe6cc;" parent="1" vertex="1">
          <mxGeometry x="1072" y="325" width="87" height="26" as="geometry" />
        </mxCell>
        <mxCell id="-uuyGiPhGbqL3aWWoljg-42" style="edgeStyle=orthogonalEdgeStyle;rounded=0;orthogonalLoop=1;jettySize=auto;html=1;entryX=0;entryY=0.5;entryDx=0;entryDy=0;strokeColor=#FFB570;" parent="1" source="-uuyGiPhGbqL3aWWoljg-40" target="-uuyGiPhGbqL3aWWoljg-15" edge="1">
          <mxGeometry relative="1" as="geometry" />
        </mxCell>
        <mxCell id="-uuyGiPhGbqL3aWWoljg-44" value="Mount to /ebs-example-path" style="edgeLabel;html=1;align=center;verticalAlign=middle;resizable=0;points=[];" parent="-uuyGiPhGbqL3aWWoljg-42" vertex="1" connectable="0">
          <mxGeometry x="0.0346" y="1" relative="1" as="geometry">
            <mxPoint x="-37" y="-22" as="offset" />
          </mxGeometry>
        </mxCell>
        <mxCell id="-uuyGiPhGbqL3aWWoljg-43" style="edgeStyle=orthogonalEdgeStyle;rounded=0;orthogonalLoop=1;jettySize=auto;html=1;entryX=0;entryY=0.578;entryDx=0;entryDy=0;entryPerimeter=0;strokeColor=#FFB570;" parent="1" source="-uuyGiPhGbqL3aWWoljg-40" target="-uuyGiPhGbqL3aWWoljg-29" edge="1">
          <mxGeometry relative="1" as="geometry">
            <Array as="points">
              <mxPoint x="977" y="106" />
              <mxPoint x="977" y="262" />
            </Array>
          </mxGeometry>
        </mxCell>
        <mxCell id="-uuyGiPhGbqL3aWWoljg-45" value="Mount to /efs-example-path" style="edgeLabel;html=1;align=center;verticalAlign=middle;resizable=0;points=[];" parent="-uuyGiPhGbqL3aWWoljg-43" vertex="1" connectable="0">
          <mxGeometry x="0.3509" y="-2" relative="1" as="geometry">
            <mxPoint x="-50" y="7" as="offset" />
          </mxGeometry>
        </mxCell>
        <mxCell id="-uuyGiPhGbqL3aWWoljg-46" value="Copy from EBS - EFS" style="edgeLabel;html=1;align=center;verticalAlign=middle;resizable=0;points=[];" parent="-uuyGiPhGbqL3aWWoljg-43" vertex="1" connectable="0">
          <mxGeometry x="-0.7281" y="3" relative="1" as="geometry">
            <mxPoint x="35" y="3" as="offset" />
          </mxGeometry>
        </mxCell>
        <mxCell id="-uuyGiPhGbqL3aWWoljg-40" value="" style="outlineConnect=0;dashed=0;verticalLabelPosition=bottom;verticalAlign=top;align=center;html=1;shape=mxgraph.aws3.ec2;fillColor=#F58534;gradientColor=none;" parent="1" vertex="1">
          <mxGeometry x="882" y="72" width="54" height="68" as="geometry" />
        </mxCell>
        <mxCell id="-uuyGiPhGbqL3aWWoljg-41" value="EC2 - Jumpbox" style="text;html=1;align=center;verticalAlign=middle;resizable=0;points=[];autosize=1;strokeColor=#d79b00;fillColor=#ffe6cc;" parent="1" vertex="1">
          <mxGeometry x="861" y="146" width="101" height="26" as="geometry" />
        </mxCell>
        <mxCell id="-uuyGiPhGbqL3aWWoljg-47" value="" style="outlineConnect=0;dashed=0;verticalLabelPosition=bottom;verticalAlign=top;align=center;html=1;shape=mxgraph.aws3.volume;fillColor=#E05243;gradientColor=none;" parent="1" vertex="1">
          <mxGeometry x="256" y="234" width="23" height="45" as="geometry" />
        </mxCell>
        <mxCell id="-uuyGiPhGbqL3aWWoljg-48" value="" style="outlineConnect=0;dashed=0;verticalLabelPosition=bottom;verticalAlign=top;align=center;html=1;shape=mxgraph.aws3.volume;fillColor=#E05243;gradientColor=none;" parent="1" vertex="1">
          <mxGeometry x="214" y="234" width="23" height="45" as="geometry" />
        </mxCell>
        <mxCell id="-uuyGiPhGbqL3aWWoljg-49" value="" style="outlineConnect=0;dashed=0;verticalLabelPosition=bottom;verticalAlign=top;align=center;html=1;shape=mxgraph.aws3.volume;fillColor=#E05243;gradientColor=none;" parent="1" vertex="1">
          <mxGeometry x="242" y="286" width="23" height="45" as="geometry" />
        </mxCell>
        <mxCell id="-uuyGiPhGbqL3aWWoljg-50" value="" style="outlineConnect=0;dashed=0;verticalLabelPosition=bottom;verticalAlign=top;align=center;html=1;shape=mxgraph.aws3.volume;fillColor=#E05243;gradientColor=none;" parent="1" vertex="1">
          <mxGeometry x="210" y="316" width="23" height="45" as="geometry" />
        </mxCell>
        <mxCell id="-uuyGiPhGbqL3aWWoljg-51" value="" style="outlineConnect=0;dashed=0;verticalLabelPosition=bottom;verticalAlign=top;align=center;html=1;shape=mxgraph.aws3.volume;fillColor=#E05243;gradientColor=none;" parent="1" vertex="1">
          <mxGeometry x="274" y="316" width="23" height="45" as="geometry" />
        </mxCell>
        <mxCell id="-uuyGiPhGbqL3aWWoljg-52" value="" style="rounded=1;whiteSpace=wrap;html=1;fillColor=none;strokeColor=#FFB570;" parent="1" vertex="1">
          <mxGeometry x="173" y="216" width="157" height="163" as="geometry" />
        </mxCell>
        <mxCell id="-uuyGiPhGbqL3aWWoljg-53" value="EBS Volumes" style="text;html=1;align=center;verticalAlign=middle;resizable=0;points=[];autosize=1;strokeColor=#d79b00;fillColor=#ffe6cc;" parent="1" vertex="1">
          <mxGeometry x="206" y="200" width="91" height="26" as="geometry" />
        </mxCell>
        <mxCell id="-uuyGiPhGbqL3aWWoljg-56" value="&amp;nbsp;Before Migration" style="text;html=1;align=center;verticalAlign=middle;resizable=0;points=[];autosize=1;strokeColor=none;fillColor=none;fontSize=20;fontStyle=4" parent="1" vertex="1">
          <mxGeometry x="147" y="-210" width="170" height="36" as="geometry" />
        </mxCell>
        <mxCell id="-uuyGiPhGbqL3aWWoljg-57" value="" style="endArrow=none;html=1;rounded=0;fontColor=#FFB570;" parent="1" edge="1">
          <mxGeometry width="50" height="50" relative="1" as="geometry">
            <mxPoint x="658" y="343" as="sourcePoint" />
            <mxPoint x="661" y="-161" as="targetPoint" />
          </mxGeometry>
        </mxCell>
        <mxCell id="-uuyGiPhGbqL3aWWoljg-58" value="During Migration" style="text;html=1;align=center;verticalAlign=middle;resizable=0;points=[];autosize=1;strokeColor=none;fillColor=none;fontSize=20;fontStyle=4" parent="1" vertex="1">
          <mxGeometry x="977" y="-210" width="165" height="36" as="geometry" />
        </mxCell>
        <mxCell id="-uuyGiPhGbqL3aWWoljg-60" value="After Migration" style="text;html=1;align=center;verticalAlign=middle;resizable=0;points=[];autosize=1;strokeColor=none;fillColor=none;fontSize=20;fontStyle=4" parent="1" vertex="1">
          <mxGeometry x="590.5" y="528" width="148" height="36" as="geometry" />
        </mxCell>
        <mxCell id="-uuyGiPhGbqL3aWWoljg-75" value="" style="verticalLabelPosition=bottom;sketch=0;aspect=fixed;html=1;verticalAlign=top;strokeColor=none;align=center;outlineConnect=0;shape=mxgraph.citrix.1u_2u_server;" parent="1" vertex="1">
          <mxGeometry x="575" y="704" width="100" height="39.1" as="geometry" />
        </mxCell>
        <mxCell id="-uuyGiPhGbqL3aWWoljg-76" value="" style="verticalLabelPosition=bottom;sketch=0;aspect=fixed;html=1;verticalAlign=top;strokeColor=none;align=center;outlineConnect=0;shape=mxgraph.citrix.1u_2u_server;" parent="1" vertex="1">
          <mxGeometry x="575" y="756" width="100" height="39.1" as="geometry" />
        </mxCell>
        <mxCell id="-uuyGiPhGbqL3aWWoljg-77" value="" style="verticalLabelPosition=bottom;sketch=0;aspect=fixed;html=1;verticalAlign=top;strokeColor=none;align=center;outlineConnect=0;shape=mxgraph.citrix.1u_2u_server;" parent="1" vertex="1">
          <mxGeometry x="569" y="652" width="100" height="39.1" as="geometry" />
        </mxCell>
        <mxCell id="-uuyGiPhGbqL3aWWoljg-78" value="" style="verticalLabelPosition=bottom;sketch=0;aspect=fixed;html=1;verticalAlign=top;strokeColor=none;align=center;outlineConnect=0;shape=mxgraph.citrix.1u_2u_server;" parent="1" vertex="1">
          <mxGeometry x="684" y="678" width="100" height="39.1" as="geometry" />
        </mxCell>
        <mxCell id="-uuyGiPhGbqL3aWWoljg-79" value="" style="verticalLabelPosition=bottom;sketch=0;aspect=fixed;html=1;verticalAlign=top;strokeColor=none;align=center;outlineConnect=0;shape=mxgraph.citrix.1u_2u_server;" parent="1" vertex="1">
          <mxGeometry x="690" y="736" width="100" height="39.1" as="geometry" />
        </mxCell>
        <mxCell id="-uuyGiPhGbqL3aWWoljg-92" style="edgeStyle=orthogonalEdgeStyle;rounded=0;orthogonalLoop=1;jettySize=auto;html=1;" parent="1" source="-uuyGiPhGbqL3aWWoljg-80" edge="1">
          <mxGeometry relative="1" as="geometry">
            <mxPoint x="669.5" y="897" as="targetPoint" />
          </mxGeometry>
        </mxCell>
        <mxCell id="-uuyGiPhGbqL3aWWoljg-93" value="Mount EFS directories to user-session" style="edgeLabel;html=1;align=center;verticalAlign=middle;resizable=0;points=[];" parent="-uuyGiPhGbqL3aWWoljg-92" vertex="1" connectable="0">
          <mxGeometry x="-0.0639" y="1" relative="1" as="geometry">
            <mxPoint as="offset" />
          </mxGeometry>
        </mxCell>
        <mxCell id="-uuyGiPhGbqL3aWWoljg-80" value="" style="rounded=1;whiteSpace=wrap;html=1;fillColor=none;sketch=1;curveFitting=1;jiggle=2;strokeColor=#FFB570;" parent="1" vertex="1">
          <mxGeometry x="540" y="631.1" width="259" height="195.9" as="geometry" />
        </mxCell>
        <mxCell id="-uuyGiPhGbqL3aWWoljg-81" value="Amazon EKS" style="sketch=0;outlineConnect=0;fontColor=#232F3E;gradientColor=none;strokeColor=#ffffff;fillColor=#232F3E;dashed=0;verticalLabelPosition=middle;verticalAlign=bottom;align=center;html=1;whiteSpace=wrap;fontSize=10;fontStyle=1;spacing=3;shape=mxgraph.aws4.productIcon;prIcon=mxgraph.aws4.eks;" parent="1" vertex="1">
          <mxGeometry x="525" y="616" width="38" height="69" as="geometry" />
        </mxCell>
        <mxCell id="-uuyGiPhGbqL3aWWoljg-82" value="EC2-NodePool" style="text;html=1;align=center;verticalAlign=middle;resizable=0;points=[];autosize=1;strokeColor=#d79b00;fillColor=#ffe6cc;shadow=0;rounded=1;glass=0;" parent="1" vertex="1">
          <mxGeometry x="623.5" y="616" width="98" height="26" as="geometry" />
        </mxCell>
        <mxCell id="-uuyGiPhGbqL3aWWoljg-83" value="" style="outlineConnect=0;dashed=0;verticalLabelPosition=bottom;verticalAlign=top;align=center;html=1;shape=mxgraph.aws3.efs_share;fillColor=#E05243;gradientColor=none;" parent="1" vertex="1">
          <mxGeometry x="642.5" y="932" width="36" height="35" as="geometry" />
        </mxCell>
        <mxCell id="-uuyGiPhGbqL3aWWoljg-84" value="" style="outlineConnect=0;dashed=0;verticalLabelPosition=bottom;verticalAlign=top;align=center;html=1;shape=mxgraph.aws3.efs_share;fillColor=#E05243;gradientColor=none;" parent="1" vertex="1">
          <mxGeometry x="646.5" y="975" width="36" height="35" as="geometry" />
        </mxCell>
        <mxCell id="-uuyGiPhGbqL3aWWoljg-85" value="" style="outlineConnect=0;dashed=0;verticalLabelPosition=bottom;verticalAlign=top;align=center;html=1;shape=mxgraph.aws3.efs_share;fillColor=#E05243;gradientColor=none;" parent="1" vertex="1">
          <mxGeometry x="648.5" y="1021" width="36" height="35" as="geometry" />
        </mxCell>
        <mxCell id="-uuyGiPhGbqL3aWWoljg-86" value="" style="outlineConnect=0;dashed=0;verticalLabelPosition=bottom;verticalAlign=top;align=center;html=1;shape=mxgraph.aws3.efs_share;fillColor=#E05243;gradientColor=none;" parent="1" vertex="1">
          <mxGeometry x="696.5" y="964" width="36" height="35" as="geometry" />
        </mxCell>
        <mxCell id="-uuyGiPhGbqL3aWWoljg-87" value="" style="outlineConnect=0;dashed=0;verticalLabelPosition=bottom;verticalAlign=top;align=center;html=1;shape=mxgraph.aws3.efs_share;fillColor=#E05243;gradientColor=none;" parent="1" vertex="1">
          <mxGeometry x="696.5" y="1010" width="36" height="35" as="geometry" />
        </mxCell>
        <mxCell id="-uuyGiPhGbqL3aWWoljg-88" value="" style="rounded=1;whiteSpace=wrap;html=1;fillColor=none;strokeColor=#FFB570;" parent="1" vertex="1">
          <mxGeometry x="562.5" y="907" width="220" height="180" as="geometry" />
        </mxCell>
        <mxCell id="-uuyGiPhGbqL3aWWoljg-89" value="" style="sketch=0;points=[[0,0,0],[0.25,0,0],[0.5,0,0],[0.75,0,0],[1,0,0],[0,1,0],[0.25,1,0],[0.5,1,0],[0.75,1,0],[1,1,0],[0,0.25,0],[0,0.5,0],[0,0.75,0],[1,0.25,0],[1,0.5,0],[1,0.75,0]];outlineConnect=0;fontColor=#232F3E;fillColor=#7AA116;strokeColor=#ffffff;dashed=0;verticalLabelPosition=bottom;verticalAlign=top;align=center;html=1;fontSize=12;fontStyle=0;aspect=fixed;shape=mxgraph.aws4.resourceIcon;resIcon=mxgraph.aws4.efs_standard;" parent="1" vertex="1">
          <mxGeometry x="570.5" y="956" width="59" height="59" as="geometry" />
        </mxCell>
        <mxCell id="-uuyGiPhGbqL3aWWoljg-90" value="Student &lt;br&gt;Directories" style="text;html=1;align=center;verticalAlign=middle;resizable=0;points=[];autosize=1;strokeColor=#82b366;fillColor=#d5e8d4;" parent="1" vertex="1">
          <mxGeometry x="686.5" y="918.05" width="75" height="41" as="geometry" />
        </mxCell>
        <mxCell id="-uuyGiPhGbqL3aWWoljg-91" value="EFS Storage" style="text;html=1;align=center;verticalAlign=middle;resizable=0;points=[];autosize=1;strokeColor=#d79b00;fillColor=#ffe6cc;" parent="1" vertex="1">
          <mxGeometry x="626.5" y="1074" width="87" height="26" as="geometry" />
        </mxCell>
        <mxCell id="-uuyGiPhGbqL3aWWoljg-94" value="Script" style="html=1;whiteSpace=wrap;strokeColor=none;fillColor=#0079D6;labelPosition=center;verticalLabelPosition=middle;verticalAlign=top;align=center;fontSize=12;outlineConnect=0;spacingTop=-6;fontColor=#FFFFFF;sketch=0;shape=mxgraph.sitemap.script;" parent="1" vertex="1">
          <mxGeometry x="762.5" y="218" width="61" height="51.95" as="geometry" />
        </mxCell>
        <mxCell id="-uuyGiPhGbqL3aWWoljg-95" value="" style="endArrow=classic;html=1;rounded=0;startArrow=classic;startFill=1;" parent="1" edge="1">
          <mxGeometry width="50" height="50" relative="1" as="geometry">
            <mxPoint x="803" y="210.05" as="sourcePoint" />
            <mxPoint x="853" y="160.05" as="targetPoint" />
          </mxGeometry>
        </mxCell>
        <mxCell id="-uuyGiPhGbqL3aWWoljg-96" value="Execute the cluster migration script" style="edgeLabel;html=1;align=center;verticalAlign=middle;resizable=0;points=[];" parent="-uuyGiPhGbqL3aWWoljg-95" vertex="1" connectable="0">
          <mxGeometry x="-0.159" y="-1" relative="1" as="geometry">
            <mxPoint as="offset" />
          </mxGeometry>
        </mxCell>
        <mxCell id="-uuyGiPhGbqL3aWWoljg-97" value="" style="rounded=1;whiteSpace=wrap;html=1;fillColor=none;strokeColor=#FFB570;" parent="1" vertex="1">
          <mxGeometry x="61" y="-107" width="393" height="538" as="geometry" />
        </mxCell>
        <mxCell id="-uuyGiPhGbqL3aWWoljg-98" value="JupyterHub - VPC" style="text;html=1;align=center;verticalAlign=middle;resizable=0;points=[];autosize=1;strokeColor=#d79b00;fillColor=#ffe6cc;" parent="1" vertex="1">
          <mxGeometry x="194" y="-118" width="115" height="26" as="geometry" />
        </mxCell>
        <mxCell id="-uuyGiPhGbqL3aWWoljg-99" value="" style="rounded=1;whiteSpace=wrap;html=1;fillColor=none;strokeColor=#FFB570;" parent="1" vertex="1">
          <mxGeometry x="735" y="-135" width="551" height="523" as="geometry" />
        </mxCell>
        <mxCell id="-uuyGiPhGbqL3aWWoljg-100" value="JupyterHub - VPC" style="text;html=1;align=center;verticalAlign=middle;resizable=0;points=[];autosize=1;strokeColor=#d79b00;fillColor=#ffe6cc;" parent="1" vertex="1">
          <mxGeometry x="933" y="-150" width="115" height="26" as="geometry" />
        </mxCell>
        <mxCell id="-uuyGiPhGbqL3aWWoljg-101" value="" style="rounded=1;whiteSpace=wrap;html=1;fillColor=none;strokeColor=#FFB570;" parent="1" vertex="1">
          <mxGeometry x="491" y="595" width="366" height="523" as="geometry" />
        </mxCell>
        <mxCell id="-uuyGiPhGbqL3aWWoljg-102" value="JupyterHub - VPC" style="text;html=1;align=center;verticalAlign=middle;resizable=0;points=[];autosize=1;strokeColor=#d79b00;fillColor=#ffe6cc;" parent="1" vertex="1">
          <mxGeometry x="603" y="583" width="115" height="26" as="geometry" />
        </mxCell>
      </root>
    </mxGraphModel>
  </diagram>
  <diagram id="7P68ylYYg7dhpFZS9mHF" name="Page-2">
    <mxGraphModel dx="1562" dy="1020" grid="0" gridSize="10" guides="1" tooltips="1" connect="1" arrows="1" fold="1" page="0" pageScale="1" pageWidth="1920" pageHeight="1200" math="0" shadow="0">
      <root>
        <mxCell id="0" />
        <mxCell id="1" parent="0" />
        <mxCell id="aRn1iFg3sAYWJhAjc8pi-5" style="edgeStyle=orthogonalEdgeStyle;rounded=0;orthogonalLoop=1;jettySize=auto;html=1;fillColor=#ffe6cc;strokeColor=#d79b00;" edge="1" parent="1" source="aRn1iFg3sAYWJhAjc8pi-1">
          <mxGeometry relative="1" as="geometry">
            <mxPoint x="506" y="300" as="targetPoint" />
          </mxGeometry>
        </mxCell>
        <mxCell id="aRn1iFg3sAYWJhAjc8pi-1" value="Student/Staff" style="shape=umlActor;verticalLabelPosition=bottom;verticalAlign=top;html=1;outlineConnect=0;fillColor=#ffe6cc;strokeColor=#d79b00;" vertex="1" parent="1">
          <mxGeometry x="384" y="270" width="30" height="60" as="geometry" />
        </mxCell>
        <mxCell id="aRn1iFg3sAYWJhAjc8pi-7" style="edgeStyle=orthogonalEdgeStyle;rounded=0;orthogonalLoop=1;jettySize=auto;html=1;fillColor=#ffe6cc;strokeColor=#d79b00;" edge="1" parent="1" source="aRn1iFg3sAYWJhAjc8pi-4">
          <mxGeometry relative="1" as="geometry">
            <mxPoint x="571.4499999999998" y="390" as="targetPoint" />
          </mxGeometry>
        </mxCell>
        <mxCell id="aRn1iFg3sAYWJhAjc8pi-10" style="edgeStyle=orthogonalEdgeStyle;rounded=0;orthogonalLoop=1;jettySize=auto;html=1;fillColor=#ffe6cc;strokeColor=#d79b00;" edge="1" parent="1" source="aRn1iFg3sAYWJhAjc8pi-4">
          <mxGeometry relative="1" as="geometry">
            <mxPoint x="710" y="296" as="targetPoint" />
          </mxGeometry>
        </mxCell>
        <mxCell id="aRn1iFg3sAYWJhAjc8pi-27" value="Append&lt;br&gt;LTI&lt;br&gt;Keys" style="edgeLabel;html=1;align=center;verticalAlign=middle;resizable=0;points=[];fontColor=#000000;" vertex="1" connectable="0" parent="aRn1iFg3sAYWJhAjc8pi-10">
          <mxGeometry x="-0.087" y="-3" relative="1" as="geometry">
            <mxPoint as="offset" />
          </mxGeometry>
        </mxCell>
        <mxCell id="aRn1iFg3sAYWJhAjc8pi-4" value="" style="shape=image;verticalLabelPosition=bottom;labelBackgroundColor=default;verticalAlign=top;aspect=fixed;imageAspect=0;image=data:image/png,iVBORw0KGgoAAAANSUhEUgAAAwYAAAMQCAYAAACdSXJSAAAABGdBTUEAALGPC/xhBQAAACBjSFJNAAB6JgAAgIQAAPoAAACA6AAAdTAAAOpgAAA6mAAAF3CculE8AAAAomVYSWZNTQAqAAAACAAFARIAAwAAAAEAAQAAARoABQAAAAEAAABKARsABQAAAAEAAABSASgAAwAAAAEAAgAAh2kABAAAAAEAAABaAAAAAAAAAJAAAAABAAAAkAAAAAEABJKGAAcAAAASAAAAkKABAAMAAAABAAEAAKACAAQAAAABAAADBqADAAQAAAABAAADEAAAAABBU0NJSQAAAFNjcmVlbnNob3SkeHQsAAAACXBIWXMAABYlAAAWJQFJUiTwAAADCWlUWHRYTUw6Y29tLmFkb2JlLnhtcAAAAAAAPHg6eG1wbWV0YSB4bWxuczp4PSJhZG9iZTpuczptZXRhLyIgeDp4bXB0az0iWE1QIENvcmUgNi4wLjAiPgogICA8cmRmOlJERiB4bWxuczpyZGY9Imh0dHA6Ly93d3cudzMub3JnLzE5OTkvMDIvMjItcmRmLXN5bnRheC1ucyMiPgogICAgICA8cmRmOkRlc2NyaXB0aW9uIHJkZjphYm91dD0iIgogICAgICAgICAgICB4bWxuczp0aWZmPSJodHRwOi8vbnMuYWRvYmUuY29tL3RpZmYvMS4wLyIKICAgICAgICAgICAgeG1sbnM6ZXhpZj0iaHR0cDovL25zLmFkb2JlLmNvbS9leGlmLzEuMC8iPgogICAgICAgICA8dGlmZjpSZXNvbHV0aW9uVW5pdD4yPC90aWZmOlJlc29sdXRpb25Vbml0PgogICAgICAgICA8dGlmZjpYUmVzb2x1dGlvbj4xNDQvMTwvdGlmZjpYUmVzb2x1dGlvbj4KICAgICAgICAgPHRpZmY6WVJlc29sdXRpb24+MTQ0LzE8L3RpZmY6WVJlc29sdXRpb24+CiAgICAgICAgIDx0aWZmOk9yaWVudGF0aW9uPjE8L3RpZmY6T3JpZW50YXRpb24+CiAgICAgICAgIDxleGlmOlBpeGVsWERpbWVuc2lvbj43NzQ8L2V4aWY6UGl4ZWxYRGltZW5zaW9uPgogICAgICAgICA8ZXhpZjpDb2xvclNwYWNlPjE8L2V4aWY6Q29sb3JTcGFjZT4KICAgICAgICAgPGV4aWY6VXNlckNvbW1lbnQ+U2NyZWVuc2hvdDwvZXhpZjpVc2VyQ29tbWVudD4KICAgICAgICAgPGV4aWY6UGl4ZWxZRGltZW5zaW9uPjc4NDwvZXhpZjpQaXhlbFlEaW1lbnNpb24+CiAgICAgIDwvcmRmOkRlc2NyaXB0aW9uPgogICA8L3JkZjpSREY+CjwveDp4bXBtZXRhPgof26B5AABAAElEQVR4Aey9B5cbx7WuXdXDTDEnUWJWtC1Zsn3OPWet++u/de+5J9iWrSyKWcw5Z7L7e5/dgSA4ATMDzACYt6UmBqm76qkGsN/aofKBAweq5M0ETMAETMAETMAETMAETGBNEyjWdO/deRMwARMwARMwARMwARMwgSBgYeALwQRMwARMwARMwARMwARMIFkY+CIwARMwARMwARMwARMwAROwMPA1YAImYAImYAImYAImYAImkCwMfBGYgAmYgAmYgAmYgAmYgAmklAUhqhJV1XCLEz19+vQtvhw/Z05Xb0u9v3nz5vYQQ7l1O82TC2mp12N7Ebbv9/VZE2l59PNZ7H3zNM/2mlnOrb/n/T3P9ePvpeV8ilLy52htfI7WLe8ymfvdRTEZ6Qtu59xjuJRnzHMp1OZ+j3nOzWYpz5jnUqjN/R7znJvNUp4xz6VQm/s95jk3m6U8Y55LoTb3e8aV58g8BmVZzk1jGc8MG6TbOVwBZ57muYyP9ztv9ef9HSTLesA8l4XvnTeb5ztIlvWAeS4L3ztvNs93kCzrgbXCc2TCYFn0/WYTMAETMAETMAETMAETMIEVJTDc6c0VbbpPZgImYAImYAImYAImYAImMCwCFgbDIunjmIAJmIAJmIAJmIAJmMAEE7AwmODBc9NNwARMwARMwARMwARMYFgELAyGRdLHMQETMAETMAETMAETMIEJJmBhMMGD56abgAmYgAmYgAmYgAmYwLAIWBgMi6SPYwImYAImYAImYAImYAITTMDCYIIHz003ARMwARMwARMwARMwgWERsDAYFkkfxwRMwARMwARMwARMwAQmmICFwQQPnptuAiZgAiZgAiZgAiZgAsMiYGEwLJI+jgmYgAmYgAmYgAmYgAlMMAELgwkePDfdBEzABEzABEzABEzABIZFwMJgWCR9HBMwARMwARMwARMwAROYYAIWBhM8eG66CZiACZiACZiACZiACQyLgIXBsEj6OCZgAiZgAiZgAiZgAiYwwQQsDCZ48Nx0EzABEzABEzABEzABExgWAQuDYZH0cUzABEzABEzABEzABExgggmsa9t+7969lHOOu+vXr08bN25MMzMz7dO+NQETMAETMAETMAETMAETmDICVVUl9levXqV3PAatOJiyPrs7JmACJmACJmACJmACJmAC8xB4RxjM81o/ZQImYAImYAImYAImYAImMKUELAymdGDdLRMwARMwARMwARMwARNYDIFOGBBb5M0ETMAETMAETMAETMAETGBtEuiEgXML1uYF4F6bgAmYgAmYgAmYgAmYAAQ6YWAcJmACJmACJmACJmACJmACa5eAhcHaHXv33ARMwARMwARMwARMwAQ6Ap0w6M8x6L/fvcN/mIAJmIAJmIAJmIAJmIAJTB2BThj05xj035+6nrtDJmACJmACJmACJmACJmACHYFOGHSP+A8TMAETMAETMAETMAETMIE1R8DCYM0NuTtsAiZgAiZgAiZgAiZgAu8S6IRBf05B//133+pHTMAETMAETMAETMAETMAEpoVAJwz6cwr6709Lh90PEzABEzABEzABEzABEzCBdwl0wuDdp/yICZiACZiACZiACZiACZjAWiFgYbBWRtr9NAETMAETMAETMAETMIF5CHTCoD+noP/+PMfwUyZgAiZgAiZgAiZgAiZgAhNOoBMG/TkF/fcnvJ9uvgmYgAmYgAmYgAmYgAmYwDwEOmEwz2v8lAmYgAmYgAmYgAmYgAmYwJQTsDCY8gF290zABEzABEzABEzABExgEAKdMOjPKei/P8jB/BoTMAETMAETMAETMAETMIHJJNAJg/6cgv77k9k9t9oETMAETMAETMAETMAETGAQAlkvqnihPQSD4PJrTMAETMAETMAETMAETGA6CXQeg+nsnntlAiZgAiZgAiZgAiZgAiYwCAELg0Eo+TUmYAImYAImYAImYAImMOUELAymfIDdPRMwARMwARMwARMwARMYhICFwSCU/BoTMAETMAETMAETMAETmHICFgZTPsDungmYgAmYgAmYgAmYgAkMQsDCYBBKfo0JmIAJmIAJmIAJmIAJTDkBC4MpH2B3zwRMwARMwARMwARMwAQGIWBhMAglv8YETMAETMAETMAETMAEppyAhcGUD7C7ZwImYAImYAImYAImYAKDELAwGISSX2MCJmACJmACJmACJmACU07AwmDKB9jdMwETMAETMAETMAETMIFBCFgYDELJrzEBEzABEzABEzABEzCBKSdgYTDlA+zumYAJmIAJmIAJmIAJmMAgBCwMBqHk15iACZiACZiACZiACZjAlBOwMJjyAXb3TMAETMAETMAETMAETGAQAhYGg1Dya0zABEzABEzABEzABExgyglYGEz5ALt7JmACJmACJmACJmACJjAIAQuDQSj5NSZgAiZgAiZgAiZgAiYw5QQsDKZ8gN09EzABEzABEzABEzABExiEwLr2Rffu3Us557i7fv36tHHjxjQzM9M+7VsTMAETMAETMAETMAETMIEpI1BVVWJ/9epVesdj0IqDKeuzu2MCJmACJmACJmACJmACJjAPgXeEwTyv9VMmYAImYAImYAImYAImYAJTSsDCYEoH1t0yARMwARMwARMwARMwgcUQ6IQBsUXeTMAETMAETMAETMAETMAE1iaBThg4t2BtXgDutQmYgAmYgAmYgAmYgAlAoBMGxmECJmACJmACJmACJmACJrB2CVgYrN2xd89NwARMwARMwARMwARMoCPQCYP+HIP++907/IcJmIAJmIAJmIAJmIAJmMDUEeiEQX+OQf/9qeu5O2QCJmACJmACJmACJmACJtAR6IRB94j/MAETMAETMAETMAETMAETWHMELAzW3JC7wyZgAiZgAiZgAiZgAibwLoFOGPTnFPTff/etfsQETMAETMAETMAETMAETGBaCHTCoD+noP/+tHTY/TABEzABEzABEzABEzABE3iXQCcM3n3Kj5iACZiACZiACZiACZiACawVAhYGa2Wk3U8TMAETMAETMAETMAETmIdAJwz6cwr6789zDD9lAiZgAiZgAiZgAiZgAiYw4QQ6YdCfU9B/f8L76eabgAmYgAmYgAmYgAmYgAnMQ6ATBvO8xk+ZgAmYgAmYgAmYgAmYgAlMOQELgykfYHfPBEzABEzABEzABEzABAYh0AmD/pyC/vuDHMyvMQETMAETMAETMAETMAETmEwCnTDozynovz+Z3XOrTcAETMAETMAETMAETMAEBiGQ9aKKF9pDMAguv8YETMAETMAETMAETMAEppNA5zGYzu65VyZgAiZgAiZgAiZgAiZgAoMQsDAYhJJfYwImYAImYAImYAImYAJTTsDCYMoH2N0zARMwARMwARMwARMwgUEIWBgMQsmvMQETMAETMAETMAETMIEpJ2BhMOUD7O6ZgAmYgAmYgAmYgAmYwCAELAwGoeTXmIAJmIAJmIAJmIAJmMCUE7AwmPIBdvdMwARMwARMwARMwARMYBACFgaDUPJrTMAETMAETMAETMAETGDKCVgYTPkAu3smYAImYAImYAImYAImMAgBC4NBKPk1JmACJmACJmACJmACJjDlBCwMpnyA3T0TMAETMAETMAETMAETGISAhcEglPwaEzABEzABEzABEzABE5hyAhYGUz7A7p4JmIAJmIAJmIAJmIAJDELAwmAQSn6NCZiACZiACZiACZiACUw5AQuDKR9gd88ETMAETMAETMAETMAEBiFgYTAIJb/GBEzABEzABEzABEzABKacgIXBlA+wu2cCJmACJmACJmACJmACgxCwMBiEkl9jAiZgAiZgAiZgAiZgAlNOwMJgygfY3TMBEzABEzABEzABEzCBQQisa1907969lHOOu+vXr08bN25MMzMz7dO+NQETMAETMAETMAETMAETmDICVVUl9levXqV3PAatOJiyPrs7JmACJmACJmACJmACJmAC8xB4RxjM81o/ZQImYAImYAImYAImYAImMKUELAymdGDdLRMwARMwARMwARMwARNYDIFOGBBb5M0ETMAETMAETMAETMAETGBtEuiSj51bsDYvAPfaBExgXAlosibma/pu20kcbnv/phvxWPzR917uxsGax5fR57pGRcr6r9uawhX1Q3qcp7rHuN+8ltvevzlA//3uoP7DBEzABExgpQl0wmClT+zzmYAJmIAJzEWgMfpLbkvtui11y/245e83e3h847nXKb1u3hPv5e9677zCurusrbHxa4O+MfSL5pbnCjmiZ7TrNiacuD/bjiCI9zXP06hWJCyrgX6zCZiACZjAUglYGCyVnN9nAiZgAkslEDP9stD7jPcw4l9j3GtX2bj08mW96+8q7vOYdv5un9drq+717XOlHkM4cKz6tuJceA24wYBf1iZ/QWvYFyprTWlrxIAey+v094b1Ka3XLc+t089M/77+zWOZv1UiO3Zex7EyYqEVGwiI+tgWDssaNL/ZBEzABBYkoG/hemM2qTecqJtdal/gWxMwARMwgeUTaGbww2gPA78RAa2B//x5Sk+fpvTkSUqPtHP79FmqeEy36Zn+5jXPtHOrvUJAPH+RqnjsRUovXuoxRIKOzXM6T4VICEFCF5aqDFAVbBIAGO4Y8RjzGPZh1MtLIFGQt25OaeOG+vENG1LWujhxn9tNG1PetEm32jdr37Ilpa3sW+vbjZtSbo+HyGhFRYgPRMNS21633P+agAmYgAnMTaATBr2igJf335/7EH7GBEzABExgVgKtCEAAtDP4zUx/GPdPZOzL0I8dw/6FjHoEwMNH9f7gYaoe6e/HT1IVAkG3vF6vTbwWUSAREMa/7lfPmsclCqqXjeCIczfn7zwGSzWu3wiDCgM9hIGMdQx5/iZ8CGGwRQJAgqDzBEgkZO4jFjYgDmT8N6IgvydBsG1bytu3pbR9eyMOEBLsej0CQuKhFhN6jHOFl0JehBk8DPYmzHrt+UETMAETWAKBThgs4b1+iwmYgAmYwFwEWlHAjL0M+5jpZ0Y/PAEy+O8/SEkrzlf37qekvyu8Axj9er560AiDhwiDx3rsqbwEeu6lhMBrHa/NLwixoVAhzsVj7X393eUdtO3gdqibhEEbTsRtu8uTUIVI0G2TW5C7HAO9Loz6dfIKNJ4DeQrytvckCt6rb/EcbJbHYctmeR70947tKe/ZldKunfp7h4SDXievQysYQkAQjsT5vZmACZiACSyLgIXBsvD5zSZgAiYwBwEMcWL/NftfXb6S0s1bMvjv14IAT4BEQbojYXBXux4P8UBo0FMZ/3gS2OU9qAgfwkMggVFVmvknGbmpMKQA0Dj5wibxwq+YoxcDPtyKDomBeEfvv72H4HHaUkg8IA7kXZBnoJIISFvkReB2c+MtCHEg0YAw2Lsn5d21OMjyLlSIid27U/7wg5T27K69DHgkvJmACZiACSyLQCcMnGOwLI5+swmYgAm8TQBhQGz/7dup+vb7VJ38NVXXrkoI3E3VYxn78hBUDx9LBMgj8Ey3r16kzIx/7Hpv3JJYzGO6HzP/CpuRUd1u75r77z7SvnZlbxEAtQSY87xKho7ciNcSO3hDHiIW1H6FBlWRvyDhsA6vgjwHhBnJq5C3kYugW/Zjx1Lxb39JmVCiSHZWiJG9BnPi9hMmYAImMAiBThj05xT03x/kYH6NCZiACZhAQ6DzGMg7cP5Cqn74MZUXdXvnrvIDZPA/lwfgKZ4A5Qa81m14Alp6GP8Y+e3O4/z9RhTwyLsbrxmHrRYG87Yk+FA9Sa8lUTp8DbU3pF5zgb7MpGqdvAqRsLwhVZtk/JOfsEkeA4Vn5WOHUz4srwF5FN5MwARMwASWTaATBss+kg9gAiZgAibQQ4BZfhm6hAcpXKi8cT2V16/VIUSlDPxShi9GsWbOc6XEXRnBb7bWwG9v22f677ePj9vtoO3sfR1iAgZtgFTTJ3lMIuH6pbwKcq6Q5FzNbEzFrl3yvOBpeS1+vNebCZiACZjAcglYGCyXoN9vAiZgArMSkNEb9fglAki+xXZV1aDqyTPN/fPVy+w/O8Yxt2y9hnL9yPT+29/X/vv0XNAw+mX8V6/wJihnQ8nLWY6DKMVK6BCJzg4hApY3EzABE1g2gfbXqK5g0XM4r2PQA8N/moAJmMBiCWCsUoefOv379ymBdr/Kbyo2PpEkizBgdrwVBhjFsxnGenhNby0XWLGTsKxQoh07Ixk5q7xpJCwjDryZgAmYgAksm0DnMejPKei/v+wz+QAmYAImsJYIxGy2vmKpwY8wYN+0RXPg3deuaFgMLHxJtIyaeSxVMcp7VZFo/96oWBRlSy0MFsboV5iACZjAAAQ6j8EAr/VLTMAETMAEBiWAMGDBL4TBgf0hDJIq7ER4URyD2CJ2bwsTqFlFUjKJyAcksj54P6WdWhCNNQ0cTrQwQr/CBEzABAYgYGEwACS/xARMwAQWTaARBmG4aoY77ZMxywq/Yci2s+CLPuoaf4O4bVQoEULroISBeMYKy+RweDMBEzABE1g2ge7btD+noP/+ss/kA5iACZjAWiSwfkPKO3ekvE+LdO3dpZr8yjNgpV57Cwa8Gt54VrJCr2Jdg/0SBu8fCKGVxDeSuwc8ml9mAiZgAiYwN4FOGPTnFPTfn/sQfsYETMAEJoXAGyNzxVqMCHhPYoC4+IMyZvfJe7DRq/Qujr/GTYufZdYwYLEzhRIlCa3ESskrFUZEdaRSlZHY+dslUhc3hH61CZjARBDosuB27tw5EQ12I03ABExgaQR6jLkukqf7Y2mHXOhdkYCsijlUJtotYXD0w5QvX0rp1s1U3X+g+W+1KbYRt2Ohdo718zAq5WXRQmc7JLDwvBxQ4vHuXRJYyi+A8UpsCIHXKpfKLastU4qWbaXOX5/N/5qACZjA0AngDGDfsGHDW+Uxhn4iH9AETMAEVp0Aq+I+fapVhrVAlm4pBJQ3a6aZXTPQaV03PzKapjKjjQFLONFhCYMPD6Z06ozsytt1NFGrDUZz9ik5qiBtkDDovC7yGOxQ4rF+xMIwH6VxjocAQcA1dO9+vWAdOQ0kQW97T7e6jriGnOcwJdeau2ECa5vAiH8R1zZc994ETGC1CcigxKC7cjVVV6+mdO16bUh+8EFKqmqTDxyIMJ+RthKjVYZjGJE6b2ZX0mylGfD0UqKlC0lZoZnvkXZ22AdHNbHLON+sXI2Dyi04rLHbqzCi9xRShEE+SlFAd1pRcP16qk6eSum2BB3qEo/FR8cj1yHagkjxZgImYAITTsDCYMIH0M03ARPoI8AML16C589T9ehRiIHy19OpOnchpUuXaiP9449Tfva8rnCDQTfKGV8MV7wGhBNRTefQh6mQIKmuytC8f0+rIasdsXiXhcHbI9mIAiJ2ZuQtYDGzw4dSPnI4pV0yyvH2wHWUG6JN11G6fSels+dT9Y9vU3X5inSKHldIU/HwYUrHj6dE7shOtYmcBwTfqMXKKPvsY5uACaxpAhYGa3r43XkTmEICiILHj1N1/Uaqzp6LWd7yp18kDH5L1Y0bdVWbO/dTodflXTtS2iqDfevWOixlFDhaI5HE2b17UyKc6KNjqbh1I71+oXY+e6L55yZefRTnn8hjIpIQBgrhmZG3hbUg9khUyQjPx44q10DjhgE+yvAdRAEiU+Ky+u1iKn/8OZV//2eqzl9I1avXUWmqunwtFZ9eTPl3n6V04liIvkTbVioheiLH1o02ARMYZwIWBuM8Om6bCZjAYAQw4gjLiThwzcJfuyZRcD6FIFD4R3lGAkEz9On+/VQpt6DQ68vNMtSJ92dtgYOaeW7DUlpDfrAzD/YqjokhS0Wd999PxScfpeqmRMrtWyk9fCz7V8/TB0JUvIkALOo9q4JTZg0IeQoQBYn1CxBzoza+2xCiW7dTdfpMqn4+maozZ1P5m7xOeq5CrDyQR+ruvVQ8eJDSPV13jzSWuqZCuOAhGrV48bViAiZgAkMmYGEwZKA+nAmYwAoTwKBmx0ugMI/q7NlUMbsrQVCdPi9BIJGgpNHqyROJhxcpV2UqL11OxXtbUykjrsBYl6EZCcmjNDYjYRWvgeLjP/skFQpPqc5rJvq22kZitGahZe1qx3uAUbyWN/rPLqEkb05x4mgqPv9EVZ0kDuC3EtWIXrxI1Z274S2ofpIo4Hq6dUtjpeuIpr2SN+HlpVTiUbh5M2V5FYqLl1LW2KZP1dYPlQuB94C2ejMBEzCBCSFgYTAhA+VmmoAJ9BFADDCr++xZqh4o1htRcPJXeQlkxP34UyqVU1BdvZGSniP0I5UY3mWqnlcp35XBd/lyqsg9UBJp3q8qN6yiyyzvqMJTOC6eA4QIs983ZEz+ckReA8Wvk9hKCFQzS97X0zV2F6tbY6V1C9J6Vf7ZozKvH51IWV4WcjRinJiJH9XWCs0nqmClMQrxJo8TYrJ6KA8BninE2ysJhxcvJRSey3PwMGUqFmnPEhMFngNeyzir/VEBC4+UNxMwARMYcwL+phrzAXLzTMAE5iCAKCDBGOPtV83m/vhLKr/7MZWEfchLQIhHNxOPsRcz8TI29Wf18qWMOIkDXqs1XKpIaN2ZMsbbKI1OhIFmkCPX4NiRVPzu0whBef1YwuaxZqI7YaDXrcmNfku8JeV/xIrR21Khmff8mZLFEQe7tN6OypaOTLzBnGtFIo3E9eqSxCY5Bdze1vX0ohEFPdcSQqEiHEzvea3QonxDXgWFrRV6T/7zV7X34ANC1lTa1KFiEPZmAiYwxgQsDMZ4cNw0EzCBWQggCF48V77AgzrBmNnc736ohcFJeQBUljSqET2X8Y8eiA2Ds9kVSpTYZYhXVxRmhOGnuPHMbLRWKI7ZXQx49lFsba6BYuXzZ5+G9yIrKTo9VlnVZy/qEJXW8BzF+cf6mBoX0BczUdK1OCKPyqcSBSdOqLysjGuFf9WViEY0NrDh+mK9C8KILl6sQ4koUapQtahG1I0NbdAFRoUiPAeIzUcSd3pdibdAXoOCxxB8eixH+1n3oKmmNKrra6zH140zARMYdwIWBuM+Qm6fCZjA2wQQBTLUqDhUfvNdKn/4WR4Dzfwzq6sE0MglIHSo6jUe+//O9ewvuQckJSs+nKTRREgRoT7rNCs9KsONkCIW69JKyImZ8EcPUyGBUiJUCCmScak1KNXn3ja/jWA676HiJAwK9X79ZnlVDqTij1+m4k9fKbdAAgFvgbwII+fSegsk1ihxWylvoNIYVYSiVRq7t8amZ4yi+fJ2SOAlXVPlc4Ua3dPq1hevpOLy1VT8/jOJHOUfIEBXYmG96bxI3CsTMIERE7AwGDFgH94ETGAIBAjvYPZVCcSUIU1nVR1GgqD82z+UZCwvwRUqDsmD8EqvYQa3M6p7DLe3miED77Vepzjy6o6SgDH+jhxK6bhKYWp13QhVwYAfxYbgIMmZ2W/CZBR+gjCIikq0nxj2l2obpTJjdnoUjRi3YzJm9Z61kjBViIqPJJq++EPKn8ugRrCxUjXcRrVxjbErZyVRiYhF8S4qr+CarjeSw3kuttmuKR7j/bohtAhxIS9CRuSR/8J6GqqIlXWc/LFCohAHWpchVm4eZZ/qBvtfEzABExiYgIXBwKj8QhMwgVUhEAabjGRmbS8otENrEpR//XsdOnReaxPckmEfVX1kUIfthpE2m/HWtr55TsetSr3niWLJCT9ScinhI5TDJL49vAbtW4Z+qzYopCjv0Cy4cg3S4z+rhKqaL69B+VQzzTIik2ac634gUKJjQ2/FeByQvjU7okkGM7kXxV++SsUXv4tKRBGfP8qKUYDgOpNBHyVHEWoXJBa1TkGlNS/q3AKum+ba4fXvbD3P0Z3IPZAgeK3cAy2ERi5McV07+S9f/zFlidBYqA3B480ETMAExoSAhcGYDISbYQIm0EcAQ62J9yZEKCkPIMqQKp+gZAVawjwUqlGxcjCGWBhtPcZZ3+Hevsvr9CbOQVUjZog1M0xFmTAMt5IoOuJNcfSElOQ9eyNBlUTqQu0gXr08fz5KZSoHt/EcDNqvEbd56IePgdNRdasVqLMSdAvChr6Up+DL36ekvxMhV5T8HJUHp+0THhp5pSqMeErcUuWqzS14recG8t6046T+RO6BRF7kHijvgFwDKh0p3yByDyife/zYG2/IKJPe2z761gRMwAQWIGBhsAAgP20CJrBKBBAFGO0YaT/8lKrvVXHoW4kCLTIV4UT3ZcC97M0laI2yRbaXsA9KmlI2lJ3QD0pMhtpY4jEHaUKbw8BCa/sVWqL48wLDcZ0Eg9pUktBKCEpUwiGEZkShTYO0dSSvQRS0wkB5BYgClSQt/vxH7cor+FyJ2YzDSogC+idhULF2AdfCNeV6sEjeEwnP1/LcvJNbsBCQnuuGLipsjVKnUUJXwqC6fTdlVk3+t7+kRO7BoUPyIPFz3PO+hU7h503ABExgBAQsDEYA1Yc0ARNYBgFmbgnp0GqyIQp+0doE//O3VH2ntQlOKcmY8qSaXa8XBMNYXqoxxfsKiQud76FyF2SsITiyFrFKBxTTTnlJZvVbA34ZXZrzrRybmWKdKx9U8rNml7MEUeQdiENJVRzq40v/1DkHtHmp/Z2zFavwRCsKdEsitjw0JBgXXynZ+M9fq1qTFgijio8WNxtpXkFvz/EKEJLGdXdTJUeVe5KeSajF+hdLvc6ascIzpSpZCA88QyW5B4hAVccqyGkgH+HQh7oOlPguz8lIr7nePvtvEzABE+gjYGHQB8R3TcAEVpkAooBZVVUKqv77b6n85p/yFMhboFAiwnwqYu9JHI4Z9OUayTL4mM2lVCjlKVU9JtZAOHwoZa1vELPVo04ORRxwDsTB4cOpIASFkBbq9ctYLeUxiEpL5EPEysiMz3L7zTFWa2Ps3uyZlY0/OpYKxd0X//vflHD8+3rVYETBSi4KplwAktsjiZ0F8PAckQg+lI3xUp9VKauijC7XGgKYSlTkHkiMUIGJ0qyJ0LLQIZM8xkOB5oOYgAmsAgELg1WA7lOagAnMQgBBwIJlMsoS1WAUPlT+11+1RoFEwflm5rx7G0bTcg2n5v0Y4qXOS3LzTXkjNFucWbmW2HBm80ctDOgT4oCZYpXkzMwiE0qkZlHFplBsfXn1ihZC00w2oVMhiuJN/DNhG51Sk9WnvFH9VWWm4qjEkEqSFn+Rp+APTbIx60nAY0U2DHbtzObjLSCcjFwT1iKg7O2yr7O2E3Rc55HYa5PlSwmR/LypeCTBW+C1OPFConTHmypMo/RYtU3zrQmYgAk0BCwMfCmYgAmMBwFEAYb5r6dT+d9/TdU/v0/lL6fqRcioDf+WgdYY9ctuOceRMUaszkt5DR5oHYR2LQTCepjVXamt9RyoKk8+cTwVmi3Pyjcod25P6Zs62TrdVYWc1wqj6rZhcegOOMI/ZBTHOgUSBYQP7d2jnAKV7lSicfG//lyXJSWcBlGwkp6CNsmdkB4EwQ2FEd3SjP59VasizGwonqkWa894IRAIJ1KSc4ko4dwquZvvSpj8QV6TD96Xx0qLoa0ki7aZvjUBE1izBCwM1uzQu+MmMCYEmJnXSrOR8PmrhMA/tWiZPAUVouC6jDSquXSioMewGmrzZbSyhgCzxDLOIqSEkKWtKywMEAck2+6WKNBCXyz2VUTy7UyqtmyR5+S3usb+ExmxhLlg1MY2Ki7Dgqx20h9KtMpLUK9TIPHztcJnJAwyZUm1pkPkFMQiZsM67wDHCb0iIx1hyloYEUakW/INupC1AY6zqJeIRXiq6sR3chtKnZ/SpvnpE3mMJFR1P6t0bqx3gNdq1FWZFtV+v9gETGBaCXTC4J5myXLjslyvL++N+jGaWQkX+rSSdb9MwAQWJoBhy6Jll5pSpP/xP6n8/geVIj0n74FKiD4nxrs1etvbhQ+7uFdwXO1NiEdFGJFyHBIhHivpMWgb3ec5INxmZveuVB6S4fw35VucPJUSqzwjYAg9GWtx0AoX3arqTlZybT7yoeLpv1CisXbdpmNaVE79S1u3KGyr+0lqaYz+NjwG4qgE4FiITJWgKpKOX0kYxurZzfUx9JY01zNDiMjT9f5aYqCQVygp4bwg+fnf/5fW1FA4G2sdWBgMfQR8QBMwgZpApe9B9lcKY33nW7gVB4ZlAiZgAiMlQPgENeMvShRIDJTfyFOglYyrsxIF9xTKwfoEkWw7KsOst3cIAxmvnJMEVEI8+JuSqSu9IQxaz4Hi8DMegy2bUyGPQVvBqFKicqlE6UiUpa2Re4B3ozXEaXRjeK50+9s2tAIHL8GWjSnv2hWVhqg4VPzL16n4w+cpnzhRl4YlXGa1DF+EAQIQYSCWEd7zUmVLVY0od9ffqCBqjDh/G1ak85d4qsi3kdcgvEUSDRlRSDI8ImG1OI0KgY9rAiYwVgTeEQZj1To3xgRMYHoJMDN75owWK5Mg+D//mcoff6krAhHOEbHd1O7HuF0hA5fQDoxDBIFCmwjliORTDDeM3FXZdF6EgSrV5HXrU7FdM+6Kw68Of5jyLyrj+usZxair3j4VdIiRb41yNbneVqrd3QmbNui+PM55owxZJVQXMmzzxyckBhQyRClS/Z3fP/Amn2DV+EJJbaUkqULJQowy7ivqKWrHiNu6QlZ5Tit6SxBUz5SQrDK6xb//azBLO5SUzPXgzQRMwARGRMDCYERgfVgTMIE+AhjY7DEzq7Kj5y/UouB//p5KJRpXF1R5CKO8qwRDzcaV2lRGEmGg2VpyGirqzCMOmLmlzWyrZbwS0tl4CyjtmZWcXCEQtPhX3qkQo7Pn6/UeSF5VfHr0ofUgtMxpf9MN/lze1h5Ihmxn02qsIidCicUs1EWp1W1qq9rYiQKV4syff6bVjA9HjkGEDgXT9iDLa9WS3w0jPEMhCrWgHtcAIVoruvUwoDztC9aueC29ouvvtZLgN6lCk9qZTxyTSNxTJyTbc7CiI+STmcBaIdAJA2KLHEa0Vobd/TSBVSDQGmD3VVlHoqD6VlWH8BRoReNYZZYZ70j2xEjqMZRG3tTmfBiDJPU+VH6BQpyoMR8Jycwej0O+FW0g1lwz7STwJi0ANvOREnglDGLhN2aZL6vM6y3FpmvBtlg1moRqjF7Y9259d3ufmvfvGJaeN3NfBmpmITjCXDYpZGi71mNAtOAlkBgo8A5g0CqRNu/WSsYKg4pZ73EQBXQWQYiQIrQNYbriHgMa0W4Aha+EKsnPly6rebr+1MZC12OBF4Yyru1CaO3bfGsCJmACQyLQCQOLgiER9WFMwATeJoBRyk6SscIi0gWJAnIKFEJUff+TPAXKMSCuPzwFeAnC+nz7GCtxr40zj1AiZo7xXii+G8OsUrtWy2PQ9p0ZYnYMcDwHO1TGlKTd/ftScWB/hBeF1+WqQosot6kk1vxIYVnkIDAbToIrsez0s9ubsQljFINUW3PT9Zd+t/sMIqBpB0JF5VQTeRDyaJBYHOsw7NuTstqTj2qRuE8+UrLxkTpsiPbS9nEQWXVP639DGPSEkGn8WX1aU2V6fjWuRc6pQSCUSLkOqtcb2oUxCMb6LOUjhzT2ElmIhHHj2cvWf5uACUwcgU4YTFzL3WATMIHJIIAoUEnSqDL0vUKGyClQXf6Y5b5+ozZcu7KQq2GIgVHnxSBmdp1Z9nbHgG4N5XGijaG+QbHmJPTiRcAQ//zTupSpmKYrEgdXZFBSvUjVbtJ9JXkrPKqbEWd2nDKxhEopXKWq8Co0HWxvQwzUIiBTLYgEYeUMxIz1ep1786aUt+rcu7TugsQJdfcLrRgdngGtURCGKwu2sS7BJtXjJ8QIUTFum8a4Eg8qEYVAxXOlx1brSqzxtGcv5DnQWCmPJFqE5+DuvTrnQKIrwooYf28mYAImMCQCFgZDAunDmIAJ9BHo9RTcUunRk0qW/es3qfpGJTd//lVrFEgUPJdxGvHcGEKtMdR3nJW6i0GsNjOjzp6ZSaYPncW8Ug0Z8DzMFGMUas9UrJFxnrQWQGaBths3U752PWUEAgt2sTAa5U1Zp4FSrHhvMIA1O1690Ay5ZqYrRBFb9Fm3GPESBFEuUyIkK0woSQjkLQpj0h4G/w5yHXTufUqOPqgQpw8PauGyvXWoS1tFaRzFQHS0+QePEH3Ho4JnBbHE2K/61nweXul6ZNxYCE3XZYhWeWoKxOvHyttg3ElI9kJoqz5iboAJTAOBThj05xhw35sJmIAJLJkA3yEysqrbd1L1w48hCsr/p3UKTp1OSbOeJHnGosMhCFZZFNDJVpuQRNuGznC72oJlkAGgnapaFAuEKbwkU72G2XvFqWdyJagApdyORG181chHIFR6LGnNhki2RixgFMfXvv7hNjwEOhbCgzUGSCZW0nMiJIjVmREj7HgE5D3AK5C5bY1U3h/8BunAar0mOlyLIYzu2JvHxmLcuf5oDzkHCm27erVOSJaoq/AcIGb0fN6/38JgtS4hn9cEpoxAJwz6cwz6709Zv90dEzCBkRGQIYMoYDVjRIGEQMnCXH9vwoeuKtSFGdqYfCC0BONnTLa2Kdy2f49J0xZsBjPzxJyzKweBLbrADLgWa8sIAcQBa0dQdYm8DiowtbX7Qxg0RjE3mpWOsCFChrSOQnpPeQQkPSMESCBmf09CYaPEQCuk4qyT/k/DYGy60VyIiOyHEtP67JQaKzxaVKmKHAONfcaDNI45HGPD0Q0xARMYhEAnDAZ5sV9jAiZgAgsSwOCX8VLdVQLsDz/FomXl//trYsXe6s49PUfcfmt5j5n13dqE3LZ/L9jhMX8BBiPGO3kChAHtU0I1YoFkbwSa9szfzJb3bhj7EU7UGJ14ACQWwpNAvkDcl5diokVBc/21fWhvezmMxd+0sxbRsRo4Sfynz6bXCvEqNHYzeGkQhMo5cTLyWAyYG2ECE0vAwmBih84NN4ExI4AgYKeqDzPTZ88r0fjbVP1d3oJfT6sk6fU6fjs8BRg6jVE2Tt3AMKRdnYE4hm1cLC/6Eka8vu5JAu7bpqCHfT1a5N1MLgWz7eLDjPvYhkA1I6VE/ag0pdyRVChXR+0td+1QKVMJuOPHUyLx256DRV4EfrkJmEBLoBMGzjFokfjWBExgSQQaTwGioPr1lEKHJAj+W4uX/fSLYttVGYdkyZiFx8AZU3MUI5pZcozFEAlLIuE3TRIB5ZTEomx4VdocCRnZ4+ky4nPDh0jVirQqcrp+PZXr1NYN+imXIJc00ArZEjnkfiB2vJmACZjAIgl0wqA/p6D//iKP65ebgAmsJQKIAur+K7G1OntOKxk3JUnxFFBXv1s0CoNrTEUBSceafaUKD7H1cRsiYUzbu5aur1H2lTFmhp2qS1R54pbHxnZrxIFCiColj6erEgcsMIco2IJHSLkHx4/VpUwJL7JAEBNvJmACgxLohMGgb/DrTMAETOAtAoiCUjHqeApINEYUUH1InoLqBiVJJRgifH2MRQGzsBiDWqwrkWjL3tbe78KK3uq170wLAcYXYaA4/VgTgnh9eQyYlx9fSdiIA+XqVKzWrfUqYoVklV4tVGGqUL5ITO6xCBpix5sJmIAJDEjAwmBAUH6ZCZjAHARYKItKN5cuR1nSyCv45WSqLrKisVbdjXUKxlwUMMtKSEms4tuU5ySshHjzsZ49nmNM/PDgBBhfxpnZdSowIQ5jzJEG4ywPGtmikqXVy4fR1tDfualWhPcLTwJ9w2vg63jwa8KvNIE1TKATBs4xWMNXgbtuAsshQLlLRMGPP2utgn+k8jutWaB667GKbKxoPL7zrm+6LQNwRu1sPQaU5WSmlbUB7DF4g2la/2rEQYiCRhhMwlX7xqehhGStWZFY7Zr8iE2bI9+gYA0KBC5lTS0MpvXqdb9MYKgEOmHQn1PQf3+oZ/XBTMAEJp9A1MfXyrlKgKx+0arG36s0qW6r3y6FByHhSUh17PMbA2Zcu40wkEG1WWEkiAIMKcKJSOSc1iRkQsDanVKl/M3W3raCCIOSfVo50C/6R1WiMKRlTCu0qOIxkDRYgs3Y/qM+4Dl4oM+cVrsuN52MErV5t8qXkjOjFbFZlC48B9M6jmM7Nm6YCUwWgU4YTFaz3VoTMIFVJ6DcgRAF5BV8o8XLvv0+VZevaBEmrar7kqAGGVYRpT3uc6+abcX6kzAoCCVBGGjxrog3n+bETQQA6xgg8F7UC2d1QoGLC8OYMBTi76c5ibUVBvRRi7iFMFSFoqx1H6pYc6NVBuN6Hfe0S02tHit878IlVSuSINCK1ZEtIdFTe0Oa8DjG15sJmIAJzELAwmAWKH7IBExgHgIYkzIkq5u3lGx8JlV4CrSQWXXmfCxgVj2XkRmCoBUG8xxrjJ6KlWNlSGVEwRYZiFo8SsXhx6iFy2xK6x1oxi89U+hJrHqsFZBZFZlxU/JqPUMuCxNRQCIuLLZvk1DSLWE20xizLhEUhrNm1bNKfWat7lyRfK7VuyOxPjxfy+Q/0rf3iAOtilzd1UKCv11M5VZ5vTasT8UOeQskfPK+fbU3DDFkz8FIR8QHN4FJJdAJA+cYTOoQut0msMIEEAV3tKrx+Qv14mVaryAEwo2bqkDUigIMlR5jZYWbOPjp6tngjHcjZljfk7dg25uKRJQwnZat9RA8eRLjl25pbQnE3S3tt++k9FgCAdHQhhLJoMRAToSjvH9AKybvTXmPqtwQkkL+BR6FadgwkPEMIQR2qf7/vj3q5y4JRHmOXulax6MSamncr4WmfTHOhBXdT6VWR0bIIXZD5PJ3iLsmd2Yaxs99MAETGCqBThj05xT03x/qWX0wEzCBySNAHLqMpIq1ChAFKkcaicYnTymkSKIAw7ILHRp3Iwr8iALtEUoig2mTvAW7ZBBiCMtzECE0U2H8qo8Yi5SNZewoIXvhosK+LkcN/ApBhzCQYHgjDPR6Qmu2ynuCGDh4IOUPDqZ86MOUD76f8oH9tUAgzGjSw63amXP6u2OHxn93XAMY09VDreAdtXYnxXPUIw6earwRfupXKTFXEB6FQKCfLIA2yyrYfCq8mYAJrG0CnTDYyReFNxMwAROYiwAzpyyodEUVh5RPUP71m1T+rLKkqqEeFVHifRgmkyAK2k5K7BBGsl7G0jbNhO+XwcveGlDTIAxaTwHrTJw+naqflSj+o0K/zv8WggChRyhRRZ5BhBJJFLApxj4TTiWvQd4tgxlBcOxoKj79OKU//C7lI4c1wy4RNenCgL4iDkjSJb9EXoMQh9tlRN9EEMCjYcJrx37j8ydvDlFhePDkGeJzynhyXRe61kmujjCxVhSNfZ/cQBMwgVESwBnAvkETB50wGOUJfWwTMIEJJoBhyU4IyjWtYnz6jCoQqSTpz1rAjGTjB6qhHnbTJAkCxoNGa6caEbkFxJZrJjwTMkNcPbH0k2w4teNGLsH9e6k6d0GLzylB/Lsf3ozdQwk9xdFXz1XN5nUbMtNcq1lcCjHYqAo91zTbfP1GyjcVfnT/QSoIOVIVnHxC/PbsmQ7vCgKHECni8fcqnEieo3xxY6q4BuL65p9JucZps9qrcaq04Fm6LDGvfJFq985U0UfEHiFFKmsa13kz5L4xARMwAQsDXwMmYALzE8DAUOlREhqrX1WBSIYlYUQRjoLRwSzzxFQgerurVCPK62dS3qHk2v0ycN+Xt4DQGcIs8BZMujDAgL+ncVO4F6Kg/O+/6W95DCTw0sMHqh6l51lrosToVX97N1bVJXyMWefXEg7kljyQZ+G+hKDCxopHT0JUZQSUQnBiBrr3/ZP2N+NNsrU8R/mAQqf26VrYLAO6ED/48DmIbVLEAY1Vn16VEgePtLbIlZRUJIBQomIn4yXPAbkj5JF4MwETMIGGgIWBLwUTMIG5CWAMEZuuMJR0UXHpP/1ciwLWKrijyieRmImh1O5zH2q8nmmNPLVKxmDeq7hy4uj371P8tYwm4rAnWRQAm7FhRWp5dVhjIlakJi/kolakRtDFOhPtuHHbJww4Rsw6SxyobGf1Qsd7LO+Dqt6UpQSFDOlil1hJRGUWglOycs2MY03ghjAgnIgwMhnM+eAHyjnZrepbyr94pupEr9Tnsa9O1Mu9GQdEDWFiTW5QyVoN+/fW63Rw7TNujB/992YCJrDmCVgYrPlLwABMYA4CGIXsMiLxDpSRbKwwFHkNKmahMTzDvsagmCRjkEbXe87yFmzeKiNQibWHD9VhRMygMgs+6dvTZ6m6qsWu8BZ880+VlVX4F6FgUX2I/hM/3ztuvX/3dp7HtfMWGZmIivLi5VoI7CSpVbPsElOZmHzCcSZVUNFuYu+pSqVE63TkUCRdp5s3U7otw/oVC/ZN2rXejqlWMyBcjEpU586lMsZNHgOVoU1b5B2jz+STeDMBE1jzBKbg12/Nj6EBmMBoCBCGQvw5VWx+VeWhH+UtUPlDjM2KCjaEmbxjXI6mKcM/qqxccgvkGYjcAqrtaI9ylcRgT3JCLWJOY1M9krdAnh3Cvxi3kiRxeRDIDagN3EFmiFvDklsdl2NjYL5SIrPi1suTp1XOdHeaOX6sLmu6Rcm76wc5rg43bhvCgF2L3EVp1kPyGBzWdUHYFSyfyFvSCMq3BdW4dWS29qhfeH20bkW6cUvi/kws5BbVpcivYb0OkpPxGkyqsJut237MBExg0QQsDBaNzG8wgTVCgJWNb6rc4RnNMFKFSPHJJaKAMBTFLdfG5SSykHFLyRbCRpRoGiFER4/UpTip0c+s8SSHVURegMK/FOpVnT1XizlKknbjhpG/lK15H/pARmYicfm3y6nar3MozCwSdt/XTwr8JnlrrgtKtBbHj6aE1+XaDYXiKCeDSyfEAbdL5ch7V3Lrbac8PizadknjJgFcKsma1b5ZxC5W+mbsJlkUryRWn8sEppTAhE7tTOlouFsmMA4EMCyJPyev4IJKWv6iZFXKkp77LeKUiTGP0u5hGPUaHePQ+IXaEJZd2HR5k+KrD+zTrPBhld5U2Ai1+alGNMnhMHQfTw+ViAj3uigvwSVVpFEloZjpJ958WePWigMZmAjHO3dUsei6vEjXJUQUi08s+6Rv6zR7zjoWqraUj3JtaGdti/Ak0X9E8aRttLvZ8RiRb4A4+Emfa+2J0DBWS46Stc1nZNK66PaagAkMhYA9BkPB6IOYwBQRwLAkr0CzpJVKkuIpoNRlpVKVEafcxVk3RuLEdB2DR3tm15wIi3eRV/DR8dpboJCYSDqemP7M0dA2BCwWM5PH5/bdurIQ092qNFQbiHO8d+CHdRy8Bs/kmaBcLQukhWEp0TjpG9cGXgPi7wkxO3ZEuQbvN33UZ+CpyrR2n4FJ6ixjr77pOqgoTasStuUphYJJIOPtKUhKxmNAzgibQ4pqDv7XBNYYAQuDNTbg7q4JzEkgDEcZj5FXoNCTc+dT+aPKkiqOPFY2Jq+gnXWc8yDj/oSMWSUWEzZBfHXx0Qntx7WomaoRUY1mGpKOEQaMFQa7SotWKitaMUusoR3OhoGpjetFniXyTaKULR4mzThnPE5tvH79ysn6N9ourwHeI6oTaVG3fOJYynfvqjLTs5Rbjxn9j8/DJHVPY0ezVWI48g3w9qiflfpZcf0rCTkTWoQ4mIbPwiQNjdtqAmNCwMJgTAbCzTCBVSeAoSOjkrCTiE0np0DCoFQIUVSy6UQBhmFjHK56owdtQFhDerHWLdikhGPixyUK8u8+rT0GWu124nMLWhQqqxlGHzkFhBQRFhYhRO0LhnQL0shnUPjQA4Uqsb4B50OYTHo4Foio88+aFgonKn7/eS205IUpWb8BoYXHJDwHmoUfnurizCuwqc0kI+saKa8ruVorYZN0XbBYHcnI8iBYGKzAMPgUJjCGBCwMxnBQ3CQTWBUClB/FmNQKt7EgFnkFsV6BQlEw9t4SBqvSwmWcVFYs9tsMCcc7UqFZ4OKzj1P++ERdmnKrqulMS9IlC84xk6/Z+4ra+xiwMbu9DHyzvTWEgf7hHE8VUoQoiBK2GMyacZ/0jSo9XBeshv3px6lAMCuJO6uyD7kV0efoIyAmaWtEPWKx1GeekDNWxWY15A9ViQnPAR4D1vKYBoE3SUPjtprAGBCwMBiDQXATTGAsCGBIqs55hBBpQSzq31f3lFzKqrcVVvUkegpoM4aqdhl6meor+xUe8rk8Bb//XZ1jQGIpRtC0bNipCIG4pVMj9u7EucQX70F73mlgSUgR1wyVqgg3k/ApWAdAt6VWg66eyVMSggvQMB4x56EybdvK+gYSByphmqg+hgh6T2KIdSneUyjVRoUVOaRoqOR9MBMYdwIWBuM+Qm6fCYyaAAYdHgEq11CF6FflFJw5m6orqmZDrHoYPzSiNSZG3aBhHl99i2TjLFGgvAIlkUay8eef6VahRIRMaOXeqUq0xKBVZZ3MTtnVUcX7czmE8SzvAEmr66dshrnlRj4KOSjyFBQq30v+RvXgkfIp5JWh9CdhRRP52WAAdX0QevZKnkLWK2ExPImCmQ8PpkTyNaFF9hoM8wvJxzKBsSdgYTD2Q+QGmsCICSAK2oXMqEKkeOMoZYhQeCnDOmJwJlEUMJOrvsnAyyQcK4+A8KHiqy9SQW6BFq+KBFMMwGnatHBbltipNmmhtvX6ikccjGorxG6DzhGJq00ICjPM08QUw3izPE2Us/3i9ylLCBRK7C7J3biscrAvH4ou1xrbpF1LtLduc+QbKKQoKwG5UrWutGNnXEdRtYjvgGka0xgr/2MCJjAbAQuD2aj4MRNYKwTwBqgefSKE6MJFrVfwa6pOyVvQlrgMUYBhOWkGD4aadjU71ivYtSvl48dS8eUfUpZxl1SbPlY5ZqZ72rYwZCUKCAnRnjcrXvzhTF2ptLVfl9XnN2xZPTorHp3Snnm7YtSVsDtSIbKsdi/xzQgr9u07dN1oITyVaC0ozxohRcqrwHOASOiSkSfts0J7tbOi9e3bqdT3QJbXsCDxWmF2EVq0QdcQ15U3EzCBqSdgYTD1Q+wOmsAcBBAFhBE9fKQk42Yhs19Op/I3LXyksIk326QZOhiuhBDpfxkzkWyMp+DPX6f8L39WbsHnWrBKRg+iYJSz6W8AruxfLNBF2BSrOu/RrO/O7ZErkp404xihYUMYU2aQSdClvKXOFfu6KRRa7ehtUOK6BGbSKtnp0eNUKNG6oiTsU4kDSpmSi9MJ6CHwbc878lvaqmtGycgsWpfuaO0LLWpYkWdw6INaQG/X8xYGIx8Jn8AExoGAhcE4jILbYAIrTQDjkNjop4qXVhWiUmsVlBgDly7FirlRXSaMnEkycICofrU5BTJY804ZxkocLf4kUYAwUHUZ8gwir2BaDR36xSq9u9V3xYrngwqBuXUzBODQKhRxWchQRgzkfVo9WuVfEzPMeAymdQuuEprkpXzykTwG8hxoUbeyVLjaufOxAFok8r5CmLJP0mdHbeU7Aa+H8idK5RolPjss7sbaBoflMaH/7A4p0th6M4HpJWBhML1j656ZwOwEMADYFQpRqRoJaxaU3/6gMCKVJ72rKkSvNPMZK+TKGJgo4wZjDE+BcgoUW08NeurPF1//MeV//9eUP/ukjhMn2RgDZ1q3MGAlDJQ4mj8+nrKEX750WYarZrWZEcZLFNtSDFcx5m3KLciqd19Q3vKEznHsWMrvN4KrPvj0/qvrJ/qq3JxCKwiT1P6aqlYKwUtKTq5e4W1r2ba3k4AjBlbVlvT5v3ozlZvPRNJ1QRgRffbCZ5MwiG6jCSybgIXBshH6ACYwgQQwDuUtSNe18un5C6pCpEpEFy9qlVxVJwnDka+GSTFqEARNcxUaFNWHJAryxx+l4i9/kqfgqzp86ANVWlnMiq6sB8AMKjzYEVNxHnFRbH0qJC4IRRq3GdSsNq0TB63XkI4fixKblWaAS8JeMFwfU2mKjvDPYsaY12uX8Ii8EnHIqgAAQABJREFUDc2cF59o5Wh5YRJsKes5jjkbjFs7hszu9y/2xhj27guNJ8nVSrbO9JljS4QWek9JaU/F5qfrWjWcULxY0wHObIvhXL9j5f+ljWJBlaJHulb03VCeljjYJ4GJ52DfXl1X6ju7NxMwgakl0H3C7927p9+3+strvb7cN+oHdGaaZ9WmdkjdMRNYgEBjKGEgVlevSRDIaLx6Sd4ClWLsqhBxDL4PMAbHeaN97DLcZaiT/EpoS/EHeQoQBHgKCB+i7CKiYNDvNBhRrYkZdtWsTy+1c59TcYxNOhYzqYs55kpjZAVbrdpLec1CXgNi4V/TH2LiQ+i0DRrEaG0Yi3PW7HjepUXiWBH4j1+kLNaZtSAQBQsZ1e0pV/KWvpIc/EJ9l5esLi/aNID2Yugyjsz6sy90jbR91OJnmeo9uhYKwm1kOJdiXv50MqWLytNhNWiuy/C+cb5BODftWrUb2qgVkZN4PXuYqmv6fqDy0h0tcqjriHVA6g/BJPRl1SD6xCYwcQQq/eaxv9KERicM2l604qC971sTMIEpJYCBw8y3DLqsmPSKUIFKBgGzqtiBGDVja8xEA9U+3VIZB4NOlXEKGWfhKfgXeQq++jLFQmaEuGC0LmTwYfhrkbcwHlnd9pFq1T/UzCleFMq5YlzqdJnYelbEjRKdMgip/oPBhHHJeZh9HoeNtqhEa5IBn/+oakwSBYX2kvaxii8CIVZFZpzZ5jL2GtZcJ1tUgYgZ5OMKH6LCE4nciA+tmjs2/W6Eb4wlaw4wfhjp7BrPCqHXbvKuxLXDGMq4j5wJ/lZ50k4kUJK1f+OzA1+YcEt4mkRpASoJhXKTrsdLVyJev1IuQngp8EB1jGc5Zv85VvR+M8bxeVKY2AaFDm2T8NEe1zZ9xBPlzQRMYOoJvCMMpr7H7qAJrHUCGDUyDjPGnGY8s7yFUX6x1Cqo5zXTqYTKWhxgLGAMYMSMkyFDu97sWTP3eY/KKircgRnsriSpqsewdsHAxjqiQOUa0zWFV10Wh6u6VQ5GVJxRGE4YeJAg3lqVfiKG/8C+lEjwZeZ4v5J8CadBIIzDFsJPuRZUYIIL4kmz4wiZUtWn0jUtaPVcYUUKHam3+cZY1wurRh85WK8F8bW8MV9+USfhtt6YcegzbcBDgGfkjvJlLsoTxuw9ORbymlQqMxphPogHrmk+B02SetJY5sMfpHToQ1Xj0XjCjSTuYoGfSXENxogMFkM7IHG6d3eqfvhZSf1ntHCYQoueI8Lg3H6eaOh8vHl+JTY4sHGLpwCPkK5veYCKY8fSDPk5X0tgqzoRJWnjszQW7Y5G+x8TMIEREFjgG28EZ/QhTcAEVp8As8ZKmkyaTc+aQS2oYb55a6re0wJnMqTSfYUOPGaWXMbMaxkNYUi1zV5pg6Y1XprzM4Or2f+8UbOYhMvIS1AgAj7/VNWHZMh8riRj1Zunqkp4CejrXBv9QhA8fiwRcDOls+dSde68duVdsPIzCbv37tclXVWvni1q9VO3X6IjZs8xJD86kfLxo7XQomrNFs204llYzQ1hwI5B/4EMXnEo1N8K78bW96LyTL4nQxnPCLPaeEReyagGN0OMh4XFyxQ7n1ng6/0DYqu8jd9p1Wi8BSfUZxb94njjsLUhQ4g4RACreJ9UpS3GknAYxldjGZ4Sxj34yJhHyO3QeOJtOiSRd+xoyp/elSdE1xQVrCjFyoz5XB4nHkcQxK2Opc9VoWNWeCB0HcT5VRWK0qYVnzOEGM4D2tBtAF+prfe8OiefJ1bJ1ucpb9FY83k6IgYk62sxwPyZFgNk5WdE0lwMVqrpPo8JmMDICXTCgNgihxGNnLdPYAKrTwCDiE3GS8TeM+OJkXvkUKq08FfW6sfVL6c0y6pQiLuNIcXrV8WQwYjpM2RUO782YJT8elzGm3IIii9kqFJCkvaHYS5jFSOm7Svt79/oD2FTCjGpzp5PFas+f/OtFnhT6VZ5C8KIJOwEQUAiKYantgqhgaEowz/CUJhdRRx8rnb86auUMJyPHtVrlPw73/n72zOq+3BgrPFocIuBL+O3wHC+rBn1qxJAeA/uKtTmiWa2EQfqI4zTLpUjZSZdwiIMZq0HkVkcToZiJDcTQjMuG8LmocbygoTA3/6pSls/1iV4yaOR8EvPlBDMWMZCZE2jNT4VSeTXdU39dimlk6dCDBRnzoXnKf3l65SPH5M40FguZBSTqyDBlT/8sL49KJEhgVr9clKrif8sb5xyefBAsW4IpYIR3O9soxYInLPd9SfXJxW8WPdCIWKFvG7xefr97yIkLx3Wdc3nSf2KXIxxuJ7fYeYHTMAEhkmgEwYWBcPE6mOZwJgT4AceQ4bQEmrPs2qtZsGZ5SQsp9RCTtWZ8zKQr6VM+EUbZ/8Cg4YZT2aWZWDMZtssOtRg1oPURgtGODszmszAE8bDDC5GjIRMgaHKzOan2lU6Mwy4QYxV2k64CaKAqkz//DaV//hOxuT3sQJ0RQw+s+g0bbbmNfYbh8ky9kpV+8n35GVRcmuhfAS2nI7IoMJzIL6rubVjrdCxSB5lJpsa9YTNYDRLGJQSgbHa9WOEgcYXYYA3Zq9eh5CQgZgUXpMlgGK9Ahhz/YzDxrXINamQuOr8+VR9p9K7//U/qfxeoTwXJHzw+CAAGchuLN81wCtxyspXiURb8hE0jgViQMfOx47V/Z7Pc8B1yljzmYocFHFmnQcqZGmxsFLelXzxUipVtShLhEV1KCVE1yJBfaBaEnkIXRt74b7b3t5n3/57tgPo/RyCPAFyclS1CpEYHjfaKOOfMabCVCTrcxuVpiSIlDMRAsKi4G3MvmcCU0pgTL7Zp5Suu2UCk0AgDBr9+FP3HmNBs8Ezqk1PfHZBGAY7s52aVcaDkKhmRIUX1XCf29hayJDpNV7av9tbHZa3U2UIQwzDhHAYLdhVfCAjlWRaeQfy8WMyZg69mb0mNIrXL7SFoNG5mLk9c1aiQILg//6nqsnIYyBDOd1XyAchVFST6WnSW4ftebxqchOqV/Iu3BcfCakCA0/GaD5+fPWFQdtwDDvGGpaazU6s4ivPAQm5M4RMEVLEjDqGNusUcC2QiKu8iUzuBDkpMMb4XWj2vD3nStwiCggFw+j+j/9O5V//nkrF91eX5QlB6ISI5YJin2fTmFaxwNfDVCIW5YHAaC8kimVKy5iWSBjEcwBn+Cg5Pa87XOedSLTOfKH2XLwYn6lSojvap2slEWL0RJ+n+EyJfWquvWjqAm2etTs9F2dcwDoGh0HssTL1ZnmN3kP06fN+RB4BhUwVJ3Qd4G1D+LFgHeKbEDE+T/THomBW0n7QBKaRgIXBNI6q+2QCiyHQGjLEEDMjjxGI0fDB+6mSQVNpJpE9K/cAcVDduhMJyxGeQahNhNnIGJEBFoYVhhj2DQb4nJZ1Y2yEwaJ/mMXEaI38AX0tKbwh4rbxYGi2lVlqZq4LDBnCHU4ci9r5kfSJAYMhNqjxgiGpijwVazgQ5iEvQYgCBJCq2CREQZckSgPn29RHGZMRt66SpqXERnRZbS6YVceobg0s+rfaG4ww9thluDJGmRCcD1SKEg8KbBi3iDvXGERJVgmB9WMmBno5UoKUsTx1pvb6fPdjhMFVDzQWYREzhguNIwdUv+m7rukQe5rBL3kfHgBdfyGoEEV42OJam+OYPMfOa9nxvFDOlXwMEtVlfBNuRC5PRaK7vE3VbXk75KVKj1UFi3GIPAQ+R7q28CS0eT60T//P2p04r55qP0ftrdof400eBJ8nlZolOTpWxSaf4pgEAaKA9iEWEX/xeRqD65Vh8WYCJrCiBPSNUW/9OQbc92YCJrCGCISxo/6G0agwCOLRm1nlrKo2JG8Wqu5SKRa7vKDF0K7Kg3CPkAjFbzNrjkFD+A2GVcRQY2SGQtBBe79PMKgQAcxgyqCPECHlOTBDjdFFoithL3tVaehDJUdTEQXPwPsyqpQYSQnOCNWgvGo7e922fZDhUjsrkkHPna/j0H+Up4BkVRalirhvDCLayL7Q1r5G/dB7KYVZ3hAXrSSNsJkhHINZZsQW/Ru3DW4YjoS+IGTa7/3ofj1G4WUYB1EzGzvai+dHooAQouoXJRsTFvVU12E3hu0YzXaA3sd6XqfjVoSEkX/B2gTyohUIKa49bhcjRHktbPfIAwbnAwdSUujbjKp/Vbdu6RzX6pAn2n1FoV3NmgHxWWIVcl1T6Zl2faZCeNPn/uud+3h5yBdAVPM5aoUJ+QMIApKrD6uqlD5PUXmJxGo+T7o+yTGINvLZX0zfevH5bxMwgakg0AmD/hyD/vtT0Vt3wgRMYH4CGBgYBuwYshgUlKOU94AY5AojndlFhR9EwuodGTcKhSAeO8I5MNJUzShmnzWDHuFGxHcz84k4oKQjcc6UgMQgpRIKBr5CVur1ALiV4UXc8z7Nah5U6BDnxoihHe9JsGDw9BtG8/fqzbMYVcwwS+RE1Zqz52RIXo5wjqjKk9TvzqB887b5/2oMSh06Zno1U12dU2Kvyl1WX1wMT0ewHEdhQMdiZlljglE4SRueKRnO1V2FQZ0+q9KgpyIUbPGegt5O94gDxC1hZeRhnNZ1QoiNrvtYGyK8QAjIATauVa51drxy8iblUuJAydCZHBeJg0LCN0TBFXkQbt2O8C5C9pLKnIYX66HC9yS6c+udw6PTK1y5K5Edi8/xedqq89BGvAR8ZjjnfnkBEdp8nljbAy8GQgVvkDcTMAETaAjom8qbCZiACcxDAMORkJIdmi3dJIOD6jYk+xJ2Q74BicmEQBAKQRUjxAGz7xjgxE3jTSBeG6NcgiPyBjBGZChn8gcQBQpviJl1hAiGDLHtmqlN1JjHmGLGlVlQYqSXIwrkwWAmOMpZNiUsI9GYcJrO0OoxDufBMvtTSl4lQVuzwaVi3Asq5BCGhajBa+BteAQwkrn25KEp8RgoFCyM6ThDn+G8qLM246/LtSK0SrkXUe6UvANEpAzqfEA/nUsVUly/fKZUBjbt0ueB0rb7lJj82aexunDkeiC2yflAHCgHpA4z0mcNsUJoEcIgPgeoUa5c3cdbwOcJY1/lV2PBNjxvCG0e4/OE94DPcHjb9FlShS9vJmACJtBLwN8KvTT8twmYwLsEMEBaLwIGOqEHzP5jNMmgzggARAIGlAyajDGj2c2K0CLCIPAcvJDhjTAgdIiZU836R6lPjH2MFYzm1oBpwxp4XRg/Ov8wNmaYaYsMrVjEjAXMWMwNEUOJzhAGyzlX815CihTKkpnJJo5c6yEkJXNnPCd4S6JPw+jQGj9GCANdc1TNYiyV+xLX21CwaCy5XgmF0/Vd3bktD5k8Bwo5Y0HAmG1PMraXunENtF4EGepR+pXzkbCOkH4iwcN1yerUJFZLbMff6nMI7M5joByRaAPHk8iIUDwZ/vFZkhBAECAEQlQP+fO01L77fSZgAmNNoBMGzjEY63Fy40xgzAjIEKH++3rdRtiRBMM2wn80o4nBRnUXDPEII8LgwfDWhkHErhnTSJJU0nG8n9lXDCWOhXjg2GFA67XD2hAyiBbCn6iwdENJn4+YhdXjaqJOOIQzcQwdTDeEflSEhly6qpARiRG8EvQzq2/elk+A6wyRx6Jl8hwEb2bThzKOPc2j+tZjCRAqTiEkFSpGvP/Qt/hc6NrAO8fnQAsOhvjWdRsJ4nymQqxwfb25Vru/EAt4IuIzpM8SnyM8Atzn8WF/noYOwAc0ARMYBwKdMOjPKei/Pw6NdRtMwATGiACGBkYHu+zd/q0zWPqfWK37iJOYjZU4UOw4ZSIj1AnxMnAVokU0Xueq7siYVCnQ2ishYxJDTTaatyEQQGgxhkqAj4XZCOEKYTCEY/ccIhJ+5fmqQ+ckEMinwVjvec3Q/uz9TMmZNts2kvPOdiI/ZgImsCYJ+CdqTQ67O20Ca5BAhGpIHBCOgdFOeFN4MsJdICBDNLk4FyUnFQ5CMnYIEjwWPO5tOASo0kPyLjP5VMNqZ9SHc/S3j8J1goeC0DjEJfc9lm8z8j0TMIGpIGBhMBXD6E6YgAkMRCDEgYzzNtRplMadjl1hTLLH+SwKBhqjQV8UHiCJO0QeogtvQSBG4A1T5OlwjKWOH+exwBt0hPw6EzCBCSTQCYP+dQv6709g39xkEzABE+gjIIORcI1IAu6+/prXDNFwj3OoVgyx3W0FGR7zNjwCvWE3+puFqke3NQdvxjXOM9Lzja4nPrIJmIAJzEeg+2Xszynovz/fQfycCZiACUwEAQw7jPVIzFRuBAJhmLPLvRBIrFb5yFingUWnugTQ3hf57yUTYAypYEXlHRbJgzfjO+yNQ2rsspLj61K7jOUIzjPsdvt4JmACJrAEAvwqejMBEzCB6SeA0Yjx2K0MK2OS6kejEAY4HzAkt8to3aE68pR5xZAdheE6/SM3ew+1FgYrc2fWFdCCXnm9+I7CYGfMGLumtG6U/4z6/xYHsw+MHzUBE5hkAhYGkzx6brsJmMDgBJixZ9VkrQibWVl5uxaBYjXimGnmMFjzQwonkjGZWcBtj1Zv3rtHs9qa2caYtDAYfLwWeiUCjzHU4nh5mxbykvjKMxjrwxrH+lrIqrrFIntZi++l7ToXC/IhFLyZgAmYwBQS6IRBf05B//0p7Lu7ZAImsJYIUFZVoiDt0grOB/alvH+vjDyJhAjzAcQwRIGOgfGPCEGAHDyg/X3NaMtrwDoNFgbDu+IwzlnNVyIv7dTK2dvknQmDfUjj2LYUzwSCYPceiTwJPRbjW+qqx+0xfWsCJmACY0qgEwb9OQX998e0/W6WCZiACQxGIDwG6+vZ5fcbg33Prtq4RDQse6YZg1T7OsWjM6uMp+DQhylJGIQg4fwWBoON1SCvCqGnmXxCiT78IERY5BxEsnczFoMc553XNO/F+YCYUw5DPqDr5ZDOcWC/RIiFwTvI/IAJmMDUENC3Xr3t3Lmz/dO3JmACJjB9BMIol3GusJAkYZAOf5jy+5rNv3FT9emfxdoGb8TBYuPHMSZV21573ihjdb9ml4/o+MeO6Bw6l5KQvQ2ZAMJgk8Zy775UfPZxSjdvakXra1rwTCtbx2rWjAdzX4sdS9qp9+r4meRxicd84mjKH59ISQIkKa8hQtJ4mTcTMAETmAICOAPYNyjcthMGU9Avd8EETMAE5ieAOCAReJ/CiI7KaJexl1kg64UWyNKCZGFQsuZAGJOtQdne9h8aMcDW3MojQNWavGdnKj46LmP1k5QPH0pJM9o2JGtSQ/2XilJ4Z3YojOjE8ZRv3UrFbxdT+eixxMF9rVCsMWUo31mron8823Gkdfqbp+V1yFuUs7BPIWeIOwmPrDElZyRt1vUTIpPXezMBEzCB6SJgYTBd4+nemIAJLERAMyJ5j8J8jh1NxVd3U3r5MpXPZURqJd10Vwbl62fNEcJCnOdoGJRYnvWW12t2maTmI0dS8eevU/7TH1P6QDPMbX5B+0LfDpeA8gww3ovHj1K6dqMezzNn5UG4nSpWKu6EHqftFwU8xjj27Ag8rpHdyieQcCy+/EPKf/h9yrpe0nvKFQlRMNtxOJY3EzABE5hsAhYGkz1+br0JmMBiCbSx6UpATp99mgpWJn72NJXEpv92KaU7EguspisPQjfjjN3YegYwLrELMRBV7jSSlzdIFBDrrpyC4o8yJL/6IuVPNMvssJPFjs7iXy8jPsmIT8eOpfz1nVSwSjG5AZt+q8fy8ZN6LNvVp/s9CIwl+R+qTpXlgSBPISu0Nh8/JuH4pcZTY3niWHiZoorVrOJCx/BmAiZgAlNAwMJgCgbRXTABE1gEgTYMRLO/+bhmgVWVqCCeXNVmSj1Wnf8tVXfvpfTwsfIOXirESMIhSSRUjXcgVk1WfLuMz7xRu8pYkmicj8uQ/FIzy8wwsxOPTtiJt9ESwKinNOx+Cb2vv1J1om1pRlWKyp/2pur0mVRdlRfhkbwJT5VHglcoPAih9GTiI+70fqoMbdYxqFJFxSq8Sb//POU//ynlTyXw9ivpmBA0RKU3EzABE5hiAhYGUzy47toaI1DKcMWI5Ra7h5lQDBkMH/bWIF5jWGbtLixYLZfSpXgK2JRoWmivNMtfXb2eqtt3UoU4ePpUXBWSUkocsLEoGiUslfjKAmZ5n0SBPAX5448kCCQMuEUUUPfezGtmo/wXxlznrGWwTlWgWIhMQqFQ7kGl0K7qwsV6LO8/SOmxxvKlxrLxGkT1PY0l60xEGBiJxlQfwttDjog8SpE8TsI6Xghv7xJAMIc3Rrd897C13zntbf2o/zUBE5gAAvwi1k7yfvfqBDTeTTQBE2gI8PlV+EtS2EQk0pa6z8JdLODFTriFZztnuVzESTkG6YnCTW5JCFy8lJL26uJlVbiROFCceiSyPlZCK7PNfGOKJQteUTs/k8T8gSobHT1cJxojEAhrwVPgWvez8B7hQ2GgSrw9e54qPATXb6Tq3PlUKTysunwlVTduxVgmCb2qMWCzDNes0KFEVT7GknUnEAYkjVPSllAwxroV2CNs/mQeWp+fCMVTjk7k6eizxMa13373IKgskGsu/tcEJoCAhcEEDJKbaALzEkAUYOiouk516bISaBUGg7HbzKJSh52FoPLGxljlR5vZcn6w7Ulo0IohBqVKXaZbEgM3ZFSqjGkIAxKSqXRDWBHeBbHLsVCahIHCV2KnJCnrFrD4FQaRt1UkoLHkMyExxxiGQCApWeNaqVpRCIPXr0Pj8RkJYSDPUWKVakKGCAtjLN9jwTR9TviMeKu/YxABfLdoj7CsEAVK1n/4MHinJ/LI8L1DEj7VuEjy57OCMLA48FVkAhNBwMJgIobJjTSBeQggCvihvqiQif/6q2ZJL8iQfaKwCv1A71aozC6Vc9yhW1aIxXBlphtDCMNHSbPxQz7P4dfMUzIWw+hh5vOZ4tHxEoTBIy8MpS95no2VkjH+WXVXPDPCi/hzQlgQXTYka06r+q+EAcnjjCUeAjxp8gohFsKz1hvywrgxhqxUvVlj2o5lO9Ntg7YeSTySeGIePAiBVT2QGEAw6z4J+yG6+LyIXz56KGVKyCoUK+3dW38mzHFVPxE+uQkMSkC/cN5MwAQmmgAGKwaQZkTLk6dT9f2PKX60maQjhl5CIGbwuKUEIz/UCplghjTisrfIKCL0pQ03WquGLTOd7CxGtl0Jxa804wlXDCLCiMKYFFT4IA7wumBEYkDW888TfRlNV+M1TowLu0KBYq2DmO3WWHLbhs5irPIarn1uGX+Sy9f6Bp/4XhEvfQYqPgcY/bfldbl5q/bEUL1L4qAid4NF5e7rbwkHVv0uHuoxJiaUaxOhdXC2MFjrV5X7PyEE9E3ozQRMYKIJ8ANO2AShEvIWhDh4oJAJJctGLDxGP7N4+sHO25u4eMVRp4OKjaeSC3HVHxysV3TF7b9WhUF3EWDE6M6Mvh43yUjEq9LOMMdr9CQhRXAij8OioCM3ln9gkGLwM14Y/yEKZPjGpud4nucYUxuvNR+ud5LuScBHCJCvoZybRFK+VpeO/BvC7hQ6FMn5qvgUoXhaQTw8k3p/ofyM/KU8ChwL/t5MwAQmgoCFwUQMkxtpAvMQIOaX2Txi41nUiR9yZuxe6XFipJm5015Ra59wCUKJyEWgLOOB/XWypcozhjiQNyF+2BEIzKJiMK1JYwljsTEY50HvpyaAANdvew3bQJ17wDDg+S4h9IowIa0knS4paVvfFSXJ21ckCK7f1HeMvl/uSDCwoFzrTXul98oTU73W+/EwKDQrXkuoER6aVpjNfXY/YwImMCYELAzGZCDcDBNYMgF+zJm9U9JxFeUY5UFgQlR7LNJFKUFewyqwVN9RTHCm2o7q9ecdCpkhgfaQqukcPZKirj+3qrKTSB50DsKSh8VvNIGJIsB3BPkDVyUAzpyrd/KVJAyqm0rE5/vlYZOr8ULGPyKA6mfsfN8gLLhVbkf14JFyDnQs5XZkwpBcoWuiLgU3dm0TsDBY2+Pv3k8DAc3aVbeV/IfHgATLiIfnx1ozpW3YxOv4xY7f7UikVX3+dFfvuSkvgmYBs0IEsmYEs8IFEA35oWKFDzelN1UfPpJtCcPwZgImMB0E+G5gRxAwYaDvkHRFnoGz57Q43MlaGFC2F1GAB4GwoVggThMP9TdJw0HfMz1bTEY8oVJRnagc30mUfPVmAiYwEQT8Sz8Rw+RGmsDcBCp5AiK/QHXace9XhBChAyL2vfdHOx7Uc7lexLf9kUdYIAQUTxzi4MKllFX7vfjs45S0yFM6ogoj+5SLQEiS4+nnHgg/YwKTRABRQH4SXgIWgTt9NpU/SxCcUgEDPAXkFRCiSGhRfFfII4B3oPte6f1uoeM8p9BDvYzSvlEJCk+myihHNTSLAyB5M4GxJ2BhMPZD5AaawDwE+HEnzhc3PyUDSRh8TdUV3sMPd++Pd8/fYRToRQozih/9JwoNUBhSVmWRrFrv7Byv0ExhphzhRyciHyHKOpJ70MZsz9M0P2UCJjCGBFpBgMGP4a5JgPKnX1Klvfz511okKI+AvKWK/ABChLrvkfY7pee7pL+LHB8hQYlYKhexdsSB9/tf5fsmYAJjSsDCYEwHxs0ygQUJ8APMaq/M+OPqx4B/qXheHqs0c9f9mM92pPaHvb1FJCg2mAWKXit0gNhgEgyvX0/F5cup4Af+809TPn6szj0o5D2wOJgNrB8zgfEmEGVINRHAIn54CH74KZXfqcTxaYUQUXmI3ADyAlgHQl8L4QV467uk/c7o72bzuLwKVeMxiBBHTVrkl5q88GYCJjARBCwMJmKY3EgTmIUAAoD4YLwELDz0pKkAUv+az/KG/of6fuCZGCxVWYRZQsoPkq+gWcOSYytcqeAxQglkWERdeGr4Wxz0Q/V9ExhPAm3VITwBrOp96kyqvvlnKn/4sS5xTClSLYwYK3x3PWi/I9rb7om5/+A7gu8Q8hY0uRArsbNquDcTMIGJIGBhMBHD5EaawCwEqDakFXrjB5h1DJ5plo/H3prdm+V9sz7U88PPLCGzfggBShMiPuRBoMpIoXNkzvP5JymzwJc9B7PS9IMmMHYE+BwjCn5TPsG3P6Tqux/SaxZDVHWyuvyoJhgoO/rW90fP98JAHeL1+gIplWPwTN8ZFDiQxwCvZsbD6YmEgSj6RSawmgQsDFaTvs9tAsshQEgAxju1wpnd74TBcg7aGAL8iFN2kJk/7aXOk4kbVj3yQs+FKOBHfvv2evVf/+AvB7rfawKjI4CngM+x8gkq5ROQS1D97Rt5Cn6qk4xZGJEZ/W5Sge+A5ntgKa1iYoEMZMKHFOJIAnMmDwoPJ8nJ/q5YClW/xwRWjEAnDO7pSyM3H9j1qjm8ceNG2QBerXDFRsInMoHFEkAYIAgI9VEIQOcxoEzpsreeY2gWsZJHglKGJYKBH/x1RSoUdpQ/UdUiew6WTdsHMIGREUAU4Cmg9Ojf/5HKf3ybyn9+X4sEHkcUYLNjtMfW89lvHlnSjb6fKIZQ8R3FGirkLKzTsS0MloTTbzKBURKo9NvO/krfF50waE/YioP2vm9NwATGlAA/+BIFFRWEqBmO9yBm/YbV3sZAIGaYZML7rKasH3vZD9WmjWFLFOs31BMKeA40meAf/WGx93FMYJkEEPFMHmD8s0jZyZMSBN8p0VhhRBE+pDAfvi9ihp/P+pAEQdtszo0Xk4IGhDwyocBK6uzeTMAExpbAO8JgbFvqhpmACbxNQDHDUY2IUqWxyqhm594KB3j75Uu71xoL+jHXImlUKyovX4tDRXiAcgwKGQD5449S2rOn/tH3jODSUPtdJjBMAhjmz59pjRMlGv/4s8KHlGhM9aFzyilALIQoaD/f7e2wGqDjxYSCxADFESiMgDiIFZBtdgyLso9jAqMg4E/oKKj6mCawEgRwzZN0TBxv664fqseg7URjNBBuUMpjoLUOSnkrilykauvWVPFjv2WL8g60voHu1z/+7Xt9awImsKIE8BSwY4jf0noEZ88r0ViVh75XToEWL4wSooiG8BTQsmGLgqa3fBc9kzDQ+ih1HpRuN29R6OGK0vDJTMAEFkmgEwbEFjmMaJH0/HITWE0C/Lg/0YwgokBu+kpGe/1rP4of+p5j6rzkHJRXr6aksAQqExXbtymUaFPKH35gYbCa14TPbQJtCJFC/2Jtgm8lCv7xfSp/PSNRr7DDEAXt57m9HTI28pwkDMh7ogRqrKzO99TOnUM+kQ9nAiYwbAKdMLAoGDZaH88ERkuAH/hYkIwZOUoRIgyGkng8X7v1g0+IgBKPE4bHhYup1HoG+cC+2luwZXPKGzUliBfBscTzgfRzJjAaAm3u0dVrWsBMFYjkKSjPyWvA2gV8TyAcwkswIlHQ9CpClZ7iMWgKJCAMECXeTMAExppAJwzGupVunAmYwLsEIpRIoiCEgQz1LjZgtD/4tVExIyNDoQKqZpYuShzIc1Bs1oJnuzUjuFVhRdvwICgZ2ZsJmMDKEWhCiCqtYFydOl0nG/+s/ILbrEciIz3Ch0j+HfV3hE6hnCSSj6s2lCiKI1gYrNzF4DOZwNIIWBgsjZvfZQKrS6ANF9CPbaVY4jo8YCWbJMOCUIHXmoG8fSeVZ86mtGN7mjlyuA4XwGPATiKyk5FXcmB8rrVKgPUKmJF/oOphF5VLgDBgdWNVJCIXKfF8ogT5qEVBc/y3VmbX+alOxGSGNxMwgbEm0AmD/hwD7nszARMYQwJ8NvnRJWSAhYOoEU54zwqEB7xNAwMgq1a5ShKqUlG1/Vyqjp9Oec9uLXwmj4ESklkQzcLgbWq+ZwIjIYAoYN0AFiw7fbbOKbimzyXFCV5ikK9wmVB9T1WvX2mdBE1cUCRBoUTZoUQjGXof1ASGSaD7pujPMei/P8yT+lgmYALLIBCiQDP1KkU4vBWPl9oefYVgdGB8ENN86myqzkgg3Lxdt82GwFLB+n0mMDgBJguYILijtQkuaSFCEo2pRnRHpYxXa+IgJjD03UBZZXkLKryb/j4YfEz9ShNYJQKdx2CVzu/TmoAJLJYAZQCJ12UW7jELm5HUR47BSm9tyEA9M5ge3FdI0TnlGexKxZFDcZvbkKKVbprPZwJrhQAGOGFCfB9cviJxfiaVv5xK5fmLdXx/50kcdQhRL3DOpXaF10BFEp4r10D5BpnvLm8mYAJjTaDzGIx1K904EzCBNwQwAgghioWDVAoQzwEzcTFDpx/j1dg4N7OCl69qpvJCqn67lNLNm3UbaS/PezMBExg+AT5fGN4sdIiXAG+BcgzwHrBi+cqHGPZ2UZ97vptYAZk9Sir3Pu+/TcAExo1AJwz6cwr6749bw90eE1izBDAEKDuoEAFm4UIk8NiqbHWeAfHL1XPFE99WKIPEQVIZ08TtQ3k0yIWwMFiV0fFJ1wABfb6qR/IWUIlIngKSjqu7d5RXoO+G+NytpKegjzfzAQgD8pD4rrLHoA+Q75rA+BHohEF/TkH//fFrultkAmuUACJAM4FRjSiqEsl7sOo/uDI+wgCQB+O2kh/Py2tw4TcZKJq1ZAVWnvNmAiYwXAIY/ngFtKZIun5Dnzt95qIKkQR5rGvC6VrxPtxTL3y05rwURmiLJBDySI5UV1p54aP4FSZgAitLoBMGK3tan80ETGDJBCQMqgglUjKfKn3E6qIhDFbZAFCHKv3ok/dQykApTysR+boWVXrUeA2W3OF53ohhNN8+z1v9lAkMncBc12IYwkyfD3Frz0UooTwECY8BVYhUPvhNCBHn43thFTfaSZlSvJx4D5kk4DFvJmACY0nAycdjOSxulAnMQyB+aCkDKE/Bc/3YvtSPbZQrnec9K/JUY4CwrgKzl0qEjDwDVSxK772XklZIHkrp0tYgwsDA0MCD0j5GP9t1E1h5mXKp7PztNRVW5CpYUyfhuuP6Y3Yecd4avWH3NsZvoc8F118x5GuRc3M+1ge4oQXMEAV3FEJEWFGsF7BaEwV9VwBc4rtKAka5EOmVvrMyn82+1/muCZjAWBDohIHXMRiL8XAjTGAAAjIIcMdjkIQxotswjAd468heghHSGEIY64gB5Rsk1VSP1ZH37JE4aJ5vDfeltKU1xDgHRgYLN3ELhwhR0EE5PoYYFZEQI+wbNqS0rvm6W875l9Jmv2c6CcS1KMOcmXDC5dp8nxCrXOvN9Y4wXa/rb5NWAt+8ub4WeYxtOdci56cUqDxyIQquymMQaxZowiAmCvQZGIdN4iXCHhEwFEygfOqMPpstg3Foo9tgAibQEeiEQX9OQf/97h3+wwRMYHUJ8KOP8UFsceuex0hY9a2eoaww0llo6Z6qpMhzkG/eSungQa2IvKM2BhZrDNE3dvqMAUZZRoSH8hcibCJClZoZWxgwQyujI2+WINi+vT7vrp0pb2sWXUMkYJQsth2rztcNGAsCCPL2WsQov3+/rgB0X2t5PEGotoZ585lcr5/ZTZtTZtG/vXtS5nOABw2RgHhd6rVIO/j8K8E/PHQ35KXj/HgRYjGz+vO4asziO4nPLrz4rhKX7vtKj3kzARMYSwKdMBjL1rlRJmAC7xLA8H6mH1mMb5KPEQgYCWOxaZZSTalkBFQPHqTqisqXauGzdOJ4yhgFzOQvdsPAwNhBENxQCdTLl1N17kIqSW6mLKrKNEY4VRhEOjjnkHcgb9ua0r69KX94MOXjx1I6fEh/f5DSrl21F6H1IOgt3kxgIAJci1zHeKpUjrdS9a1Istf1WF2TYY5IYI2RmLFHGGhHiG7dmvKBfak4cSylY0dTPnI4pQP7a+GKR4trdrFCVZ95wgnDYyDxTdJ/0irD8QHshMFAvRrxi8QgPJz6DPM9BUPQeDMBExhLAhYGYzksbpQJzEOAH1ZmLMkt4BaDeCx+aJsZSowAtal6KkMe40nGfFbccxhU7QzpPN3rngoDQh0jRCNEhhZv+lXlGE9rAaezSmy+cEnCQ3HV91SRBQZhdMi+wmOwTh6BrVtS3i1PwcH3U9ZqsPnjE6n47NOUjh5Jef++lPAgMFu7FLHSNdJ/rBkCjZcgKm2xkBhi4KSux7Na6RuBgHHO7D2hbZ0w0PWIx2CLPAbyFlRXrqRCwjZf/0hi9Xh9LUq8pi1bau/BoOKg/Q5Q8YEkMRJlgqlMhGiJjc/imGy0lc8nFYli5/tqLL6wxgSQm2EC40WgEwbOMRivgXFrTGAwAuP6AytxoDrqhBPFQksYMBgti/FstMYPhs8ZCYHvf0jlf/41lad+TeUtCQ6JhfSU8ITG0GiNDYwr9kcK7birWVQZY/nU2VRo4ackIZH/+EVKX32ZMqIAg8zCYLBLbS2/imuLpHrCdU7rWvzm21T++HOsMhzx/U9UeQtB8FKz+I1A7dQ6QvWhrsV7yrm5clnX76lU/HQy5d//LhX/9q8p/e5TiVeF2hH2xraQOKAt7CT0dmFM8lQ8Vvz+K33uwlsQRxqPf8SjQlTh2WQnMbr9rI5HC90KEzCBHgKdMOjPKei/3/Me/2kCJrDaBNAD3Y9r3FntFjXn75mpxBigQgoJkY+fpEzs9VYMlwG21vC5J1HAmgj/kCH2t3+k8pt/pvI3hRA9VZlWHT/PEjIBjTebzldIQNy4k0ryEhTiVNAuEkElCPAmhOdgKaEcb07iv6aZALPdhOywPgei4NvvUvnXv6fy55P1St9cV8TPhdvu3VC5+nrUv4+1sxqxkvLLW3dT1mcCj1WBh21GoW+EthFWNEiIG+95ISEiL0GlY1b3+IwptPA1Z+Mz2PM51L1V3WiTqqdFWWV9B0RI4WImCFa18T65Caw9Ap0w2Llz59rrvXtsAhNJgB9/9nHc2nbJMJFBEMYABhBJmsqJyK80K4rRP9+sKM+z8x5EAbOz/99/pPKHH1PJjC0x3K+zTB8lbi5oAMkroGNVGHdKVi5/+TX+niHum/fqNmOMLSbEaRyxu02jI4CnizAd5bNUf5cw/bsE6k8/1mFsrOgb16CuswWvRZqoa/GFrsXbCjvKusaZPdf1XOC5UrJ8pnoXnqyFPh8Y1ghtCeeo/kU43RN9LsJjMEaigI9yFCOQ9xCPBlWJ8HRYGHAxeDOBsSGAM4B9g34TO2EwNq1zQ0zABOYngNHMrDf72P7AauaUmUKSpEnUpHIQFVOoTkL72eYyfuiTjDEqDlUnZch/+70MsZ+VbKw4biqbxKzooIaYzsP5KnIeZMS9UPKy8g9KhW0UJIQq7pvE0K5iUjTM/5hAe93o2iHJH0F69ryuw5O1uCS3JTwFXId4CTDGBzHIdTwZynEtKiehRCRs3JjyUSXGU60Ikar7CyYjK4chEo/xxhFqp89WhQchPlqDtEPNHfnWtKOtokZOFDsivf0OGHkbfAITMIHFErAwWCwxv94EVpsAM3DMFkb9/uZHNgyC1W5Ye/7aSKowCJQ4XD1S2I8MmC4BGaNgLlHAITAcEBOqZlR9q7wCeQoqcgqUs5BKjLDWEGvPt9At7ZEBp/CL8Bxo9rc8c04lI7fVoUQSCeE1wCjzZgItAa5Tie+KcB1W8v71tHJdztXVh55J4MYKXe21OKgxzut4j7xdL2Xc37+Xyku/peKHn1K1Q8JAHoPMLZ+PuT4jtIvP1gu1TZ8TVhqvXmkmvqJN/KS3bdKf47Kpua2TU70eSEKNS9PdDhNYawT4BvFmAiYwSQSIL2bmfKxd8jJsGo8BwoDkyzD22wTk+WYMET14Cy4qUVOGWEn1IaoaIYiq1rBa7IDxPu0yUKLE6zUtBkWYkirLkJwcHg08MPO1a7Gn9OsnmwAClUW5uBYlDPAYVNevR4WsCAHqDHCurcVsvF4/vWh6Km5x/NPKXdAeCwISbsO559v4DsD7xmvj9fKwRZ4Db1pse+Y70TCfQxKgELyZgAmMMwELg3EeHbfNBGYjEK55GQ5tKNFYGrMyTpocAwQBZRw7YbBQe58pdEPGehhjVxXCQWLlCxlCMUMLkKUaF41BpjhshEZ1S3HeJDJLgET1pNYDMxtzP7b2CBDO9kBhOhIDISIvSqA+lPeAkptxDXM9Lc8Ij+T5J89TefFKKil/qgUBKc37puzoLNg5Nzv5CYjoZoJgeS2Z5Tx+yARMYE0SsDBYk8PuTk82ARkFxOEzaxhGMoYy+5htGC/MfOIlkNHNQmyRiBhG1Rxt5TmSiwkjYiEzVjdmtWPEUDdDO8d7F3y4EQYRhqEqM5SQvCFxgDFGcmkkNcPUmwmIAPHwDyRob1Ly9mosaJYkWuvP3jAI1cKi0nmquxIguhaT8g7iWuTc8218/hEoiIKx9RzymWX3ZgImMEkELAwmabTcVhNoCcT04CTNEQ7QVkSBdqoXVYT6XJM40CJpCqCOx5c7O9uiq4+j9mjGNcQBJVFJ4hwkhOPNQfzXtBPAI4dnSStrRyI84rEz2LmeB7imF2SkYyBUOa6qd4UQZm0CQgXn2vicIAzCY6BQJNYGCOE8jPbMdVI/bgImsFYIWBislZF2P01gtQlEQuUCjcDowbsgY4zyolGrncdGsWFYUUKxDXMilKjUY95MQARYqIzKP3iSKuUa4LmK5PWhCIIWsYx5Lm+uRSp4kUtDed8FcwwacUDeTXgP2+P51gRMwASWR8DCYHn8/G4TMIEFCcj46Sqs9P492xtl8FAJBkMs6rJrJnVU4QgyvmKdBRJMCVdilhYjy5sJtAQI14sd6519BBuHZcYfccDsf5ugP++pms9R97ma98V+0gRMwAQGJmBhMDAqv9AETGBJBGTD1Fv3R/vAu7et/YWhNHIjnXPIGGN2lnNFOMa7TfIja5WAro+4HuOfkemCoItXrA0R4jrklINu8bFazBsGPbBfZwImsBYJWBisxVF3n01gJQksJhSIGVCt/JrXa0ViVicu+IoaQFAspT/NudI61X5ntdlRnmsp7fN7VpnAiK672XrFtVho1+J7aUbX/CCegNACixQRs53bj5mACZhADwELgx4Y/tMETGCVCWAQrZehvu09LUCmfZ0WghqVMECAbN6U8tYtKW3enLQWfCMOVpmBTz8WBLKuxYxoXK9rUDt/89jQN46JGOC6Z5G9TVr5mPvzbbwn9lZEjKBd853fz5mACUwtgQW+faa23+6YCUw2gTb0YCIiCAY0WlpjR4ZR3rtL+255DViNmK8pjjGszjbHwejbrtWPd+1MmdstEgfM2HozAQjgQdoosbhli64NiUeMdjxLQ910LXJpIwQQBNu2pvT/s/cWbm4j3dZvlcLMNOFMcPDlc7/7/z/PPed7z8vDkMmEJswM1l2/LZXjOOmOu9vuNqxK1DJKVatK8l4bN2ljbc7Z9IVCJsLCoD7x3M0IGAEjMAQETAyGAKIPYQSWHYEiRIc8wJ8xFAyiW7rFIGAhUA3iIqHvZAlged/elPfvk6C0pdHY4maxZGIAIWgFMfrEeXbsSEkEJG3b2lgNhi74LfvK8AmHhQDCuYT0vH1byrtEUlkjWA+G2rQeV2ltbxTpCJKq9aj9vMQgriv9qXRNtdaMcENa8vUx1IH5YEbACEwoAiYGEzpx7vYMIwApQLBlG0dCEFODAC5XDATtIrwgaNHnebWbGtv6DSkf2J/y4UONQLZJmnyEpxB8EO55vNimIGP6hWsIrkp7d6e8d29DDNAIB6aLPba/N1UIyLUHMpD37Un54EdaK1on67Bg0ViHbEtpfL8jq5hc2kQ+Kq3FtEfrcfv2xq1tvkO38Qh5rawM60RW9HypvZnvdH7PCBiB2UHAxGB25tojnRYEsi7bImwPooVfqXEjvKyVcLVOrkH48uMiNIhGHpcKhDCIweGDKe/ZpWOgqSWV6GIFsvI97deIrCDw7W0FvgOyTGwulgnfEldquYzdeSGyxLogrB853KxFCfBJ67nR0Jf1uNCesxYhqNpzjSjGpTp0oDnHbpEDXInmu04g1twD6B/XCuQA68E4t57LzwxmnCfKfTMCup0YBCNgBCYMAcgAwglCwSoJByEojNsYWqGHPm6WfzYuQQg8IgohDM1nNSAIGNcNEYPqzMepOn5E35XVICQKhDE22qCWgyKV8L1aJEUE5YBclY4fTfnEsZQ/klBGAPIHrRlxUv+ZFQQQzhWUnneJmJ44mqqPj4d7W94qsrCGtUeNjbIWAWUh61EpckUMIvvWDq3106dSPntKbm27dF0PEMvAqegf9wGsGLoPyA5GJ9RY72PUuvFQ6ldkKBuz/o0RVO6KERgHBPQr7WYEjMBEIdC1GEiAhiSEQFCEgnEYSSOIZ/UthHAFVIZ/Nq47SkMa2s75uonAQ7AncQZnJDDduZOqO7dT5/mLVD+mEFkRyAYZcxFCtFegZsZNScetTolwSBDLR49IGJOWFuFqPrIyX3/93nQiAFFk26rYAqxXt++mfOlKqp48SZ1Ldarv3W+5AeSAtVjW2lxwtO/zUa1xgt0hHdVJrcVPzqYM8cAigSVgvrXIe/SLLEabdW3JqpG1futVsqp19F43PTAnGoNGf3EF5H7Atc39y80IGIGxRcDEYGynxh0zAnMgED+0+oEtP7Jj8vv/dm8lLK1Wx9qgyoTAUwKJ6T/bXK0dXwhJ586k6oUqEj94pEJkknt+uSiB7J6+qSfREDLKscqeNxDCysZz6VMjdkFk4/TpVP3+dyl/8XnKh+SqFEGlvhWCktt7ECBIff/+lM48S9WDB1pVWlcqiNd5pUePtC5Zn2+tQdZhWYstGWjXIt/NaPclyOd9+1L12blU/fH3KX/+abgShVXtQ9cHXRQxwEUvXOKUVQtXuCAHIs/pdSEqfHCFm2DIIgV5rWJ6yPDEvsQarXDXfHojYATej4B/Dd+Pi181AuONwCDCw4qNoBXI0RCiFcX1AlIQ6UB1y5mPFNDnMjbSRH6koM/nzyWQPdTrIgESKjqXr6T0WAKZXq8RgpCDivxVxlyOEUKJBJINOpYEsYyl4PNPGkEMDa1clsId40N9Ksf1fvYQQDNPxiAFIFdPnooTSLh/9TpVcnmrf/st1fdlOcCapdfeXYtIxoKM9bVa1wOCMUK8rFRhKfiTCOrvPk/p2JGUdmotEjv0obXI+1gMIAYQbn0vy6pRK44nvXrZQww48Ri06KsKFuLCR58HGeMYdNtdMAKzikCXGNyTFq4Ub1mjC3edLuBVaCTdjIARGD8EJJyEy0D4745f95DTMznW5bufRQoyvtq4ESEkDNoQIPjuYQlNkq6qbRKClLElf/d9qi/8mupbt1J6KteiFwhDLR5FFiKosw3OjDoFEuqCFHzxmXy5z6SILVDwcfhzf0gQG7S//tx0IhBCvX4qtf7yyROpQvOtdV1r/dTffpfqi7Ji3byd0qPHjZsbZLUQVdYja55rAZK8U/U5ZKWqiCnAGvb5OZECxbrIpSgE5kGuj0IMiN9Rut2suAQyGUWczNPHqX5RTj4m04GCYL0wQzFA/IQLCY7JxLgbRuANArVkCbZXr16lLjEobxdyUJ57bwSMwJghEMKG/hQBgedj01qhBO2+ipNFnQAJQwhSjaZwAcQgNI0SfhCm0NrK/aJSBpZ6x7ZUSxiqf7uWalw7pMVtyEHrXiRBJHy4EULwvyb7kDSyxBXkc2dTIsMMlgKqHZsUjM3KGduOsEbY0MivlhAuwhnWAq2tWpaEIAhXZTm4Ixe3p08lmIuoQtxpvQQVYrFfrmyKa6nOnk4RU4ClgLVIZqGFKOLoD8SZuB1IgSwHWbE89b07OumYEYOCAf1lCxfIsbppxVT5jxEwAg0C7xADA2MEjMCYI4BQgDZcP7IE82UJ0PVY/M4ikEhbqr7kSv3bKKFcvtnhn60gyQiWREhYaGOsWA4O6bukPf1of6pPn0z1jZsp3b0b5KDR1kogK9hIqxt1CtCokm6SYmkEM2uLYFK0lnyWzc0IDIIAawXBllS3WAAoRIagL81/un5dFixZDe63RPU1JFXXA2lE0ezL1QdrAWl4gxxQpwNCQDrUSDe6AMJc+sq1D1kROYh4HI6lVLwRxzBW5EAxBlIUsHUzkvm6K7PovREYOwRMDMZuStwhI/ABBFpf+xC0EZrHSgOHMIQvtQRzhPkQxqWxJ1UpfV2MQIDlAEEejStWAGlIkwT9TFYY+XfXDx+0bhx9xGAT2tTW/YgAY7SrZDtCuHMzAgtFgLXLhp88sQKsJdaVhPx0V664BMVDDGQ1SMQbFGKA8E6MQusKF8RC10aTbljEget5Ma1Y1IjhoVAf7kgXdS6OF0YD/qwk8W3PTX9Iq7xa193Y3a8WA7y/YwSmG4EuMcC3yG5E0z3ZHt2UIFBM8xJOEFCCIDxbpHAxNEgQAhBEyLoiDaGEoYgJwI+f3Oz4Fy+VwBRBqGhK0cAqALnZlI2lgzCmfvA5aXQhJ1RRTviEQwaKUDK0MftAM4lAkFutMcgvqUxxSSMz0DOtxWdtOl1lLYrGZ1l7shpE4C1rki3Woo4Rx1okiqxzjo014qBqcageR/rhJ/ECuROVGKSmE4s8wZC+pn7Wii+qg1CJVNHnpYx7SN3yYYyAEXg/Al1iYFLwfoD8qhEYOwRC2GgqCofWEXKwGBedoQ6sIQVxSAQmuUlkVRTO+0QM5M4TWlYEmaU0xg25YEPIIPBaZCDjthEBn/RBjc/1fnap522O6r9G4A0CvesL4lnLegAZkKUgs2dt0vgc1yZrFreisjabd5f2l2OJYGTc9HBNIsBexdLSxps9Vgudc6WauhcGC64/7lFcs2zEC/maXKlZ8XmNwAcR6BKDD37SHzACRmA8ENCPapbWDQ0cmvnID66A24gzaOWR5e9oz4lxsaAg1IljTYpQfLHREg67hdCFsCXBY1XP+ct5himElWN6bwTeQUASMEIwgv8arcVCCsrnQkBupWTW5LAax4JwbBQx2KsYmoPKdiTXvY6C8tPrl0qfSiFAroshnnMxfRcxCkE5Fd8AAEAASURBVNdCiggW692KKzIWMxB/xwjMBgImBrMxzx7lNCGAtk2m+Yx7Av7LpAIkE0/jWKz9cgsCCB/aOK2qr+atigU4cihFbnbciIgvQIAZRbPwPwpUfcwFI6DFz/ofpuD/oT6UtY8WnsxdBPpTsI8MSRReeyK3pmgrRQ7a+wL3prAY4EIlBQH3guXE6UM4+n0jYATeQgBpIhoxBr2t/3nve35sBIzACiKAhhwNPBo4BeOG73IQgxXsE9mIIraAXO1yI1JKxqy0oOF7jeAyKmKwkkP2uY3AOCAQ7kSk5VUA8nHVRJC1LqwIqfy8twL6SvQVsoR1gLgKrAVdUsAbbkbACIwjAuXOIQL/9oXa/3wcO+8+GYGZRCB+aEUMSIOIxWCx6Q6HBl4jeODSFMWW0FoeVa0A/J7JDNQVBoZ2Qh/ICBiBggBKAe4DxPVADE4cU4pepUUlC5eqLb+xJJYvLPOe6x9SUIjBsls0l3m8Pp0RmHAE7Eo04RPo7s8gAhHMpx9aUndG1h0RBPybV6QVbaT2VDk+LkvBGVV1PaI9bkRYC/qUDivSTZ/UCEwrAuFaKBc+UvNCDO7cTdWFS6mjNL71ddyKXkgUR/H3tvJv9HC05+PexH2Ajb66GQEjMNYImBiM9fS4c0bgPQgUYoCWkEBfXIrQGpbffWT1ZWmcqHUhosoxGsuPj6vC8InISBSFxMhA4mYEjMDoEIB4o5XnXkB9D5EDqnzXd++k/Fg1PqiroMu0CYouN4nRdeftI7d9w7rJtuIuj2/3zs+MgBF4F4Eufe+PKeh//u5X/YoRMAIrgkCrIcRakNHSQxAQDJa9NcQgr1XNACoMy4UIgSRcGagx4NiCZZ8Rn3CGEVDcUQT+q55BPnuyIeikClaigibcINjBMgHUaicUD5VJSKA6JnnjSt2nlmnIPo0RmBIEuuq8/piC/udTMl4PwwhMPgJFQ0gAMq5EK6KJ0w8/ykdIinyZCXisTp1M+eQJpU38qKkyTBEnNyNgBJYHAZQDUhJguUsnjqV863bKFy6mfP+hrAd3ZTlQAbblTF9KLBT3AO5Pm6XAgByo8KCbETAC442Af7nHe37cOyMwNwII5d2gPj1GUG8VdXN/aRjvNJYCso1kBT7nXXtSde5sqr74TG4MEkj2tLEFwziVj2EEjMBgCBSFQUvU8/0Hqbp8NaVHT1Ln+QsVPYMY0Lh+uVmMuOn+RErlpAJseYtqmci6uTKWzRGP04c3AlOGgInBlE2ohzNDCLQawiRNXGjmSGM68oZQoU1yBWlS865dKR9TwOMnZ1M+raBjFVgaad2CkY/PJzACE4wA5AAXPq5LpQyuPjmX0sNHqRZJSM+fp/qZyIGqMze+RaMiB+09gngCEYNwd9yiDEnEQNiKOMGLy12fFQS6xICYgl73IccYzMoS8DgnFoE18u3fIhO9fnTzmvWqfCwzfZYfcY0v8Sh+9HtIAb7DW7amCDb+/JOGGBw7khKaQQgLAoqbETACy49AKAzktrNXJP2zc6mCEMiVqPNcBc+uXVOWopfqU7k+y37Y3ZQ8QV0TFV/Mm6S4wJUoYqGWQ3kx7LH4eEZgthDoEoNeUgAE/c9nCxaP1giMPwIZ7ZvM9GmrtHH86FJVtPNiRB2HFKhJjoh6BZCRY4flPvRpqiAGyoSSSE9KCtVlsVxEb/zHCBiBfgRwMWTbJuJOkUFlJapu3UrpxfPUef0q1a9v6PGrlF6313SXJPQfaInPW4sBpIA4pLAYrOqKHEs8uL9uBIzAqBDwVToqZH1cIzBqBNAMkpWo9d9FYK9f8YOPq8AwW4+lQD/2eduWlE8oLenvPk/Vf/0x5c9EDHAh2iDNIH1yMwJGYOURoNpwBCIfT/nZM3GFnGrFGuSXIge3CUaWBaFbHXnIlgMOF5YLKQoocijrYkMMfH9Y+YXhHhiB+REwMZgfH79rBMYXASwGmwjsk/ZeBKHeIN/iZ8pZ/nKYmsD2WPzQE+jMuaSFrL78LFV/+DJlBR3nQ4cajaD9h8d3rbhns4dAcSnaszslxf8kKQ0qxRukTp06P/2c6pu3eywHXOdDJgcoEWRBjBgD3acig5oVB7O3Dj3iiUOgSwwcYzBxc+cOzzoC+pHNCuirt0qDv0UEAWLwoFJo8LB+5DmONuQFMozIHaBSoHGQgv/zl5Q//zRlpyad9VXo8Y87AgjnB/brUq5T1VH8Ee5+ah0RhLctB8O6b3B0HQt3JoKPCTrG1RELBq+5GQEjMNYIdIlBf0xB//OxHoU7ZwRmEYFiMdgqX2Jp8ps4g2H98L4hBFgKcFfKR1SrICwFv0v503OR9SR8h/nBdzMCRmA8EYhYJFn6Cjmgl2QnkpBe/3xBloNbylak2CRcEEUemrZU64G+r3iCTJ0ViAH3CFsLWmy9MwLjjUCXGGzfvn28e+reGQEj8DYC7Q9+2rZNAcgS3JX9oybgL+vHvfy+v/2NAZ6VL2ofdQp0i9i1I1UnjinIWIHG//UnZSA6Y/ehAZD0R4zAWCGgGKCsqsgQgkr3jqzg5I5Sm3a+l9//9ZupfvxY3e2/dyyGIISJsUmGIFKQHXs0VsvAnTEC70MAYwDbWpH4LjF43wf9mhEwAmOMAGZ5cpYTgEx2In6Al1RZVEJB/KbruKRC5bgiBVlpSCleFgXMlIWoG1NgS8EYLw53zQj0IYAiAcsf9w0UCHpeyZ0I1yJiDtK1GyIHT1TvAOuBXI54LzQMCyQHfBw3x3VyYZLCIrKmcW43I2AEJgIBX60TMU3upBF4DwLUCsA8v0Zm+g0S4vEdrhaa9YMf/7YFKdCfcB2S64G0i9W5k6ki69Dvv0j5xImUSUlK6kH/0BfUvDcCk4UAhQn37dO9Qz//CgquDuxTzYNdqfPdj6nz66WUbt1pCqEpe1Fjeey5R3wwQFmfhXisUepkFAu7d6a8c7sqpNvdcLIWiXs7ywiYGMzy7Hvsk40AxIBNP7po5jKxBmvXNYXOGFnv7/lbI+15I8hAq0HkOHJHyjtkJYAUfKyUpF+IFJyT69Dpkynt2dP84NtX+C00/cQITBQCkHptUQdFQcFYG+uNUipw3culuHPxckqKO0iqllyrOFoKgqB7BreNbgwCI+bm0dviAyIGeh1igBVzjxQJpEwlo5mbETACE4GAicFETJM7aQTmRiCv04+wfnxDm79R2vxVeh6BhL0VkHvIQGEMhRSsJUiwEQyqj/ZHPEH+9GyqIAOqV5D3q0YBVgJ+7NEGuhkBIzD5COh6zsQnQRRECFYdPZJqFSrM3/2QOt/+kGqsBzdvpvToUapfKjAZ9yLaW+SgeekNSdB9htgk3ZPIYpalTMi7RA5sMShAeW8Exh4BE4OxnyJ30Ah8AAF+dHfuEDnQDzAZQKICMkXOeshAWBf0UpABuRtJwM9rJehvlIUAP2ARi0pWgoyV4NTHKZ85FVmIwkpADnI3I2AEpgsBSD4xSlgKFYhMpWSSGFQ7lIhE1sda8UX1rxdTfUPWA+ofPHkWBdKoh6Bcp00MAiQhbjP8aTZiGDLuSkqhjBWCY4VSYbrQ82iMwNQiYGIwtVPrgc0MAmj+9GMegcII+muUhvCVfqSxGlDZNGtD0c8PNsHJaP7lcoS2MB/Ym/Lhg6k6fiTlE8dSFilIB0QQ0CTKRzgEh5kB0gM1AjOIAEoDYpMITD56NAT5VUptWp88nuoff0r1LyIHV66ljjIXpbv3UiJ70cuXsdWvdI+BJIQVAWKgx6t0PNUvaCoey9LIfcTuhzO4sDzkSUXAxGBSZ879NgIFASwG2yXI48u7Tdr/zQr6q181qUv1g5+xIPBDLXehDHHgh3qL4hH2ysxPFeNjhyQQHE5JdQryoYM6ho6FoIDA4NYg0O8+YWwme2X0zqfnsrnWuY9gPcDqSLySrJC1rJD1RwdTfelKyldFDq5dFzm4m+pHIgcQBLIYURNBRKF+TbCyiAL3GBQVBB0TZ8BxsU64GQEjMBEImBhMxDS5k0ZgHgTW6DLGDUAZg0oWkNDaodVbI8uAXIG6FgWyhOzZndLe3VHwKB8+FEHF4U5EHAEpT00K3oBdBMiyf/OOiVMvFpPyuMxj2Zd+mxwUJJqYA1kPgiRslyvQcVkS7yhT0Y2bqfrteqqvK62pgpN5Xl/DiiCigKvR82eyUr4KQpEVq5T3KVmB7ydvcPUjIzAhCJgYTMhEuZtGYE4ESDu4UcK/BH4yCaVn+oF++KAx8a9H+ycXAWn+sjKEZAgBKUdFENJuPYYkQAiwKsy6Vg9hkQ0XLPyoyxb+1MVdQrOAEAl5wj0C16w2y0s8t4A55zJd9jeYS+auzGO4vbSuLwqkrfGJl5td5PVnHrmOYt/O7axeD4y7tR6EexGWyH1yOTx4INWH76R8WyTh1u0gBklWhHh8736qnzQuRlnWy+rUycYKSUV2jufrYtmXv09oBBaLAL4Cujvyexi7xR7H3zMCRmClEED4wYwvM3/91TepvvpbQw74QUbox3cYF6MILpSLAK4C/PATeMiGYMsP96z/eIMjVpanT+UqIQ0orhJPnqb0goJPrUDJbRJcsdKogBNuE2CctwrnUkdi1nFcqeug/7zMGek2nzyRRvthM5cU73qpTWQhfvM0l5k6IMwdLjBcG7HpOWTZc9mQK7Dk2uBaEKaRxhQrwR1ZC+4p7uCBUpuGW9EzZTgTjqqNkA4dFDk4EhmPfH/pX5x+bgTGFwETg/GdG/fMCAyIgKRViD1+vzduyFrwUMHHIgrSaDeCjoRXTPpsCLMQAbc3CBRCIAEyoflEIyo3CVwkwDIsMNI213yuEANldMrgScYVWWDCdQLNKkQMsoU1wULlG4yX8xFrHwGWNJsEy96S2wuBs/fvx1zWQQ4k5HLNME+QZJGBqAVCFh3NY1jVINIQBoL1PZc9M9jeb8CYa0aEoGaPpfKZXpPVJVwTuTbYuB6MXw9+fmgExhsBE4Pxnh/3zggMiIB+rHGV4McZwQihhx9jBJ/+zT/Sb2OKVvmBCAAWl/O/KAvLBW2/yn9az6UJDUxFCkLDLFjDYiBMIQa4TRCwnc+dTvnjE437BGljiyXm7TP52agRYN1jIZCrS7p6VfPJXGq7oPnkNV0f9QuRAjTgcY3gNtOQvCjst19VgBWQn0+eaILxlZ0Hi5vdYfonTjhDlLnngCX3HJ7zmCxoWNQgVCghuP+4GQEjMDEIWHU4MVPljhqB+RAQCeBHGI2122AIFPcIaZXrS5dT/dP5VH/9rVI0/qznlyRIStOMewSaUQmRb9wthXUUcZImFDeiK1dTpWNkNgml+ZiKRFElGv9qhCJcj9xGjwCuLpACgmN/1lwyjz+QblPE4LLmF+uB5rKbYpMeiSRnxRbUqswbWu7dytQlv/lKLjJZlX+p+ksV8JhLLAsm1e08cg1gbbHQP/qF7TMYgeVFwMRgefH22YyAERgXBBAk5V4SRZz+/q/U+ddXqfP1dxIiryjGQG4nzxVf8EpaUDShahgLelsEWz68LwFSxEKuR/myCMLN2yIJ+u7nn0jg/EguKkrXaGLQC9toHoelQLEhVzR3336fOv/zt1R/813qqHpvffuWCAOBsSJ4WH6a6XzTD4R9Eb36gebt5q2UsRSJ7LGvFG9SiUxkVQSOYl18y+TgDXZ+ZASMwNQhYGIwdVPqARkBIzAvAsXlQRrhIAXffJs6EIP/fJM6539VbIFiDDr4oCNBSmiMrf+IDU2IzDZUhL3/KGWsC5ANbdVa3VoJbA1ts1xRECYtUPaDOJznWH6wBNyUpUDErvP3f6bO3/7RWIDInoP/e9A65oz5pJU977SU76lcytJjBSo/TlmxJdULBdnKXz7ex90IDTlVwPXYzQgYASMwrQiYGEzrzHpcRsAIvB8BBElcTq4p1eK/v06d//1Hev3P/8gPXRVeyUbU0fs17j8fdpMI8RL+IDJQ374ti4N8rYlZWFWp2LTeLZlucCkyMXj/fCz1VVy9CBT/+ZfU+f/+r+bz76mjmIKk+aifaz6i7PcbIjD/6UQS5D5U63idC3yS5xA9uRGJGETdDxOD+SH0u0bACEw0AiYGEz197rwRMAILRgBBkoJNFy+nDu4m2iLGAOESK0EokCEGAwqTuLEoLz6pTWtpnTsiAFR8rSksR/AqmVlC0yzh0m14CIA7m9LKMn+d739Mna9k/SG2gBSaVOTtkoIynzG58/ShnUvS/95WKs5OnTpKW5rJOMUcKm4kb2gze9lFbB4c/ZYRMAKTioCJwaTOnPttBIzA4hB4KtcfCjMRbPyDhEgRhPRYWYnqYimAEAxICqIHfFaCJ0IqrEKZjDrf/6TAZBEDfNN3bpdLkeIN0Dq7DQ+BIGRo9xXjobgCrD8RNK6Us+ml5jIsPr3zyPx8qLVzqY/Vshwk4kUuXZEl6PtUbVY9kL1tUDlB/p7PD4Hp942AEZhABFCjuBkBI2AEph8BBEmlVawfK7/9byIGZCJSMbga6wHuPyHYA0OvMDkoLHxHm05RS1NNZpwIfL14KSU9jpSngx7KnxsMAWJFmDdlEOr8JDciuRJRgyIsBa8hAe2cLHY+dYya9KYQD81juJoxl5GtSLEkbkbACBiBKUSgSwzuyfR6Xxk62J7I//Y1frhuRsAIGIFpQYB72vNnjWCnjDPpmoJVEfIoykScQNftZLEDRhDVLRWBEoGVjEdkyYGEUF+iSzwWe3x/7y0EyJ1PcS1iCaTVxwrUuA8thRBwhr7vE4RMhd9YM8pYhMsZtRDcjIARMAJTggDpuDtStryQq22XGJSxZQfIFSi8NwJGYJoQQMOM3zmVoW/JSoB2mYw1UZyJgSIQLrXpGCirqZSM77vSmEYVZc4TQc286TYUBNog8tDgI7irSF24/wzl4G/IAVXECUonbiFIAcXwXpkYDAVmH8QIGIGxQ+AdYjB2PXSHjIARMALDQABBEs290lGGNh+CoNz2dTexfREGh3AyDvVCAuVtBcGKhKRHOidaZsiJ23AQYD6finBBwLDQQPCCdwH+EJsCkKMGgmoaxNoJMmmL+hAR9qGMgBEYIwRMDMZoMtwVI2AERogAQrmE81oCHtr8ECpfo/ktwvowBUodC0H1gTTN4a4kQhKCqy0GQ5vhIHoiBJA9sCUz1CjctTgm56JAmlzR6ucik1h/GhYytOH4QEbACBiBcUCgSwzwL3IzAkbACEwtArrH1aShpOYABbG0H5kGn/sp7kRomZXGtLEWSJj0fXZ4ywssmUMsMQjuPB/6z1hLFjk2xFJzmlhDPI65HPoJh4ePj2QEjIARWAQCXWLg2IJFoOevGAEjYATmRKBuoxYQHi1AzgnTYt8IwZwvC9tlgLfhHctzrsVC4u8ZASNgBJaKQJcYLPVA/r4RMAJGYKwRoPDYKpVuWbOmyUGvfa0iVSORKUnisFrVjjeuT1nVj+OcFMQaprfSWIO9DJ0Dz9XMp+pDqNJ0VJYeOr49q6PSwalgHVWs2/N5Qpdhon0KI2AElhMBFzhbTrR9LiMwrQiEOlVCVK+LBa8RuBkuGHK/oCHAVRKuEJx7txCae15rPj3cv5xjrarYIqxTxXaDBHZVtY1+hPzHnyFKliIeeZuqHm/f1p5Lt9usPrgNBwHmc926lNZrgyDwfJjzV3rJktC6zTpHpqiZ1tDIzlXOWawg5brq7nFh6n7ozYNYtvrTfx1xjbkZASNgBBaAQJcYEGPQ607kmIMFoOiPGoFZRiAIgASW8N8nCLT1wY6ATT0mYwyZXMj+s369BCsJcmt060F7jyCDZh2tL8Id2ljaKAQajr1B56eC7Y5tIbRnzhvCuqStrsA1BGGK+6mEyLx7V8r79qa0ZUsz7hBemyH67xIRiPkUuZNFJiOsh9Vgicd839dZi6xVSAHrByJS1un7Pr/k11iL2oJUE9PQXlsEWLPxev8SpY8Qbq6rQpLoYyHhS+6TD2AEjMCsIKC7SNN6SQGv9D9vP+adETACs4oAmv8Q9hXsGUGfZGlREK+2pCJQqozSkICXEl4gBwRq8rlIEarUoHx/48aUgxwUIiBigGsPml82hC/tczzXY57zfgg5+uxSCANC+ToJdlslpO/enfIuCe2bNqYaQYq+Ioy9I3EtdLIR2lpBcvPmlA/sT3n/vsZCMVJhcqH9nILPM2+av9RaZfJmWYEidekw5hF8OI6mU+fh2BnLz44dKYvkZQTwpbYuodZ1EUI/gdTlmmqvJ66f/o3rqFwHTReb5xDscr2ATVxLXEO6nngMeeJa4j3WYnG/WvKaXyoQ/r4RMALjhMAQ7m7jNBz3xQgYgZEhACkgzSf5/1XsKamoVLqpqrN3VfiJok+yCtQUEEO44bORQlJ7XqNCLYKQtK0h9PdqNnksshC++AjTCGB7dkl4l+Au4T1tlTtO+OlLuCmuEosZJMIQhEOCZD4gYZ1tmywH61WEjOxBkYISVWy/OnbQkyGlSWiTdjnLTSnvlBB55FDKBz9qNM2DHsafGwyBIAZaLxC8gwdkmdmt1LBak481BzGHi51HTl8kbj1EsN6pcxzQOSB6rEkE7aU2BHyE/qdKt6oCaunBA11LqnlxW8XaVHyv1vN4T9dPTealQhB6LQbRTY2ToYoYZAR/CAD926Q1yLXD9bR7p/bbG9c2XWNpo0jUOn2Ga6KQjKWOx983AkZgKhAwMZiKafQgjMCQEUCIR7hvrQA1wguCyi0RgVu3mv1N7a9LqKbqrMhCeqz6AFgOwmKg73YtDCr09UxkgWOG1lKCc1djicWg1XSG778EvR0SYPbtSWnvnpT3yg0HgqDXIAhNbIC0/gg1xAcshCggAKH93STBCAHv6OFGoLwjYeymxgGRCUGLPwsVKvlOfFmkQIIkpOPY0ZSOasOVCCuJ23ARYO5x6xEBq44fS+nK1abSNAXsXknoZv0tiiAwj/ouwcZaY8SJ5MMHUz52JIhBCNoI4Att9Ic1hoCPe52K3tX376cEsYZkQwZu3+5eW0G2IaxY5bimwqqg64rrqL+xtoVHDrc8/axznck6h3Us79T1FBaynanm2pLVI+0SUYAUY2XhcxAJxrSQ66m/D35uBIzAVCDQJQaOMZiK+fQgjMDSEUDwYKOYE0LzDQnNV35L9aUrqb5wMdW/XZcwIzJwHzIg4SaEF2k1EXhwyUEAKsdgj4azFJ9q3RfIBtTVVIYApucI7QgoaNvRauLys02CzF65/UgjXKF5P6xt/95Ga6tYgbAAQDIW0uQnjha/QijTmJKsHR1iIJ5ovAiENaRA/RmIHPBZja8USUNA27otVWdPp+rLz1KQg2FpmHUWtx4EwBrrjDTh6ZMzKcuKlTWfGUEbDbwqT+sD2pijhbR2PoNEyvVNBLU6/XHKp08GoYx4kcUQAwT7x+qX+lnfEKmGyPxyMXUKoVG/0yOtQwjDE5Ebrr9ekh0xB/RtjhbkQGMt2ZPUR6xzmbgIBdsHqcYiJ+sB6z9zLcmilXB1E3GIcWFRW+j1NEd3/LIRMAKTiUCXGPTHFPQ/n8zhuddGwAgMjECJH8Al6KEEGFkG6ssiAxCCS5dSfbF9fENaTQleYUV41ZCBqATbJQTtGUOGaQWZIs90ZbTugzdKXQQagiUlkNUIXggpkAS0nNLAp0Ny5cA159DBlCAJ0sRnNJ+4S6CR1/cGapAPaZnTYVkMzp1JFWNhg9RIKAsrCYHSA2mb+VzTMtpraWGrj4+nDCn49FwIXaGRRWgbt8Z8BZnTHIZGWuNnDUDmunOh+ShzMW5uJ2DKhrAr6091736qf70c7jedSyKwCNqvNJaBXcTaRcpUaazEEkBGIQSsk3ziWGO5Yl0O0sCxWN1Enmv1L127LmJ9rSEFFy+ljogBz8N1iLX3nLngmtKm70ZcTnRLf9rudff9fShLjH2QBJFbXU81VoTVIgmse4gCrkUHdO0cEjnGaiZrSM04sc7pesoQcjJ2Me/juG77x+3nRsAIDBWBAX9Jh3pOH8wIGIFxRACBBEvAVWkyfzyfOj/9kuqfL8hacFVuDnIhkoa9xk0DtyJ9ti5CZFgHNCD2vS2eFmmlfaPvI92P87q+H8fEuoBPNUHLCEvhwnQrvf71YspffRca3Hz4kATwYymdO53S8aONiwdWhkG0wwi4CkLOe6Ql/eyTOG+Fy5SE4c75Xxu3joSATO/mshxEh/U+e9VHyNJcb5NLy2cSIP/0+1T95Y8pnz3VCFlFgOVw49SYb7B9KN92iCDaaqw/4E/cB0Kk/NQhOwms8EunjZuwiKC+e09Kp0+livWJG43mpcMafSSrFmupaznoW4+MJ1qZT40dK8T6Danauy9VX3ye8p//kLLWST5yuHG7KV/50J7rgzUsq1t9RaSatfX9T2F161wTGZBbXoLMsMaJI4CcQdawDMQ11e77z0NX52vxvv7oWHXW8bBUZK1v5lZrP9z+1Kcsot/59ofGIiKSgHUryzIS19PBg5p3Ee5ey9585/R7RsAITA0CJgZTM5UeiBFYIAIIH0WjSXAwsQOXLqf6J5GCb75PnZ9FDCQ8oM1M4dogX+eSvectEjCXsDVgf4qg0yPQxDeR55LOCRFBcCUoE63n5d9SdVWC1Y0b4Q6E60g6KQFwv+IGtogc4DpBekmEmvc1BFusC2SXEcEAgwqf71Yz3sG9SMJyECD5qtdFUOs9FkNeLZ/utTrOBrmbbGn83Ks//y7l33+R8hlpmffJyoHQOi6CNEJnK6wGERAJTMIwBNS7ElAhCQipfEZYEEBdb5U2HlKAhYYgX/DFJx2N8qAWml7cRvEYjbiyE5H9KX3+SapYm8znujWpviaSy9ieaTG9hOzpvbLeevuiOcprtF70HQJ2825p1EU08h9F8j7/VOtEpACXJUjlhxqCOITgvgjXzRvhrhbXlK6r+gddW7gOgb2wftv9rvfAi7im+sfVvUY172rdt5+28Q135Holt8BwE7x8Na6p6rbuAcQ5kEwAKwLkgPlmrgcZe+8Q/NgIGIGJREBXe9McY1CQ8N4IzAgCCIAIUFgDcGn44afU+frbxlqACxEaTQgDn+nGDgib8MHvxWgRQkzv1z/0GFkOLXZHWk+0qtIEd0RUclg3rqUsAlPh6iG//oRArsBifKpTJRIxX4MIEIBJkLAIRyUBOEMufvhB5EikSG4fCQ006VgLOWCoCPqQjk2yOiiwszqkwNRT0lbr/PmTcykRpKqA6SAF4yRMMd/EhODO8uPPmvMLIn6a92uKIbmH5UDk65m0ysx1pZ8GuUblbfikixAgJMrtJJ04Fn7pZOgJn/T58F229zQfzAt+9AjwIoUVAeByPet8o/WscXauSkAnJgYMmEta7PSHudQ85S36PvEsR4+066lZU+G6hvsNczkIyRMpqK9r7ZzXGvrqm9TRdVWfVx8Qwu/InQhC8NY1pT4s5zXFuLmeaog+15PWt1zpOnd0H5Blg+spK5aoOnsmJdY0pBD3IlsPYtn4jxGYdgS6xKA/pqD/+bQD4fEZgZlBILSmkg4IuCUbD5aBf30VpKCDq4O0h5GCFE19+WyAE1JxCxOPR9X6jo0gE9pPPUCgkTBTI3yJtGRpgzMZXWQ1gChUBHee/DiljyTIEkeAxn4uzTaCXrtFkKYytNRkcRFB6OzZE5pUXD0i2xICFH2gawRQ65iRzz4ESflpI0CdUGzBoUNN/AKkg2OPQ0MYxm2IoFfiRSAFX30tVzFpsHEbuyVLTLgRab4REsEYFyq55OBKlLdLa4wbl+JMKgm8mYB0ub5kYZywIIDxijdNDJhLgI+MV/SdbELS8nf2iexdlCVMGvIYX1i91OFYU9prnqJAGt8l7enxYyliCnBRE1EMoZg1NJcFKq4RYUZaXpGrGjchMP72u9T5z9ciBb+IFIiYiHzVBESHUM6i7m19a773rSU/fs+x6fPr9nrC5YoYCBEWrG9lIx1xFUH5uk/gZkQ8zzit6yXj4gMYASPwPgS6xOB9b/o1I2AEphABhAIERdKMSqPa+ds/U+d//reJKSiCMJr5EHgYfxEsyn4lMOk5N/1C6yvf8bojLbACNTtKl5rb7EnVp5dT/sPvUjqlTDK488xFDMowEOCxMCAgspc2fNWZU01GJlwqREBC6COIFeEw6i5IGCbolTSqCEzycY+gTr6P8DSXEFnOuZx75pr4kJ8vpPq//5o6kMCfRACxHFCXIvzbNTYEVtyNwJc5hySQGQeyJatSJkhWmuR8QQRBbl3hYnNGVprdsswMokkf9ZhLH6iEjFsRLjCa/1UKAo8sQGShivgYjatYgBhnW0cjUnvultsUrlOkysWNpgS1l2O/bwwEqoMxlrfvf2yuqX+JeEEOflM2LxGScIeDFMR5OUjPen7fMUf+Wt/5mXIRploph9MrrQu5lWExxL2wYu7pj3Ci7sfYEN6RY+QTGIHZRMDEYDbn3aOeZQRC4K+lvZQrAX7Q12+kzq/KOnRJWlUIQbhaIAqUbdzAUr8YA4KstugzLk9oPBHk5RZRFTcpjSdci0qWlfcNBSGeDQIhYTLSX5LxqGhLESYJTuaYhRhQR4FjQgQQQBWsGoQAAXI+IfJ95x/VayWmgADX81iF/pM6f/17wl2sQ2YchD8+M5ewKo1yTXacognXWskQAlxhhEVH2FcI4QjWhRCNaiyDHhfsmUcC0TU/QdyoWSHiGARPRCfc0QoBKp/H6sE8YgFhLCWGYr65ZA1yHPAgPufnn1Pnf/+RalkJCOqtr4hIke2KtYPgHe5CXFPj1to+sQ46ssZBcgjaFjGsNbc1rmSa+wjiZrxuRsAITDUCXWLgGIOpnmcPzgi8QQBhBwEX4VYBuIl6AKuk5e76OSPF6P0V12q+6fK7j3oELHU3YhAkoIX1QP7bkITQauPL/VrkABcfNPnztV5ccBdCUIQMlA1BkM+wYWVgQwhl43F5b75zLOd79FuxGKSc7fy3LEL/928iBd9IYJX7kGo2hCsJU92d9x5MSz95n4Y8KI133ZEvulzNKCCWpWHOm4WRgn8zhdzQJo9DYx5ozElxJUPQx4UITNDwM5elZc116x4WRfMIZi7zWT7zvj1CMmuNAO5//kfbv2R9+0fqKJ6gFoGK+BzOCb5xuvfg+77jrthrpX8ihNFhJp2OKzBb+LCNDeldMYx8YiMw/Qh0iUF/TEH/8+mHwiM0AjOCQCvYkpIxyXUifySNqlwv6pvSet6XHzYa4lYgmAhEkF0Q9BBc0c5i9dAYOlgLSF3ZWkDyQX1OGu55CUJgo9si9RTEm95qRZgsgidv9j5+68Nj8CSEVsWQnJePe2ixv1NMgVxbsKoUmW9e8lcERY2FsYdPuty35CsPtpWIZUfF5iq07GTyAdv5skEtJyTMC1uxBJHNqrQyj+V57xz2Pi7v9+/5Pm5lxBPgvvbt96n+X1li/iFi8INcia6r/gdad/Dq4tuDZf/xxuY5/dWmtL2ZlK2ynBBvQ0B2N5YEPN2MgBGYagS6xGA7qdjcjIARmH4EisCkYFuKG2X5XlcqtpSeSBv8vdwHSLUYxKBXsBl3WBC86G8lciChjBSm0txKfFMA5VOlsJQkLA1vZK3Z9gHLAUOdT0Cc7z2+OyaN+IH6l19T5zsJrr/IlUguY+HrPhAp6B9EwVd73LcUrNqRUJyU1hZSsIrMNWTuwQ3nQ9mg+g+9HM/nm7P53ntf3yAFxVLwj3+LFPwjvf7r35ogfty2IKZgHKRgEghB7yDVcVlLSFUbdRw+OZuyNooJBqnGkuJmBIzA1CGAMYBtrZQoXWIwdaP0gIyAEZgbAYQh3Cx2qtLpYRULU7rPWllrsgINI6Ulwg0+/GPvUtQ7xFZ4xTeeuIBbyp4j15GONLyZ2gaMGaGHqr7Fh7z36x96zPcnoeHiQhYlkaNISfqTsg+RepU6BQTAwp+6muyFDKjFF405GnFiFEQoa2mU6ytK7YnwuEaaebZxboudx7AUCFtiCrAUfCfrAIH7shREelsyfMnFSgtOowerCVkv3bmi37pWdF+gCnI+fixlBZdHxWcUh1hdcLtyMwJGYKoRMDGY6un14IzAPAhEnIGEADKxSACoCESWPzqFmSK15Wu55UycgNMKr1gOEF6xHPwiy4HIANWNq9WyFmjc+aMDTXzFPPBM7FuQAgW9koo2UW33goLKS6rMEFqXMjLhi4CsVlPfQcXvwj2JuhfUOtjaWg2Wcopx/W6JKZDLXf3vr0QKsBT8XaRA2YdIBVviCSbumonZbFHX/G7anKoTx1KFteDkCbkZ6loh3gZSsFhSNa5z6n4ZASPwDgImBu9A4heMwIwgADHghx4fcVkNog6AhOiOCkFFNpqiXQ5BEIF7Uhp9lfCKy8vr5yG8Isx2CKCU20ukp1QgciZoGC3otLlHEGD7VClWqfgrf/d0U5aTCDbGAjSkeYQbIAgrc1ON+8xNpbaEhCmTzZDOMF6LjWsAFzssaufllvWvf6fOP+VGdF7WGKwHYAG80SYNASZTnef6WKesXKRqPX1S1oJTUQ8kXMTCWjBp42qnwzsjYAQWhICJwYLg8oeNwJQhADHAdYBc/CroVH35eeR6j0q4DyT0RWEvJB5cCCZJMHjT1ygqRVEuCXQdjTWcIdCAStiJceNWNE0tiIGy5ZDC9aG2Likog3yDTXllUXuEZbToBHwrEBcXmyALizrYGH8pxinBH9cpuWV1IAV/V6Dx90pJirtWXCNgWrYxHst7uwYxUIYpBZPnPTtTdVyVu6kkrkKBeYeKBEIKHHT8XuT8ohGYRgRMDKZxVj0mI7AQBEjPuAlNoXzET59KWRrg/KvcT8heE1mKcClCeBiSQLmQvi3ps21/sRw8lVuRCjZ1fvg5ilZVaEVL7v1SzXVa3CQ03tBuK+iaPS5VUa9gSVj2frnFNRTN+kOwN6QA96UXstAQnDtNbicI/lhGCN7+QXEFX6uiMVYDnuNOBW+eZFLAdCL4y3KYj6iK9ylZC1TFOylbWVKCgqmzqPUuZT82AkbgHQRMDN6BxC8YgRlDAIEYdxoq+YZL0b1UqcJteqi0lC8kWEaWIvTsE0wOiDl4JgH2+s3U+fF8xFXUWA22bhFB0L5UuJ2GqZdgHnOmzEERJIxWP+ZuBIPj2BAPMiCJHGTWCrEdkK08JRlsyEBEYDFudpACKhqrTkGQAnGgybOmlXXA9ayN9KRr1ss6sDtVZ84otuCc6n4oWxkBxx+q/VEO5b0RMAJTg4CJwdRMpQdiBBaLgIgB5ADhmCqnRw+n6uxpVUVWlqIH9xut8wtJQJGXnXPosxPX1Gf5gSO8Jio9//CT0mtuT5WCkLPIQdq1Kwp1TebY+iYD1xelZ8VKQOHKCBZGBhx2i2ProAQ0k40HP3usFeX1YZ9vuY8H6cEtS+l8E5XBtWaCFFxSgD7WEcacID+TeD20C0Jdz7rus9Z/JSsBqUnzKbkQqX5BZO6yC9FyrzqfzwisOAImBis+Be6AERgTBLAaUNRIxc7Sp+eU/1/uE3K/SY+leb4jDelTuYmEIDQm/R24G72Cm4Q5xnVJrlLKu18fOai9inMRZxApTTlo7+cHPsn4fBBhjuxLvS5SoxgSx2TT+fIaFcTifAR0UxxuGtyyIAVYQnAZ+vaH1PlKBeJkSavJxPRc7kVNtMr4zPvAPYEUaIv501pRQH6lQOPq95+n6jNZC44dCethuBdNwzwOjIs/aASMAAiYGHgdGAEj0CCAQMm2TSknjx1NWQGl1W/XUkfEIAIso7aBPopGeOKE5yIZZxVAk1+4CE99UeQAtxCsBdoy/tTk4J/0LEXMIQHlIjqZwFEJ7cPNP98KlgjGnAtCgFsWLlmcD/wmXaBkjcuFKCloHRLZ+V6xBXJBi+xLxG4EKSjMqLl8JuuvxicSF9WNsZp9omBjKQOSrIWJRARaPxM/h5M1Ie6tERgbBEwMxmYq3BEjMCYIIFQqODeRw/zu3ZQlSGdccJTdJgqH4TLSFYzGpM8Dd0PCXAQjYw2R3/hPEvYo8nbwgAiRXIogRZNODNT/vHFDqiE6m+QepmwzpKIcekMu5rjrdXxZXSKtJQIlZGGSiUG4QrWWpSu/RfEyXIg6l0UkSQPbbYVsdl+YgAeF1DVF//KBfak6pescSwEpSnUtBClgDt2MgBGYSQRMDGZy2j1oIzAPAriDkLFHlWzzGRU+Eymor91oMs/ckFuF0mA2VgOOMUnCUdtXfOI7rxRDoeBq+Y5nxVXUCEf4Va+XS9HaCdeWkmVKxCBtk7C+c3vKEB4RvLpi3jRlbMNokAJSXJLNRlrmvGNbY6GYZFIALsQWiAxH0TJiC84rA9EVxRXcVcpbMjA1PjjDQHCZj9FOPvMmK0/etSNVIv8V1oJTJ1NSgTpnIVrmKfHpjMAYImBiMIaT4i4ZgRVFAMFOGsOsCqjpyKHws1517XrqiCC8xo2CvPhIl10Bc9LIQdPx+plcRUR4OhdEDrTVB/ZLY6q87crOFG1SBdxVuq3LtSdDCpRyMu+X9UdZdcgyVZfg4GEQOiwrEMgdyl6zV6QqtM2yHkx6U3rSyLJ0QxWOKWD2i4jBXbmePde677DWJ2m990+GSA+kQPE1ZCCrvvwsZdUuybrOeS3cwvq/4udGwAjMFAK2F87UdHuwRmBABBCK0QbjZkNucwoenTvdCJpk8cGq8IYZDHjQcflYK9yRnx5hGSvIJbmJXL3W1G5Q9V6y+kxsww0Elx6yLim4ujoqcieSEMHV4VLUao4XNUB9F/h0HNK85n2qB0FqS/mpJ0gVMQaT3lgX1PAgRenlK6lWnA1ByJGhKDhlu34mapxl3uRmJhezLOtAuA5hLcBlkLgCspJNuhvdRM2JO2sExhMBWwzGc17cKyOw8gggJBBvQHDuOaUxVDBmpexEHYIylbKxfqmUjV1ygLA0SU3Cs3zJCarOjx6KFMiXXD7kCEmkbE2b9P5ajX8SG6ROVoOsbDPp+LGUFWgdFhHNXULoJYi82wadt5CI9S3tsSatk9ZZrkPVx8cjo02QR9bJpBMD4gsITleRv/qGiIEsSvWde30uRINi1gV5hR8wdyK6MW8i+5qn6qyyEH3xabgQRRYySIGbETACRkAImBh4GRgBI/B+BBAwsQzIhzyhFVbBrHzzlvZyqYAcSMisn8vnGveUaJMiMNFPbVgFao0hqtpelx/5byndVnrWR/sbjfukCrnMGxvuRJq3CiH3onzkFRtCeEVd4ysvcoAvPYLwoA3YsBRsVLYjWSPy0SOpwpKkoNW0u817P+ixxvFzrAelKCWGJlKUEnis9U4F8Pola1xkceLciNr5Ze6wIrUWwAqir/ihJPc5ivzZUjCOC9J9MgIrg4CJwcrg7rMagclBoPVJTnIpqn7/ZcoSKF/jWvFcmlUJ0nXEHCA00ZBAJqy9UGVb0pcqjgJBEDeSTHaiSW8IgnsUX6DA0kqpZyNbkITfjuavvvcgCteJGbTkYK556yEOWCE2oHGWe5nS2VafSeP8O60HstlAHie9QXAhvPcUqH1JMScXtbEuqOMRxf3KGp+UgTJ32phaVaHOip2pVKOgoogZWYgoaIZVCcsgRNLNCBgBIyAETAy8DIyAEZgfAQQHbeGHfPLjECgrBWZ2FIjc1DdQ+lKEKtTR0SZByAhpKXpb41pzX1rhmxIC5T6ScblBAy5BKgSmSRWasPZoy/v2pYQwKOtAVladSrUa6itXGxcZCcL1S6w+msPGnBCyZCNMCiPcT8hyxHGIKVAmmwhUPXtGgasKWsU/fe/eRhvdzv7E7jrC4JmsYbKwJOIKrinmRG5miZiTKOw3ScSgvRZZ5hD7Nq6ADERRxOy4SAEpiXEhypM0roldXe64EZgYBEwMJmaq3FEjsMIIrJMLCULgx88UayC/aywG0qZ2VBGZLC6kAJWUscKdHPT0hcRIKHqlx1g97kogJC2rgpEjdWPJ0jKpxKBAgUB/VBp+EYIsK0KtDEIdVfKNAm/MI4G25OdnPiEIuBdVmkeIhdypMi5JsghEoPEJFb479bEC0UU0ThzTay0pgDxOehO5pU5HuA5hKVCK1/RC6wL//Imq+M3a1salqLUbhO6wXMo+O5uqP/0+5S+UiWi/5o1q39MwbxqmmxEwAsNDwMRgeFj6SEZguhFAc4zmcb800GdPNzEHEiwJSkbDikAVMlT4rU8KQRAxQFOOOxFByPiUSygkC01Gk47gRJafSW7SGFN8LJORiBgBWUJwleoolWl9XQG2txRzQJ0DyB3WE2IP+BwxFsy3PhvuQ4eUyeakNM0QAsUXdOMKIBCT3lizzDcY3BNZui1SoDoX7wZqI3RPQlM/w/VLZF4koNL1WkEIyEJEdWNciFgXbkbACBiBPgS6d/R7uhnmVjO2RjeMddIsrbI2oQ8uPzUCM4xA0ZwjLEo4rEpax9evlKlI2mbVBajJ6BLByAjT404O2v5JKKxfvxTRUSE3FbGqb99JmSJuCIqTGoD8vmUqDXGkFcVFSuRuFZWfybxzXRaS3xRfQZDyM82fiEGQCBVJi6JlFH6TO1IQwgMHmloPskIENtPwGwEpYGPtQgZEduu72h5qDbzCWlCI4SSQAvrYbFkVqbOsQ7h7haXgD1+qLokIHfEzJgXvu0L8mhGYWQRqfge1vdLvepcYFDQKOSjPvTcCRsAIdBGAHLTZTZICGfODB6nCT/0hvtgSpO9IsKYIWsgm/JkEciDhr1Y2mpe4kUgwRDhkDIwHgXFaGpr9LcpAA0HYLo0xhc9EBjKZmBQzEi40vcRgg7TNfE71CSJl7Q7VKUCoZP6nrWElgdxq7mtiTFgDBB0HMWANj/s6ZkIaQhDWHtzGmLePReA/ldsXwcYfKx6k1CuYtvnzeIyAERgaAu8Qg6Ed2QcyAkZgOhGAHBCMSsVbpatEeK6U8pNsN+l7+agrwLV+1fqqBwKTIFSpo/SZ1KWPHsnXXEKhxkEGpqlraPkVLxKuJhtVuZj6A4flXsJ4S4xBmeP1IgEQASwnbNOoaYb8MW5c4iAEuFVBEAiuD+vXJKzflhSIHOQ1ujZxHZPL0Kovv0hZloLIQITlZxpJ3dRdoB6QEVhZBEwMVhZ/n90ITB4CCI1sGxSUSryBNOsV8QUyQVL8LIQpMrvItSiUmPFnAoQrCYcQgvC1F0FIzxV4isA4ba0V+iO4mKw0uBYpjWkuWYnKfPE5SAT7aW4QAxFA3OCCFD5oiSEWo2gTMn5iYVZrk5UHUhA1JihidkbxQASJK4jczQgYASPwIQS6xADfIrsRfQguv28EjEAXgVbzHJmKlLqywlWF4NU6p85P5yVoKaiVFJAoM6ONq4BFvyRQIRhDZogveKy8/1gNejXo7SimbheCv8YvDvCW6xSvTzspYDKLxQBLF1YCMjQp5qSOSHrh0qT34ZNj2lprAVa8LZtSdfBABBpXf1QGos8+UXpZWYNMCsZ07twtIzB+CHSJgUnB+E2Oe2QExhoBhMbWbz0fkgAlIbp6pKwucsmpcctgTx54qiNHQ4AZY3JAESt87CEGj7RR4ZkAawRH2jQLyWVsZd+MeDb+thaD9ErrlHWrWIM6LEXtvI81CuojcyaSnlXBOB9ScLhqTGRqTHyquIJDB5u4kFmc17GeN3fOCIwvAl1iML5ddM+MgBEYawSwHGxSpiJlrEm/EzmQS0OtQlEdhKsLqh77Qm5FRbiOgYwbOaA/2iJtqYRDCAGuRL3EwILVWC/BJXcurAaKJ8F9KMiglqzWBP/Gt0Fc1GfSksolDMsdKUnJQFT9XrEFqmzcLdI3voNwz4yAERgzBEwMxmxC3B0jMHEI4NvMtk2+zZXcFiRYVQRxyq2o0+bFrxG0eTzGrW6JQU3aVZGCjFvRW0HUY9x5d23xCBSLgdLuRuC81mmshcUfcRm+iaVAp1HV4kxaWUjBKaUl/Z1c+ogrOHZUQeU7mxiRZeiNT2EEjMD0INAlBv0xBjx3MwJGwAgMjAAZa5QOMx8+lKqXLyI7CoJ1h3vJpStKByq3om7AwbhpYtWfYjGAEMjiQdGzhLBI/9lsNRh4KUzUB5lbrFsQV7awGIxzNir1F0sBpIAMREpLWp09lSplH6p+rwxEp05GQbuZCByfqIXmzhqByUCgSwz6Ywz6n0/GcNxLI2AEVgwBrAakQ1Qa03BjUKaXCn99wjgRvi7/1qQBDcsBws2YkYNWQKwlGJYNspB5fVpaGUvsNS6GVl6bb4yQopgu9u023+cn6T3GDxnAjYgYg0hTq2I/YzkG9Yp5gBRskqVAVoF86uOwFOQvP0vp+LGUSEsq96KJr9g9lvi7U0Zg+hHoEoPpH6pHaASMwLIgQL57imEdPx4yTEWhLJ24I2Gmc/lqU0QspC7+8M6YNQRFpe9speYx69wSuhPjYmzayBZFjQby9DNWpmIuURgiUNzFYq+YEvbTYkHBUgRZbV3IghwIn/FbmUyS5qpYCkQKKmUdCivB//NnpSU91VSlhhRMy9wsYbn7q0bACCwOARODxeHmbxkBIzAXAgQjU113twpnrZJmU//w20dYaVwUpY0tlYXjGGMkgvUKzzyexFbGgOCPJrxsytMfPvSx57E2MvBEHIU+G8Sgfy5kMak0n7iJrWWj0NmalGPfU/SMOS/bxAmlmmewCqLUEqaxm3v1MbPpatoooq2idLgMVX/8XVPADFJwYH9jsYO0uRkBI2AEFolAlxg4xmCRCPprRsAIvB8BCY8Zy8GJY3o/p0pkgftMB9kzYg7kutHVUvcLpHprxZoEMP1vtvJgxTqz8BMj1EIGcIsh6JtKzg8UDE5AOBV99bh+qLSyD/W69pFaNiwHjLWvaVrCj13F7NJmFbTbrErJypWftqgo2jZV15V/e9q6NbJSQQbDlYwUthPVNMjWIpJFbvLYWUOYFywF+i9sI6bg07ORfSj/n7+0lgIFGuPGZ1IwUSvPnTUC44hA9w7eH1PQ/3wcO+8+GQEjMMYItJaDtHt3QuBC0q4QVLXv4L5yWY8oIhYxB4xjHMgB0hduMq2rTGi/x6Ff4DNHK5ru8JGXFYDqzSIDCTJw936q797V/p7297S/m2rIgUhBosIv5AACERrzPmLQDjtjLaDKtYgBpCBv3axCWgoyF+mrsQrtlJ/7DpEDEYUgC0pdm9bJmoCgipUh5n6MMWSO6aMCecMyArEZG6uH5gTosLypSFnepUDjk4opCEuBrAVhKTjQ9NukYI4LxC8bASOwEAS6xGAhX/JnjYARMAIDI4BgKSEyy3KgCgcpK+YAaYeYg/HKViQJDOEKH+2yBUEYeKQr80Ey6kC47osE3Lqd0vUbqf7tWqqvXdd2K9W3RQwePhRZkJXgsSwEkDGyLmmr5Ur0Vual3hG0snyNK9FqBH1ZgNaviy2tl6vYRhEAFdVK22U52K2A870igB9JSN2/N2UCYOXukrAoYEmIY7UH7D3HODyu1C9IAe5RGl/stQ6gSSvb49ZSAClYJ/ehffsUU3AuahRUf/5jSqdPhktRkJmxITLjMKHugxEwAktBwMRgKej5u0bACHwYAbSxbPhFh1ZTbkUIpHqtI6EnEZCM0KpsMG/aCohkCIi4aojIZIRg9m1/3/RrDB7hKgQZIEZAsRpYANItEYDr11O6KkJwVdmf2K6JINy4rfcfRrG2sAwojWy3iJfcjaLCb/jTI4TO0RA6czuHq1elGo36apG9NY0gjXtR3i4Lwh5ZDj7an/L+fY2/u0hCPvhR5NPPm+R6BCFE+GYtjFPrWgw0JvWvFkmoY95XspOaDy4BSAHWmf37UyXrQPWXP6SKqsZKT5pEFAqJWcme+txGwAhMFwJdYuAYg+maWI/GCIwdAgiFWA4+ViEmCZYZTbOKM3UkMHZ+/CWlO3JzCT1t6flykgMJYhCDdRIOEWDZ0B4Xt5Jx0shCCnD/uXMn1Rcvp/rCxVSqPL31AABAAElEQVSf/yXVxG1gJbgtq0HrLlQ/lnUAwqXv1CUDEVl4cOWKfcFYBG2upo/j/hXHwOUI169K58ea8kjbfc3bLRGpq1dTOn8hZVyKcC8SSahOHEv5+NGUVHArgmOLBWGuc63E68wtRADCguWgzPlK9CXOCeCaY/UnKhofkKWAasalTgF4ErvD9bTiBGbFQPKJjYARGBECXWLQH1PQ/3xE5/dhjYARmBUEELxwK9ktLSi+5xLCKrTVCGPa1Rf0/gO5vCD0hhYbYIrgOkqQEMTIvqOML1gKyA9PkK1ISwiJ4yJ8EVCsiszEDtRYCC5dTunHn1PnZ5ECCeQ11gJiCYgvwCKjmIPIOAQBeG8r2LIvj9/7wWY+upaF3uOJyrWCdX3vgeZVFgq5vSTFGWRZgpJcmrKsF9WNWymC0FX8LrJVgS8xCKyJcSBdzDGEQFaQxlKkDFosytg+gM0ckC385fZ84dok4iw3rbAUfKJA4z/LUqCqxpDqcNGir+OyLhc+UH/DCBiBMUZAdxc3I2AEjMAyIkDMgTLZ5KNHQjisyG6zXlYDCeSvv/0xpRs31RlppkMQlcD2IaF1KF2XULZKAiCWAjLu4DtPEC0EBsF1HIRXSMFvchH65ULqfP1dqiEFF35t4glkbUm4Y5X0oxFMDIaAM5dgO9fr7wN0rs/qdc4R1gdZJTjvi5bAiKB0ZL3IsmR0fjwf1oPq3OnGN/7j4yrEtachBwi5K9laYgMxgBhG4LSE7rlGPLquAqQsBZATSIEsA9UfZClQNePqd1/oejncZIACr3FYj6MDwkc2AkZgBRFY4TvyCo7cpzYCRmBlEEDTGRWS5VYkQtBYDDqRFrOSu0vEHdyT5htBGHIwr3A7rCHoJMQ7bJAWWwQlSAHWjZUsFhVjV7+IJZDQX4sUpO9+TJ1vvkudr75JHRGEWoHG4TZEnYioR9CLR69o2/u49zOLefyeY5W+QgwQbuW+VBPgTKrUe/dTuikLB1YOZUWqZNXIio2gOnbeK3IACYMsrpQGvBAD+iBiGO47mvewhMTaiz8a13vGvRj43vkOx9cmYkqQcSLzkEhz/lTFy/7rT6nSPssVKwK5wcik4B0E/YIRMALDQ6BLDBxjMDxQfSQjYAQGQKB1LQrfcwll1WZp6qWhJy1m56vvUsJf/pX846MKsVxOlNOoZQkDHHwhH+kVzKSthRBgOVhpH26EbeIJIEm4C339ber87Z+p8/2Pqb6igG1iMiAExBAgkNf9gmv/84VgstDPvudc6n79Sv0qxexEFDq4OikoGteiSmQhfflZykdaTThkcaUaAjfEYJNSsiotaFqj7EtZ5KBruXrP+IbS13btpVdBCnCzyso2FITgS1kJzpxuMj1xbZgUDAVxH8QIGIH5EegSg/6Ygv7n8x/G7xoBI2AEFogAvtSVbkFkXcFyIKJQdZQpJ7THyliEcH7zZuMz/0oCVGijOceIhDT6ojSciTSc7HEjoo/L3QohUArSqD3wy6+p869/a/sqdf7zTRNwrFiMCEBGroxW+ln25fXl3vecP2Re5k2uRcQ7EDtC/YTHT1IHa5DSplYQHx6LHORdbZGu5XYtQgOvtZcJPJcbWd4mNze5kdUQlRfqM30ceisTp/0auS1t0Hn3Kc3raWUe+uJzxRT8SZmHRArIPKTrw6Rg6BPgAxoBIzAHAl1isH379jk+4peNgBEwAiNEoNXWRlCqhKK8tclqQz58NOTpV/nRE1Ab6UzLLatHAF1S1xoBTaXXFHyKxliaWWlnI18/Aip9W+6GIEqNAeoRyEpQ//vrxlLw0/lUQ5RUmCwqG79lIRgWHsMebOmX9hg1yGhEoTXtO9RUkJtRpXFmZd2JvPwIwitBDJhn3HhECtJO/RZup5qzyGGHjE7qc/izlbEsFSPWXLPVcrvKG0SMDx2Sy5BqFPy//5Xy558mXIfiesB6ZUvBUgH3942AEfgAAhgD2NbKUl5+ZT/wFb9tBIyAERgRAq3GNjLZoKWVgFaRKhSLgbTntTS59WWl5cQN5bmEZtxTum0pwloroHFDlLUgYyWQgiSTUhOXEiwX9G25GhYRSAFZhyAFuAz99e+NpYDH1CVA604sQddqsoz9WzQObR/DEtJR7IjGQJC0tkyxNSwHvAfx09jIxBNzT7aq7jgXffIPf5E5DmKgwGMC4eXjn3dqryrP6SmVoVknw2o6FnBwTv0AV1uUAevQR6n65FMFGauS8Z/+kLICsyPlK1Y0Preca3BYw/RxjIARmFgETAwmdurccSMwZQggAKEtxpXjhGodSDDK8veu9+ySxvwfkdkm3VQ6zFeq8ttIVy0ASFqLbRLUEApFAvLmranatycq+GI1aFyJltFiAClAi078wN8VS/APuQ9pq+VKRBGzIAWvEVIZ71LGvFislvq9ts8aQk0WI6o1K5VpR8HVtR4TlFxRgE04RAVlgpLjK8swVtYeRJBzUoNB5DBvlTvRXeYfIgruS20cQ8fSubKCmzM1PU4fl+uQSMGf/5zyuTMpqSAc9T0ivoU+sbkZASNgBJYRARODZQTbpzICRmAeBIoghKZU2tSMxhg/f1kOKrIDyfe/oxSdCc35IwmV4VpUBLbFCFCtoIaQJgtB3iFrAVV7lSmH50FSliPGAG051gJIgfL+YymIIOO//ytqFKTbKmQGIeBzE0sKyry388RY5E5UQwQIMJclpAMhwEpE4TQRxAxJxIK0XK5FnIfAYwq0KQgY61G6qvMnuW4tqTFvanAMCvux1lQFvDqhdKTUJviy3Q4d1FqX1Wq5LVXROf8xAkbACDQI6E7oZgSMgBEYIwQgCGjxJaTljz4SOZDlYLu0qxKc8LuOVJ0/XYisPI2wjOCF1LU4cpAJ/tyquIK9EgZVZTbt2S0BTQLichXfghQQnEsl4+9+SB2sBX+XteCHn5vYiqhYzNjKNkZzteiulLmqUk3dg7t3UvrlfHpN0TvhUUHMRArCz365iIHWXIaIEAy/W+Rwl9bBWvUjKd1qYF+I2UIGzXfYNMdBClT47YjiCUQIwlKgeIJ0/FgQhSAly7XmFjIEf9YIGIGZQsDEYKam24M1AhOCAOQAzamEwizrQRQd27wpVVgR0CqrCFTnwkXJbPebegdvadQHGSPCWtvWSgBVRpysYOfIq4+mmEJXaK5H2dCasxE3oPz+SeMh0DiCjSlcJkvBGysBHSnC9Cg7tZzHbsejuYu4g5sab1LRNuYDq01ozzXfrAMEZsjiKBvHZ63JnSgsR4p1IBC+vqW5wbIBgRuYgJb1pb3qY0ThNLkOVVR+PqdKxv/1xwg2zieONZWMGeOoxzdK7HxsI2AEpgYBE4OpmUoPxAhMGQLFvxphbZuEtWOHZUWQW5E0+rhi5H8rfec334efek0QawTlUu/gQwI0QlvZ9Pn10gqTKlLWiYx/eXEjGjWckIISbPzLhVT/R9mHsBbIakAA8htSwHg+NKZRd3ZUxy/jWqUYClkOFEOSVLOhg49/SwjzRrnXkEJ21IJzSwyyqnInBQRnhHhZkfJNua49VN/oX8xD6fNcmJS11eyxQuTdWlenVJ/gLypYRu2GM219Aqps23VoLiD9uhEwAiuAgInBCoDuUxoBIzAgApADtMVUJcZ6gHuRNMmRYx6hSo87BIxSFfieAnSfNZlt3hx9LiFOQpsEwSyhjAww+aDclCQMJsUZhJ835xxlgxS8kqBJRWMF4NaqT9D5p9yHfvxJ2YdU2E0Ze5pG/+cawyg7uJzHbscnl6maYmhkZPpW1Z2JLZFAnZShKh84MPp8/mWtEWeAxeLQAZFFWQ2uXRMpeNozJ/Nho3llOFVbF0HF+rIC2qvjx1L+TEHGshQEKVAsS9Qn4JyFAM93WL9nBIyAEVgmBEwMlglon8YIGIGlICABSsJWBKPulXZfAcrVblkOyOLylYp+Eaj74/k2MPmxToS2thU4u/tyft7rRHBzxBYguB07Ig3xYcUy4EYkP/NRaqeLC5GsHPUNkQCCjf/nf5WB6F9KUwopkGsRXisDu62UcU3yvsyV3IoogPbzhWa+ZSmqVmveZT2IInjFrWiUQ6X6NpmBcCWi8BoB4aoynR6SDYvWu7aaV5q/vK7MUkEK1F/Fw1QnRQiUbSiCjM+cSok1RiE3AuxNCnrB82MjYATGBAETgzGZCHfDCBiBDyAQGl3dsjZKUJSlgOq0SUHDlSwGNcWp5AISWYt+ux4Vdpv0npKwSY3ZJQc8pkkQxcVj7+5UKRgUATACjznmclgLCDYmPgIXIrTj33+fOhcVYyChuKm0qzF2+xwdnpE/mhdlm6pf3As88n/k4685yXv2ROG5yBgEaRullp1gZ9LVam1kCKOIQb4iq859VZvGXS3WE9NRyEw7NSIwEUtA8LL6Wx0/lqrPP0lZhcvyJ2cbi1SkwSV+pe+77SG8MwJGwAisNAImBis9Az6/ETACC0OgCFWQA1xMVJgsYg6U/jH/6ytVC5agjfXguqoEP5Wg3cE3vLSGGGQFFmdVOQ6N8MkTkSmGY0TQcfnoqPbEFaiycbqh/qmycedrWTyuqXbBY6XFfI3AOMOkIIRtzCXaHj6MzExR+E7+/lF8TEHnESDM3JR1wONhNoih1lYiIP34sZS1jvL5CynLalCrT02a3L5AaPUlYgn2KDbi+BERArkNfSZScPaM4hVEPLFAlNiVUfV7mBj4WEbACMwsAiYGMzv1HrgRmGAEEK5wKyFGANcf4gy2q0CZMhfVCGHS2tYKYo26AFEcTD77+PTjxoNrilw5IvMNVWZFDAg+jsxHaItH2Tj/M7kK3Vahtl8vKXha6UlFYuq7SompvP4akLY+oXOU/Rm7Y0OMmi3iLG4o3oACbz/81NQWIB5Ecxy1DUYlYHNc4lm0hiII+YTIAZYDFWBjDdXME/PI54hTYf2pTxFLwGc/OS3XIQUYnz4V7mlRD2HUVo6xm0d3yAgYgUlFYMS/gpMKi/ttBIzAxCCAhpegZKwHWAHwDVfNg/oraeP/9R/5q/+a0q1bCvR9FBV38zqRCdxE0OyelfCGMEfQMVlwRh1bgLWAfly8JGH3x4gvqC/KWvCEYGONo989ZWImYVgdxaIDMRAWpDGVZaVzSxr7H35QTIkyBGle0eTHPI1yrhhOcTU7fjQlqhLLlajzQBYDAsY7mseqFinQWtqzU8XKtIbOQQg+FyE42VgJ6CeBzCYFoOlmBIzAhCBgYjAhE+VuGgEjMAcCCF5saHnx4Y6N+AMFruISooDiWq4gtbTP6fHD0DgTbFyd+jhlLAYfQSiWIbaAPPgvXshX/V6qqVnwsywFBLYq1qARhmfZUtA/tyIH0srXWHkkjFOzIu/dl+qzSvNJvAFkkG1UVgO6g/Voi1KXquhd1lqp7mje5P6VXsjiQ10DiIMC4KtjqmCM29CniiOIWAKRF1KeYklwMwJGwAhMGAImBhM2Ye6uETACcyBQhET5cpODPnzTlXEonzwe1ZLrn1RJ+PJV+Y/LjQgBrvX/TsqZ3/Vbn+PQQ3k5YguUjvOW3IjOy80JciCiEv70XWsB2nK3gkDGreqZhPCrcik6L5ciMKPmBEXuELxHqY3n2JHOVtYkWQSIeahkvahX5yiql3fIremTc6lSwTLWU6LuAVmtiCXAzc3NCBgBIzCBCJgYTOCkuctGwAjMgQDkoMQeIDwq7iAp5qBSzYNaJKG+eDner9A8n5bFQMXS0obW3WOOQw7lZXzSZS1I8lPHStCRkNuBpFCYLRqEwKSgBaPdgYeE8xfy67+nLEXXfkuZLE5YeEhVSwwAc10I4dtfXvozjotVAqIp97T05EmqVHiuFpEk41WmCNunshRgeSKrFaSAz0Mo3IyAETACE4qAicGETpy7bQSMwAcQWKXbG6kuVdE49viK31U+egQ+KidjKSBoeZRaZ7oIKcCNSIJlFC9D6/2LYgx+k/b5mVxlutaCD4xn5t6GGEjQrlX47KXcd+7dkUvRhaZCtdx3kmIOlkUQh3yIXObjx4KIYCWIOcVl7YDiWYhPIZZg1K5NQsPNCBgBIzBqBEwMRo2wj28EjMDKIIDAXymgeKtiD3DvQJB8Jg295PRwQyHYePUINc5l1BCDqHKsdKRUOb50JdU3byn1pZ7Tl5kqZFZAGXQvciCM6lrBvo8V9At2v4pYyR0rYkMQ2kedSQqBn1gVrafIQMRcQi5xZSI2hXXkZgSMgBGYEgRMDKZkIj0MI2AE5kCguIQgyBUhkirKo7YUlO50g47lhnJZgu0VZSGivgKEIRqacbf3I9BglLEcPH2Z0m+KNcAdjArR9+XTv1ECO/PKHI+qlWNDAAgqLvPG+inraVTn9nGNgBEwAsuMgInBMgPu0xkBI7DcCEhoDHIgQQ73ouVupaAZfvKKKyDGoIktQOgdoUC73OMc2fnASHP38rViDUSubsjaIotLvqdsTjtlBdrcEqwiwI+iH7F+RE6wHrgZASNgBKYYge6v5D39aOX2xrpG5tl10sKs8k1wiqfeQzMCRmDkCBQ3IuILqJwbxOBGU/k4/Igk8JocDDANIgdR1+B544J1+04EcicFAUf8hn+rBsDQHzECRsAIvB+BWr9VbK/kKsmv0lutkIO3XvQTI2AEjIARWBwCL+UCo1SX6dYdabuVqpTMRC/0mgnBgHhiMdDGD9crWQ0gWRSsY9PjiN/AXcvNCBgBI2AElozAO8RgyUf0AYyAETACRqDxRcdiIK12WAuoX4ArzBNpuV8jyCLwui0EgUBM1ZDr68ro9JviDCBcpIE1MVgIjP6sETACRmBOBEwM5oTGbxgBI2AEloAApID4gqfPUiILEVVzlVknYUEIBXerCV/CKWbrq+AlTJ+JaF27kTpXFatx/0EQLxOD2VoJHq0RMAKjQ6BLDPAtcjMCRsAIGIEhIdASg5o0mwo4jhoGpEuN2ALfbxeGco91BYvBNVkMrghTuWVFILdcjLrZghZ2YH/aCBgBI2AEehDoBh87tqAHFT80AkbACCwZAQn/HSwGTyPvfn37trTbEAOKmqGTYYMg9Ai9evamzfX6m09M16MPkSXMLBQ7k+uQMhLVt1Ws7oFqQciCEJaZ6QLDozECRsAIrAgCXWKwImf3SY2AETAC04pAcSUixgCXlwdKr/lKbkVBDEh72UsKCgko+35Q5nq9/3OT9ryXDPQ+Zhzledk3xCCJayVZDdJjBSETiCxikCFgbkbACBgBI7BkBEwMlgyhD2AEjIARmAcBCmFRhGvzppS3b28+iBzbkcCrIOSaQGSCZ3nORotd+/jNC/FobgtD+3Z3t1Jkorff3c6858Ecn6PbpM5mq3LK4LeqbHpv9dqU124Qllu1V9GxNs32e07gl4yAETACRmCBCHSJATEGve5EjjlYIJL+uBEwAkagFwEEVvLrb9mc8pFDqVKtmHr9BrnAKG3pM7nD4AKD5js2PSaFqXJIQxLe8AIeFQG67JGcSyuPy768Ptd+0M/N9f3yeulLed67f9975bWy7/08j+mXNnYiAlmEIKoKr12T8joJ/+vXp7RhfcrrRbA2iWBt25bymdMp792dsl5fkcJ1dNvNCBgBIzBlCHSJQS8pYIz9z6ds3B6OETACRmC0CGRpuVfrFosQ+/GJIAn5wH6lLlXA7BPFHTxShiKl26wfyU9ej2u9lp6LMJC1CCsCJOG1trInwxGkAesC8nVJGFFk7dgjWZf3yhvNS83f973W+/4QHrddiCMVbX53r1d5HJYAkSbwgTzFvn28ZnXK2rCyhNC/aWPKW7Y0BEtWl7R1S1he8uFDKX10ICwxic+7GQEjYASMwJIR8N10yRD6AEbACBiB9yAQFgMJuTt2pPTJ2ZQPfiQCAAnQhn/8A+XgJ4iWjRiEh3odn3nSm1LRV/tan4vXKORFRqNCHFrLQrgeQRBwQeI/j/U/Wi0C0X3SvtZ9Xj5UXl/oHun/LQbQHAAypHEHD+APG9r/sg+3IBGBsARI0y+hP22U4L9xgywCcg9qLQNhHeA93K9EBNKO7bISbBUpkPvQ5s0NGeDxTmEri0xas6Y5x0KH4c8bASNgBIzAWwiYGLwFh58YASNgBIaEQAjDEpQRePGF37mzsQa8aIT+DDmQxSCLEARJaElAEAJlMgryAFnAqkAhL9Ke6vVMMDNuRy+xKMiKAEkgXScb1oR4TY/DwtC+hgwfBEKVg8PigNWhJQeDcgSOITIQPv+VfjoQ8qO1gn9X878q5W5MgD63urUIsF8loiRSENYAuQSF9h/Bng3LgEhCEkkIohCPsRboc8ViwHeEZwJPtmJxAGs3I2AEjIARWDICXWLgGIMlY+kDGAEjYATeRqCQg7JHmMUnfjNa8FcpI9TjOhSCPnu5EmlD+MfdKMgAFgbIA8XRSH36VO/xftnaWIW6WBN0rLp9L2IZIAzIzRAFUn1yvkIq6O1CiAH+/6sl2CtWIoRyjsvYRAoiFgChnpgA3IEYKzEBWAHWsem5XuvGDEAEcAsKC0BjOYjPxuf1PQiELAFxPlyFIAGFCEBK2Dh32RiLmxEwAkbACCwJgS4x6I8p6H++pLP4y0bACBiBWUWgCK5dDbsE3t4mzX0Obb60+KTdDLIgwgBJUGByDjIgS0EQAKwFeh0SEFsbvBzxCW/eq5/rdRGIcEvqJQYiDEEgItBZ54IVDEoMcAmCGCDwo80P9x0dgnFBDNZL6Mf9R4J9iREIEoSGv5CDVtiHJOA2lDc1LkRBIMjcxLE5biEArWtSL1x+bASMgBEwAqNDoEsMRncKH9kIGAEjYATmRADiQMMVpxWy0xq07fjgy3VGmv6Mtr+b1lSPiSnoWhsgCbIgYGnoea1LIPguDRcirAmQgi4x0OsLIgZyJUK4R9gvAb/RZ5EDtPv0mfcR7BHwEfbDUqB9CPto+ptxNu5GuBe1G8cpWyFTBZsYgP8YASNgBIzAqBEwMRg1wj6+ETACRuBDCBQBOPZo4Of+Qksj3sQThIuQhP0gDxAIbSIIkIQaogAh4EvsZT3IL5v3g2jMfZp33ynCOoQghH86qQNzbKwJxA8UbT8Cfje2QJ+HFEAIyjjfPbpfMQJGwAgYgTFAoEsMHGMwBrPhLhgBI2AEBkUAIbtYGRC8cUcqWwQYty5KvBZN+8he1LMf9FzxuR4SgODfK+QX0lBeL8/ZR1aivs8v6Lz+sBEwAkbACCwXAl1i0B9T0P98uTrk8xgBI2AEjMAACBThe4CP+iNGwAgYASNgBAZBQGocNyNgBIyAETACRsAIGAEjYARmHQETg1lfAR6/ETACRsAIGAEjYASMgBEQAl1iEBUzeyDpf97zlh8aASNgBIyAETACRsAIGAEjMGUIdIlBf0xB//MpG7eHYwSMgBEwAkbACBgBI2AEjEAPAkoZ0WSxtoWgBxU/NAJGwAgYASNgBIyAETACM4ZA12IwY+P2cI2AETACRsAIGAEjYASMgBHoQcDEoAcMPzQCRsAIGAEjYASMgBEwArOKgInBrM68x20EjIARMAJGwAgYASNgBHoQMDHoAcMPjYARMAJGwAgYASNgBIzArCJgYjCrM+9xGwEjYASMgBEwAkbACBiBHgRMDHrA8EMjYASMgBEwAkbACBgBIzCrCJgYzOrMe9xGwAgYASNgBIyAETACRqAHARODHjD80AgYASNgBIyAETACRsAIzCoCJgazOvMetxEwAkbACBgBI2AEjIAR6EHAxKAHDD80AkbACBgBI2AEjIARMAKzioCJwazOvMdtBIyAETACRsAIGAEjYAR6EDAx6AHDD42AETACRsAIGAEjYASMwKwiYGIwqzPvcRsBI2AEjIARMAJGwAgYgR4ETAx6wPBDI2AEjIARMAJGwAgYASMwqwiYGMzqzHvcRsAIGAEjYASMgBEwAkagBwETgx4w/NAIGAEjYASMgBEwAkbACMwqAiYGszrzHrcRMAJGwAgYASNgBIyAEehBwMSgBww/NAJGwAgYASNgBIyAETACs4qAicGszrzHbQSMgBEwAkbACBgBI2AEehBYXR7fu3cv5Zzj6Zo1a9K6devSqlWrytveGwEjYASMgBEwAkbACBgBIzBlCNR1ndhevXqV3rEYFHIwZWP2cIyAETACRsAIGAEjYASMgBGYB4F3iME8n/VbRsAIGAEjYASMgBEwAkbACEwpAiYGUzqxHpYRMAJGwAgYASNgBIyAEVgIAl1igG+RmxEwAkbACBgBI2AEjIARMAKziUCXGDi2YDYXgEdtBIyAETACRsAIGAEjYARAoEsMDIcRMAJGwAgYASNgBIyAETACs4uAicHszr1HbgSMgBEwAkbACBgBI2AEugh0iUF/jEH/8+43/MAIGAEjYASMgBEwAkbACBiBqUOgSwz6Ywz6n0/dyD0gI2AEjIARMAJGwAgYASNgBLoIdIlB9xU/MAJGwAgYASNgBIyAETACRmDmEDAxmLkp94CNgBEwAkbACBgBI2AEjMC7CHSJQX9MQf/zd7/qV4yAETACRsAIGAEjYASMgBGYFgS6xKA/pqD/+bQM2OMwAkbACBgBI2AEjIARMAJG4F0EusTg3bf8ihEwAkbACBgBI2AEjIARMAKzgoCJwazMtMdpBIyAETACRsAIGAEjYATmQaBLDPpjCvqfz3MMv2UEjIARMAJGwAgYASNgBIzAhCPQJQb9MQX9zyd8nO6+ETACRsAIGAEjYASMgBEwAvMg0CUG83zGbxkBI2AEjIARMAJGwAgYASMw5QiYGEz5BHt4RsAIGAEjYASMgBEwAkZgEAS6xKA/pqD/+SAH82eMgBEwAkbACBgBI2AEjIARmEwEusSgP6ag//lkDs+9NgJGwAgYASNgBIyAETACRmAQBLI+VPNBWwgGgcufMQJGwAgYASNgBIyAETAC04lA12IwncPzqIyAETACRsAIGAEjYASMgBEYBAETg0FQ8meMgBEwAkbACBgBI2AEjMCUI2BiMOUT7OEZASNgBIyAETACRsAIGIFBEDAxGAQlf8YIGAEjYASMgBEwAkbACEw5AiYGUz7BHp4RMAJGwAgYASNgBIyAERgEARODQVDyZ4yAETACRsAIGAEjYASMwJQjYGIw5RPs4RkBI2AEjIARMAJGwAgYgUEQMDEYBCV/xggYASNgBIyAETACRsAITDkCJgZTPsEenhEwAkbACBgBI2AEjIARGAQBE4NBUPJnjIARMAJGwAgYASNgBIzAlCNgYjDlE+zhGQEjYASMgBEwAkbACBiBQRAwMRgEJX/GCBgBI2AEjIARMAJGwAhMOQImBlM+wR6eETACRsAIGAEjYASMgBEYBAETg0FQ8meMgBEwAkbACBgBI2AEjMCUI2BiMOUT7OEZASNgBIyAETACRsAIGIFBEDAxGAQlf8YIGAEjYASMgBEwAkbACEw5AiYGUz7BHp4RMAJGwAgYASNgBIyAERgEARODQVDyZ4yAETACRsAIGAEjYASMwJQjsHrKxzfbw6vrZvx1J6WOHsdz9gPCknNKlbgj+7IN+FV/zAgYASNgBIyAERhzBJALytaRrFDkhg91u8gEISdIRkjICXwp/nzo235/jBHoEoN79+5J9msmdM2aNWndunVp1apVY9x1d+0tBN53MfMaF/rrVym90vb6dfM8PjvAxcv8ay2k1VomEAS2/taumf6X/dwIGAEjYASMgBEYIwTeJycgI7AhI7x82cgJg3SZ335kg9WSE4qM0E8KLB8MguRYfKbW2mB7pXXQJQalZ4UclOfejyEC5eLuvaC5qF/oon7xPNXsucDZ4vUXKT3X9krP+U6xGMx10Zb3ueDXrm3IQRAEPW/JQl6n13lPBDLIA6SB9zhm2cYQuhXpEvPFBjGLjTnQNvKmuai0MS/lxj3XnI+8LyM8Adh2WmxfteR3mKcraxscyxof5vH7j/XOetGY4jV9UNO56Mbcl7GwHpbzOo050povygn2vDbMxtgYF3PE4+Vc62V83G/L2IY2vgm5jvltiftbey0ObfwfWCRlTce8M/dLuUg+cK5JerusySInIA+8aGSBmv1LrVXWK3IBj3mNjXsobS4Y47LVn3K9IRsgD6zh2tOmfUY2WCvZIF7vUy4u532nGYn/LhABzaLbRCHAxV4ueC7o589TevIkpYePUrp3P9W376T67t1U63F69CjVT/X+82cpPdOei78Qgzl/NDl+i0ghBrrI8zou/nUpb9iQ0rYtKe3elfKunSmxbdma0vr1b0gCN2ha3Fjmurs0H5mJv8wXN+BnmofHmivmjOeQg1HcJGONCFlu3Gt1ia/XnG3e1MxPWmaBadQTzFgRRkSI09OnwvexHuu6iEXcrr051/o8neO4NHZrtfY3Cr+NwhEiPGpy8NZ60Xi4drH64Q6I0LOQ8cQw9Idjcj2v03XKNbxxY0PoGeNCjsfnF9o4N/cdBBPmiOugXAPlWIvpQxlbHEO4ME+bNE+Mr8xTOf4o94yP7aWEKu7DjJHrmzHTFjM2vhfH1T6uY42NcW3erHFK6KIt9rjNt4f/l+uQsZcNDGhD7yd4N4eO35g1wmOD1nOZ96x1PvRztueblB1rh/lgDoIM6Jp7+DAl5IPbkg/u3E3pwYNU83v05Gmq45p8HzGY4/eb43MvgojrustcbxvWp4wcsFXywc7tIRvkXbslL0g+4H7De8UDARxnfY7GeC2ZGIzx5HS7Fj8QuhDLRR4C5uNUP9CFDgm4KxJwXxsX/c1bDTm4pwtfP1I1P8BYC4omIH6rdKy5LkrOVRo/SGgBdDFnBMxy8W/blvLe3Snv2ZPSHl34O3akvEU3A72etm9NmR8vhCh+wNAgcJy5zlfONc175o25uHU7pStXmjljDrlx51FgozmUEJmZu026IWuO8tGjulmLxHFjLsRt0jEv1wVrW66Q9fUbKV2+kur7DxqhivHFupvjx22+8cd10OKIsLl/r9b83pT2aWN9j3JNtwJWrBeNJ65ryD+avFULXC9xOTOOTsob9cO8W2uBcRzYrx9w/WAvx1oAS8YEabtxI9U3bmlMt1PNmKJ/ZZ7mm5A53uu5X2UEkkMHU963r1FYICguR6MPXONad/WlSxqj7sEIYaxLJNdF3/uYN31dAlfapXssay8EsZYYLMfYFnIOfmtuXE/1tespXb8poVPzzXUyp+p5IQfv/axwKfMubOO3Z//+5vdICqu4543y+uztyjg9hoiyse5QJjzWbw5yAesSWQEycFPzot+h2HiPOXryrJETwtNA67gQWsY219oFf97jflQsBOtFDiT8cx3mXZoHlIf7JCPodydDDpAPiqwQ8oE+j7JiFudqnNbNe/oiyaFp+BbZjaigMUZ7LkA2fnj4IeXi5scVAeji5dS5cKkRiPRDVCN8auNz9TNpbtBg4WIRNwwdA43jgpoufO7raAa4eNkkSGRpHfMm/Qhv2aybgISk7dtT5uL/SDfn40dSOqwf5wMHGkEUTcG4argWhMUSPqwfzCBs3/+Q6r/+PdW//KIbtYRXbsShfQbkhc7NXP3RXLFeJFGE9maH5ubsmVQxbwgYleZrOYTBubo37NcZK+v96rVUf/1N6vz3XyWcSZhmzfNel3gNii/40Un9waIjgRbLWHX2dEqff5Ly6i8bgjxKgiXNOuSmvvBrqv9H4/nx5yD76anIJIIh1+EH10vPOLjudR/IO3ek6typlD77tFkLkMawQOjHeZSNeYAYSBCJsXzzXepwLdwUUY550skRMkIICfAH6E3P+Di+tnzwQKr+8qeUvvissWwuFzFgDLhw3riZOv/4d6o1vvrK1cZ6wPqjdQWsQcfXfI1pzhKwYt4+17xJsAoNrIY/dg0LNWv13/9Jna+/bea3q71f4LjnHBzzznwLczDVtZD370vV55+l9MnZRhmCgNpdT3MeaLreKNcYCieuM63FUJKc/yV1Ll9tnkt2CIKAnCBCEFaC1/oNQraIe4Qw1f8P31t6oIs5YB6auQj5ABeiDZukIJRCBZKAshBCoOszf3wipaOHG/mAtcw9CPmAe1r3Guk5vh+uCAJdYmBSsCL4z33ScqFjfkfwQZBEC3PpckoXRQYgBdrY19K+Yb6tpSWon5cLXRf7W37sunAX1coNnX1zjLqSDyHmW0z36+VmJI1q3i4rgm7Q+fLllI8d0XY0ZWnvEq9t1w2gWBBm8QYAAUA7IzLX+UY/mN9KcOA5mh1hOZIboua+0TRKqEA40Y9mOnyoMbcvah2M6Ze4TrhGpBGrr/4mbL9PnR9+kiDK+qfP/OAsou98VxjWnZchmCH4VQiax45JM9lqbhdx2IG+gqCJ9vWOrCAiBx0Rnvo3ER+Z/XOxwA10IMbApnFIMK8OSJOua7baKy2e7he5COWDHmspn/v/2XvvJ0mOK88zopoQJMEhVEM1CHQDIDnkzOzejt3a/vn3w56d2Z3tjhYkCNGEBhqKACEIoDPu8/lGeHRWdVVWRKSozKrw7qhUES6euz/9nkP0GywezRcwJQpx//lqtRCXyZQ4h2vNE883CD6fgHOuo6VEQVG9+MI6vR33bAQD9rKunLffYo+zv9+8jWWQPR5mhwU4ZQ2mFzC+L6BoeQz8eutmC69UNrnC1LqNPw2Cq3tw8fs/VIt/QkB6H8tBLxhssEWXS8vBhqGsnwevYc0+ggZVzz8XATiMprTmUhfXPZcuwhEIUCZ8jLVKPPhHeAQVC6+jhEJIjYuxVoNvWafQnUacKY5sEQSvZT2V1zGAy4R0dbHPoTf1tQeqRob/YbwNYP5jRZAXYO/X77BPsWDXzFX4gwgICBHGI1xF/mAMqHd0by8Y7Ki9uZkhEHCze8k4Kv3LFLz+RtX8/jWYBIiOwoAuRG70rzEFykRA+Bul/rs+SyONSHFLiNEmREYilu/QUNCHBleOCleO+o3bcV05evH5qn7lperob35TVS/fglgjJKC9vlSuLEPm0nvUlircqQXG3Wvx6acx84ahrd2CImMnbZOFDAOsi7oBUetTijavzjqJSmiTDV18Xe6VMGdo2vWXZazVD+wd90P2wFj4tsSxqZi3BgLKFC10AYPgHrnnsMQl+H5bI7fbXmj5G9wAm29YO18j+OgaUENoMyZvWFUKgWcdWBkwWnz9s+rIWIwSoH1eFauqH/ObxF4Li7EuxGo0Dz6MkICwwlxV33G5PyqtFtPmCUAxPur4Ekb8Cy7dI8L0jOnkGvd2ay++9V/S9p+YKxU5X3L1DNeE+hUqZKxVLKiF1fqqxSjCxoT6tv0IzGbj2BVomYcm458yr6s6WtZIt3iFBYqpuMagEa/BswmmLVbqVVUd+m/iPfeO6x0LQQQBrXEoRhav3275BhVQ/q5FS5odywADDxnYkqVQdHOXBqQ34mG8F+LeiQtTjYdDrTsjXgVHr7xc1X8HfwCfUN+QP3gM4QA8EYu28zyXi4LALBhcFOTPajcCAYRAZhvpv1LyRyhY/O73rWDwBwQELQcGFRt8HA6iUHg3k8JAeT2rkXW+d9fzvNYIkYwEnq6w+1uC+BGbX5M6vow18Q5q0Y5ghqtfQSTRWGsWj4927xKxTl8O4Fnms4FJiTZNU7tMK5rfxH4k+4MYuiDBMo+bGFc3T9doS/eyP0Mc0Oi1TNgm6t+zOtw3WY8QSghgqxETtmU/2N+h8C3zwdqu2GNfQdjuEL/DvqsQshJgaryNzO7WmDTnzzExHjXtMl0wiIh5/CsC/1njKf0vY45oUNVo50OwhdNZj/rIposwktjLrOk6oPXQzzDUmScZll4wsPGhnSvj9P4fqhqtqVaVCBzArBZ+W5sf+9kVBQOYoAilKgAUeGK9hSnq93a5ecSrlr5rTVuDMDPWRby5b0U4y6Dq1y6u0VUF+qRQO21ezxpgmW9/d867S4FZF1uUZUnuoCD1sHv/kpYCb70EZPy1EERx+Ie4sS2wEize4TsTkMRNiLkJrIRfwYe+L9em4cS8pI/MAYrK5jvnCdqjtfCjT6saPFobDwZ/U//p85Y/+DX8wQvwB8YsGsP1AOv8aEuCy6aHewnr67HMyRgDP89lxxAQ5hIZ/f/QUDa/ww/3f/3vaqF7hAKCQXsweI3mQCXy+zZ2QZzldRv9X677BGJxyUjszXSglUMC8R7BaK/dRjPwdnX0t79t/ZvRFlQGK192rY7zqQAlcjYzlBoUmaBYdQpzJ/IrMN3wnlvQBoKbweeN60ZXlGhnt7EuLrJO4CcDWPxcQ1AKXAshtH9D4VvmA5O4j8m3fsGa/hjGQ4KmxUfiVXzYN8182qh1ctWa5dG412qOwzz7WtbOWeMp/S+/d8ylz8tsJq6g3EN1Oyq1gYY//THBojC4MroKV+6LqC8d03njOtnRMgZxIXX7Im6UQe1dlPhu0/NzshvuKZi0aGYVvnXTWNi35TGdfGjA57hk4LYJnPTXrh9BqNKVbN+K43ceVWZJu6KAsJOuVa8yT2U9+tuUUuopzzrhbE5j6bSsa6lQ8QKejZtcue2yvUYIQwjWSmCsDvEccd3SbQj8pLDQfO0eYF4CcueglALD8lq+3+Rrqbu8Ls07bxPbcOfD6u7XWLFxN5M/ONKS8F/gD4gPigIx/AH7Z9t7d5PDvkR19VjmZIzByc+XaMz7ORSZSF2HZODwvW3+9d+qBj/NxT/8I2ZBNrzuIGqiemHATVeuixhS2fTltdv8jqNobNG0Vp/+qbqLC80RWh3Tpx7JGKPZqwlAiulwm0GcFwGW5TaFhUjceZVx8IpvJwQNF5+WcViewwLL5Uqmvqdtp4T2jT1JqjqJpgzTZSwBI39kfPt9UWBb4FpehwDAewUgRBWQRRts8N7777faLjNymWljm4Hc6T5/Th2TYzhvPGUM3WuEDR877znr3kIxg4kpDfU5RjBIikOEuFZssU+lX+V1aB+cczSTP3DpSgZzGrc51/ouXG9sRxcW95d7XI21Vplj2tmhYyn38bwCrsoTBVASPcTaonC1b0Uc57i1SupKRZabVnG1vBft9Nh5XTVQ6xLGFOAfgYQEHKbebOGv0HDJikpDYc04415soPc//HO1+Nd/R3mIi7HKuAim4njhUy7hsEnYW995Zbm98t754tICqreD6+TTL6rF51gLFBK8GF/27gvEKZIs4Uq6Hp8H2h383gsGO2hrbuIsCESzzIbRDP4WwWv/RFaH/+t/Vs2/IRx8QOCQvul/ASHcR2jKhjur4l1+v9yX7j1DiquAfvVolKLJQKtzhK/h0d3/UdWvQDhMYbZN5mqXIDjZltYCBQEZ8z/DOCgoGRyutUccuW1kzbrSdaTWYqBvvGb+uG2c7Ohl/RwgTxxceZY1qhWM9bv4Ez7MZDyqzThz62ZrfdlpsFzp08QhFUZKfHMRRVgVRrdYDDa592UQZU7175dJNyBTptp2t1kUvmVIbVtrqVYLmbh1SxGkzO6iBjUxBnsqGDj+Dsc0MnxaKreN3wJf1rLudloszMQXq6yC2Qbgv+78bfr5TgBLcDHZ7Rb/+5/gFeAR/vgW+B1rSSw1jtv1Xuhxed10Z6bUV/riKxdTZ1KECneiu7//fVX/+cvEcB199nlr8VEIvsz8wRQQ7uiZWTDYEaBXNhONE5ouGI7Fv/w77kOktPxnhIM3sBR8C6HRJBiT7PKGX1njBf5YNj9dKAIP2iQDKGWQF3GDQiugBgxtXv3SzVarJ4NwUZrMbUFLraHaQ7VpulXJOMiYBy7bavREvRJIiaXmZf1RCUKLmT3a46W5OvHY/HEJAsyXcSK1vswfmqedIPsIWcyt63bbjGcY+nWYeZ+VCrcvSyPb7VthZcpc3WJMY4jloIlrzIbWoXiSPZZARwMuZRZ1V9p2kbnRUmHbvpr1ZS3GtJ0ozyFJykctU+JLD4jaR79r6VcHd4OPIxwJk10VYa07kYKglxbateC/q46PaEeaIR35AKuAWZ/+F54EWgteux3Xxsbge+/phYIN7akRXRx2a+mXr/RX3KriTKEOWrmQPkI3e/7g1i3SnsOm7lQBM2wkl/muXjCYYwwucJpBZs0HBAv9B76C//P/qZp/ZMO/h6VAJHfXDeQ0+ep1SKX0V4EGBGDAtMIPmgBPUI4eL24F+M5KwPcxsG4dcEscZcr1u8XqE+HAIFLx9y6KDRXBwNSJaGLaAGSQrwzZZRPEtgLTdg0b9KtQ5TkinkkR7aj7U1e4y7ZutwJHKkUw0IVIF6zk4/eANdMe93jNjVFwxthO8JwWAwU2XRMUDJwvtclbLknD2gkGYUxlUtdlTAWDgoE54HGpiIAgjtSKsG8lcEcgAL+YnS5uPQoLWy0FiQIoleTfi2uBu5aL0M2OUb4MOC54nPGo3CHesFEo0KvgNRSHrnct071rqkCfuoe2OmGnVF762So8wx+Y0vsasVWcRXHkFP+Us5JMWJC1j2JhLjuBQC8YnIwpOPl5J725ao1E0wGjiKtN8ztzP/8r7kMc0vTG7SDX45aCgggPDUhufi/6r2+hiIxcxosf/y6m8SNzG7vxPY31sjFYhSnXUoB7Q5tGEy2zsAhMCmz4uK2iRkYNpjnWNdGqdVKzuo+ax23BYO16u3n6DsYTV7icbMvZIbWuE2pxdY+5DAzI2nA6pwItBsLL4GOFA7XgJbNT0FvBccJ7QnFd644JjkmgvYziugz6ud0Qr8EE265ac5nSBB/Lra5ZFAw4QFLh4NhBUGtWu/HH1fLiuhVX0eLCdWpyjI23TIUwlcUyq3CG/31tH4rV4DJoml1PxhXINBtoLI9gMhIzMUUoEK47oCXbmL6+3+wjhLvme3Dqu5yF8fB/wh/8tDp67tk26N6YLl3p5rITCPSCwU5amxs5DoFuw3tg2UKfQVyIFmx+NS7JXNNndCgE8/jjh/WpEPsjzO34a7+NnzYb3yPTG49R/zGb3nR8l6lAHHPoXMzsaOwNjjOvc1Rcaj8KTLYxaOrOsoFBiWCAFvUzrvihQsgbNN1zGQgB54l1+x2MJzBcfHCnOvKQrhdJt6fWuxCsWThYDU+ZNDV/wCtCgdbCByFBZEnKGSxroTnqkBllfScrmutcwSAM6upuTf+VDqvNVWMuzpY5RjBoFBT8ft2iokQYKUAZK6F1JYHo61a84ec9M0IcJ35z/NK1DH+b+M0xWL9rh5dvUbAZx6Vl1DSdBc9x7sfBC+2mwH2LhCT/wRkF/4pQ8NobLS3pLQUFFr4eamlxrL1vvsLl+I/vgicQilEcNiYsUKGgtXGrNPNQYbf5fu+hXXLzg9zbGnEzic+yOYjZ9A1nFMTdI3529nrbiHXXkGkRefzuNTsrBP0HplF8JhvOPYgP5S59U7c9/ATFMce6EqFdDsOydRP78qCkzlwQ6mhRtVpoMSjatOVb5/fnQABUqaDnXJKu1H1bEUQft4Wta6XP6dqh/KxgoIXgIYk8DK+E3s/R6m5gEM6DMUxfIRToUrJti4HMv/jK/WR7XsYUKYyEMV5nTLhTIBgYi5HsVx4Op6AgrPasxJUKi0nrvgUsnIe1xz90kMBDi4E4zr2pZZQ4h1hutCBtQkAb2pVN3yfjT/aejMnMhP9BatKSklTLVA/jy8IndMKBbmHyBypMEYQaD3UlNeul4w82vV42WF+PZU6eW3Dy8wbbnKvqIKBrSfMGh5H8jnMKPL4cRqPBXUHt5KUuIOsc2IQ/ag5j+d2rlVaTCveMENnLMniZBjVX0aZh3jYAe9eCD8SjJdzfVAtTCUo8jXvYge/1ZZnGVkCHaIUBQSP6Z5gPc4h/9DHWr25OD5kB2dVEaVExtkXXKzWACgjHmN2e0xnZIxkKLg9TIutXDhP0UDqZp21aDGSAFQpsxysCN3s+HNvUsSw9p9BkVpZHuYqP9T5apcBpKhwSeC1+21kfu3kPjnMe6IPKD138DGi1L4e8L+2/QbkcBBZX4/9EMPCcAoWwPuuTMLhMhfHIH3goKAfWLbSS/PO/VdXttxLfdan4gz2etp4DPRlTcPLzHo/h8LpWCIrajTcRCIwpUChQ47T1DS/hGXptCbQ2LwwYb/MBWV70lzTlmlpYCexlKCI3XQzU0MOMZ6xoMNfLVjIWMB3hlDlKELR+0AgoWWcyMHMZDoFCsICbpn3XLXnDK4PKha1EfC6rISDDWKwGusZ4KSSYltBD19Yt4hXxpymBFdjce9ucl7KvbMcr64D27UdKt//Kx6GveYw/woY0pbXXPsaxyHRrARVny4yjAGnj4oYOdEP32Q8UHc337ENxrZdCmhYDhflDLVqf1Jx7srF8AqmSk/VJVy3p51aK8Dp52dbytfz7Fjph9cxbBE3jEeWP3uQS36pom8vWIdALBltvaW7gHgREph74pSZA30GCbUJYeoqyASJ5r7Xu3fJmLptcZubkVX4r999X0ZpflLHhGyrjbFDVnY+wmCAYvEMmJgnsoZcQKuAoYle7o++rTIPzLnjjIlbgsIPB2h8ZJNM3mk4wsQ5apuYyFgI4eLBXcQ97F8HgLQi1Ar2MiHMrnOeyGgIKB1oJdCMybekx3/kNwU+8EtcW9p3+79sqMmdqpmlLy1HSLsZ9hQaTJWZiw8CoNlAbK0FOifYcg3092EyhwIQSMLARkmVad1oKHhXHMe9aDZwLBIPkyD/kPQlsTY1cySOYpdAT1xV4sk0cdxn7pgBuxV6FBzjJGyx/9p5yfzq0qU5Qj+OCNS0HFsInGVcR4UiBfy5bhwAYei47h4DIU02AZsF3CWK8o68yG37jG92RlU3bvQaf8Ke8Hhu8X1K8VU3LfUi1+z03rfOnqwfTvwxzfCgVChCQ6l/DuF4HPhLGPfSnHTRq4SajqDCgu5hXBAMQa2C6KTgO6k3bpsyS2hbPMlDLvXMCPrCve32b88al5UdXIlLv+loLTwPndY+Zy7kQCNNrUO0jBNWagEA3GRm6TfGUCsEy69Ecf7+9cztsB0VG2lH4d3+tZaEQ8XKJ97AQ1DklmnWl8CQ+3LfiWCMYoNwxjW/wyhYFsfPG381HrEUKbJ6um8jk8x7cw9+lE8L2I3gELQZmLtQlVcFzm3xCrHrgOFGdVjw/Lxf7lYsvC4/gsu3Lifv778e+oR7bIfVv4vPkD4BDrVXKeXaPnOzb2Cbm+8+EQC8YzOcYnAmjzf+gJsBgGhe7DMbnINYcfOWm2tTGstvu2KWraKLMhe21vLFKs96OiTwISFN5j1jLDeXV+tcsbPxG07/+wAhJFRvfPPHVs2x+GIaDFQzUJEqU9A/VxK5GTWYy8FwTZlMeD5w5VA7GxZSlEQ5mwWAKJHnG7EQwP/q/4k50pHnb2JgnnsDtY2KVV+2xWAzIQuYhZ2jDzUpWfSnjK24RAVmm4hmeVyjXIpt9B4MoIyFjvYzv2kbW+0u9iWOQYUMIibXTtmRoJvefJ+lrhAItBbGqAJ99FAxiMQGnaPXtBQOZ8fXAOv5p1wqXdEscJ/OoZhmcuz2Xm/G9HPyE60fXKIVOzkxJYg7XsxntNu5CVCaLV0BYyxdonSJVbix7Zd+4d7p+ZT/JryCktHyLdXg5D5by2n6a/rerF0t3rCUqUHWF1Wqia90+7onpg92rJ3vB4GRMwcnPe9XrQ+6Mm0vt8R0EAk8xlBEWiSW2YJMDc1NR3KMQ4vohAtkgwLWaTU8fdeOXXPbL+9j+6QLjsfa69YicRLD2L/6a1rv8gI1MLFZlnWh3mk/ag6M8IKfWDeBBtIgG3x1iEYYiTomUwXASTmHYCwYbgt9Q2AhjNU1qNMnD35jSjzmu7eemmaWhfTrI+7p5CwPyTVV/zpp1D3+IkP/881V999HtMKAHCasVnZag40oUNxnPMFEw2CSRVyhXKGDvReuqoLAN66NCgHFSMite7i/bOsYkrYDDqT+xJ4WFFhVS4RpfkHS4m4TPqe1O+NLxS8sUioC37lv3NNo7xnHSJPGrdMu5kJGWfjkf0DylsAAAQABJREFUh4bnZP5lfoWpCQ4UDqSJcVNjfYT+bgK+1kVBGPCU7erHuK5pxXPt/YQ9qSVvOTmAcDRpBUqluM3ZJ/eZe0CPh/TPCksffb9GSff4oxKLQwsbFTDwB4khcT/v455YY7j79GgvGDz6KERtLtuFgBuLK7mukX7d9CKwxpMy/W1TDHc2JvWBO2o3kET4ycer+qnrVf3sM5w6ylwrHLjpLcEx/Cn9MzhVVycREsE/Oe3VjDYKDLl5E3210Q4e1otmfQHTemRANoQm+eHt2yGWYjGQUWBczRcgTwmoSDW+x449QN/N6JxXtZsKeQpgwLm2P1lzdmWHfdnNiLfYSrdu9cP9FsL4PlYu/H+rX/+yZUKE5UywVsMf+Bhb0KikUDCQAQnjvg5eKWsYrbHuBwrjCAa17hjGGWzj3A4ZIXEluDFaahlRmeW+lD71Xwx78wDw8ewC8bSXloOCq4fVsJu7wHO6SMZFUVxn0HeUR7tp/r5WFAycgwiFWGp1JYsl3nVFORQ81wmcnsfQCgbgbOAb63o3lHZA6/y1orayGgVc/RhCKGcK1S+g4IBPyAGEns/iutOKIL2SXmjJkHZoJTO+6h3cnLCceuhjvovyq3Ry4vo/Nizq8OAz5xTaZVxmhAOVCeKNuWwMAhoDvB7EGtMLBhurfa7obAiEQYNIiURxRTAdV0zRxxjGsx8f9gub0v3IQTj1Q/ip/sxDxJ6q6pderI5e/EVVvfCLqn7i8dZv9TRiYx8N3tI0XLIhEPy0AAFEWJCJd/Nvski4O4Sun2r8CKN522QjO6xLGEKQwognWwdILcKfcEMbeBGlgWERoRt87BUzO9+Fid0EAr+IQV1smxHwCQ5UeE6cwXfAV3jOgsHqiZHR0H8e7WRvwQzzsfqx83+VIXHvIRiAR2IZE69Ea7xhnGVLEbZhjNWcqjU14FVc3jFc5/f3tDvov64cwsY0peUAvX0OPlY4ilWZsV+YYEAyi1gMmAc17eDdWsEgcQbA9FCEApeEggHrtnXRQkFn7IbwPXag2WlrZ+h37hMK9N9sV/WTj1X1zReqo5dvVvUvX0Z5+Gx7dkZRHnqoniQigsGiqrVmaCVCcVjd5qyBN29XzWtvkjUIAUHYR+nk/VxrlY4uKYATw5NYRISR2jg5XTfnsjUIzILB1kB7SsUxEcJYy3i7uM0Oo5ls7Q1U2rIiLoUCCEn9KFqAmwgEf/3L6ui//E1Vv/IS/vvPtLmxH8RNp7gSlcfLKxu7tm8GR5MtaEH+5Oof/6UyrWqsBwo2G+szjUpMhEN88kGCgQvCwqEWNWkKUAW5a9a+CzJNtgcFg10y4sHo7XxBJJuvO+2myFsCpKZ2l9051Dm9r98ADfO5bkTJKoaQH+3xIbvA3TfGLX2h4GRALcxvhWbcg86a05QUk5oHl7D3mk/Rtn4CUwXTWqs13gbDKj43yFWhwP0UXL4BxCjDhkInB5tpOdjn4GOFIplEYX5MWzxp8iY+JALjsn1pk9plaYh9c06cJwWDQxEOxMuuK2MlMg4FHNawjHmQteOdWrr1CSwM+o8nwSu3qmv//b9V9d/8BgXirap66km08WjkdeUN3GzLNnnWx+0ftCTKkFcICP7D69WC8zYWHFZakVa1+hSlWL8W1ulr12RnmYuwr8UbS0rtvM5laxCYBYOtgfaUiqNJbhnGCveSRvccT/lbe7MvteU+fJBpNff18zeqo7/7bXX0X/+2qv/2t1WtxSBuRJgIJc4x3y89W96KhDTBP4lUjmR+pMmf7xb0Pxvejeq1KWIrXEQ2Etf4h4LQ7cOhFpGiY1GTptYqB5td4HhCCzoYO6/2x1eRqwdOIRvMZQwE3GRcBCGrlTarmP6vtT7tc3ai8wEp7tENwNOPZXyFmUyI+Mi1GgbIaqYxFaZB1r0nljH3oNY6mcONliWc5V5SixqXpWy2tVpK8LGw0YVIl4kITdNgsVZHVj1caJlMuFbRWCA3DeNVHTj5G2snWe4Q1lW8qblWMEBgSSzVydv3+bNrtdAPlUu9JWpDnXafud/gBeqXbrZKw7//P6r6N7+Oq7FJAVq6cAZhcO69nmBvPfZY9m97Z1Mt7K9rQdgvCvO+5tqN4rDMKy6CZgCD/1iz1g0B83JWMwsGu5xXN7ymTYNt1QaQjacP2FmbnlCBO0VNgDEFN57NRj/6H/9nVSMc1M891woFIgQJ8yrtib9LkBAKYurH3HgUEzn4wE2phsyA6YXM7oa2p7CRUZWQg1wiKIh8VvVzl3M3pi1hVRC74/G9wsJFF2DsidMRCoSxDM0DHjA1o4HxU9O5LnyF76/CAT62Zs6oZxP3+aB0T7vmCHZMZqK/wmrQMcAJXnXfTy7U7V5jbbcuPuApta/il40V+mcfVWboPualMCIDk76vgxN5VmFdNw4vcfGmcOymxu8YvRSGsHzH1UUY91riTTU0tJ4O3rjaeGJu/R14TYWMl/jOeQoch9Z3wfcBxwT3FuVNBE77tM66WhqT3gSP/KQ6uvFMdfTf/q46+u9/j7UAHuEGPELWHOtvFd0tvync45YMJsx6OBL+xCYmeQj7IbQmzfL75L47ZhSSuMLWd1veqaWnzOlctgaBmSPYGmhPqVhkiqSrRN38WeYaBKbmfe3ixuPSF5DsAvXP/6o6Iojo6NevVDVuRPWtm7EgDA7WKYQ7xBshw+phbvX9r//IYSvkVI6AIzH0t3VLR2jiswsiD0KBkG8IDa7bu3HPd3OsSbs99EiND2OKdeWCR9Rr1OgTJuogcNPCzmUCBJhL4Jm9rKXAtKVmJ/rFC9TlprjguZ4wop09In6RUcPtSq14rAa6yyikLmTip+LEDubuNVPKyqwqmMtgyRxuqrjHra8I2bYTwQDhYzI+5EG7r3unDJexYcJmL4V2+socybzq1pFgUJUfCl/C5iILDKT0I0JhLAYIL/vQrzEwsb/GyWgp6NfVhuDKGqtxI5ZHUBA4+i1WAi0Fzz3buq4N7ecyj6AC0ecQxOo336pqLahakVQ+RVgeWulZ9zF215V4QcVq+I4NweOsJq/492fYiq44VLY1/EJQYBTjC6k/ZLQsG2qQAL7kv3ajvnyTmIJbVfX0061QoKVgatECYbYCYhQUOOKXSGBzsEEwwtSKTzznXk+AVYcITvy89x+DvETqzq+WFTRWMg3JjGHvNwmskdAQpDAzIeZaq0z/phuAfZvLSAg4j1yuV7V5uL/lsDOD9Z33MEf+OJczISBjEZdHBFPPMzADirnJz3JvPLOi039oYK6iYNCyWSyQp986/luZHfe4J4kXy9sx18qx+9y1wsWBUrXCkW5EjxF4/HNcOvZRMHD8MmeMPUkqTIGs1UTcnTJ2/N1jG3gRkumb7kRaDHRrcW6yJzfQwC6qEI7CtxcKNtSo0+K+exiB3CyFzz9XGVOgy3FOIp/ajPtWS+mNG1V968W2Xvd0UqLbaLe+J9WfGb1Xh/NYvppU3/zQEAjMgsEQKG3yHhd2tE2a2mDU1A5sqKhd0vXHrENudjUCNUFB0UCtQ3Dd+PojPvM0mgXMjwYnISycGbw8ZTwSG+FiyjuRue8PTdPj3KpJg0iWzBjRWCoIOr5JkpTPLV9TgBuKAExZawoqCAaeF5E872pg5jIBAsKUovkcYaDpshMFplm/m9vXbUOX6K/MCVfSJBp8rPZS7bjBkOvgqQKiMA/AX+a9uJTIZG2qiJd0o9GlUqGw82VfTzvKHnfswkCYPI7vNnCpTBKxb0X4Ck/Hb1prlAyBR+A+tbPLOM73axSFdQVCFSDFHSf4d406d/mow3eNqSHvFWUb6gBrrFYwkEd45qk20JgkJTnXaGoTWv+0+MkjmA6demvcA7N2PT1542XN9bHx/ly+CmfB4KLmVL4h63vdjbO0SRQMTHP3OJveMwskLpsgLBLyH0GgFDqeoV43/k9pR21WNv5SH6bAU4ISoUAXK5gs4xgkvEGMa9Y9pT9TnwnBBJlLjDSxq0kzCNLDX/gaYI2s2bF7lcVSPo+sptxeGBoDvHMCMgRd5mkua0CAOcGNIjm9zef9MW52f8aMvklGdI3e7e2j4hSsmLWaRRMimKHIOIOkLXWdr1nci6ztCOhaxjY5H+KqTsA2wDltxF2QfZqui9PH43VPna1/AtOmpUCrr3BZx9K7JgjPfFw8UtIxm2tfVzqVH+3gz3zs7B8Emtc6eK6FOeImc009Cmtm9FFACC2x7qtcgK/CeMfEJ0UpVoPq4U7B535cs8RFSeFA64FJBXSJi6CfTbFu7TxPH+3nBvq6Zmcu/eNzjMEup7jgv03sk5P9drN0zHtF/uvabAGemrkJwtJtRjUNFcKGAkcOKLqGsBCCWwY0Frl09/u4Gh3dWnSv8pJhlQBdK3WfHPAefo6AwxgQDHLisQRTVwPHMuVgM+EuIhdM1l3gNBUkEVxglnQBCEGHcALzsbO2h5C/2C7JJBmAbOpShIPaGBzT/UkY53I2BFQsoGBIFhQzE+meuAmLgS1GMEAg19e5uMz53SaYCvGSwiDMp7E6fVpM65+8m3j2GjtRba7KHYUCzzDYBP4+ewam/ZLxg6O1xnTZf+IL3wsGIzGKc6KCKY/xRzjKxwvOKQWaFEuO+f+1GujypZLpqpfQE5SHCAM1B9p6ToZnHSU2cROwkVZ12bRMJqBF0HmdOo2b6NJcxzQIjFVhTmtlfuo4BESAbtJNEClrLvUZeOxx5krrprrbdP7rEHLqjTYAxsfPBjyvW8AcBucmI4luGGp41MrFjLpu5Tt8XoKmP6tjkGDqZvA9QkKDsDAaPVIXiFYBLO5hP2ZedemKoOCETyj0zzgDs6hEy6nlYJOa1AldOvxHjphj3Im+hEk06O7tdxEOCETWajSX1RAII4HGUmvBTxSkFAxc27IS5Vpdxf2/8nwehbMEjyT3uVp9cYr702vdAmOclIwK2AoHCv9mTAk3a+Vj92c3VsYeZko3zZ8hFCg0iWP3rYgzopEHfyTrWqfEmQLaMKvgOV2oZFh9Nc6iXwdjBw/sFQxMB66wjuCW+Tm0OIOWqI8d/Or7hanKQ60ECp3S8U2uryQ/QTgwtiBpsOUNvMbuh9XDmH/dPgT2EOtsf9AX38IWNooI9kdsQomrmn3TjuUQsw22FR9YEIsM6qaEgn4yOqKtZkfmVa3UFELT13cBb2Q67DuCgQcrxYwdhmHsQLyf6wEIpm4Fap51i9CSomvSAibHMrZaH9AnXguGmrS4bHVEfZOCatu7K/C321syilqJtMK8+15VeQLorVvAGnhvSvi/jNBUMJARBFd5tfhqA4qGbAyEYPeM1gKtBhEMwCk1ba5bxE3W7ZwrHChob0IjLX59GNyqYEA6yY0rdtYdd3leHKe1QMXHN8QsKShMiaFy+ygMQbN6n3QVRArVWluNFZjAWDa6EumSyryrnKmT5MO6DrFsgn5LKLyoyzWmJt9UwdKVTVnoBK1dFd9Zp0KIgoLfzeXgIDALBgc3Zad3OHydG1LhQImdXMVraZdPb6bb+8EAZ9wx7et7NYpQumtaVRf3FIxgnw1F4nZfEKqjHFY4KqY6eggL0HXcth5BOMB1YWGQn2nsftCiYj0dsh9WZXu7j6A9C0Oj1s80gxL2CHrD+ze0yct/HzCLQAijSGxBQ9rSRsEAwbCWgXRPzsLB6ctAuMikeFq0qUvRFDdhVDaxDlnormsD7WUOY4VUMNjAfMgE61NfrJsK2q6BtQrPG1+hgKRQYLzFphU7a/Vv6WE18ggGEboKjhs9fB5g/usfcf0UwfBZYtdwJ4vV2MQIf4Gx1wWopThLja9667rhMsmCwkACz1HQGA+iMFPm6Krux4CHP+yxmrS4dZh3v5zLDIHjEJgFg+PwOLBPYmOvpc0t4ZO45gom2MqYllrcbP1bq3iz3Ty1NhlBGRBdC2S642IQDv7U28/+sptXXcM8k4KYDl0Xaghaw4FCqdvDJbxtbPEZzeqeoSHhtI/2uayZsfXN97fzoNub2uOPPq4WZCi6ZvD5t8DWWINNmusvE7xdc8JGv3pcIKMpj18y33dbYK3hJjuNe9E1rmVM5nB9i0Ev/Jui070TjTnzv1ZhzAhGCcbWzSOB2PR1H5lYBSE1+h5upgJktJtON7mOTeYUN7L6+pOtzzvztDhCwXLnA6ApTMfOF/V1glssrAXHGb+mYLCP8Fxr3Yx/OCTWP9uAxSb27fghzU9sGAKzYLBhgF5cde5Iyk425k4aacdzSH/VSpkFw/gCzdgyJGqvRmm9yoCBMdYfT7E2bWEN8c3VmX8bDysbJRmEHLTPxGIAQdeVqBBOGbKZgS3An/YKU9N8QiaqDwhCvvNxVSvEPQZjM8P1dHjKmMStAeEJlznd5toTkK+hOWbfFA3v6U+f/y17rzFIWOZVZta9+CP3zZqlKADUlstwRhs9tU77AxxwcaofwsfejHJPkDgiQaHh3qZWvLXncmCj/vtkXYswrAA2Za6cf60kCoYky6iffKK1EnwLXsLirdV0UugqIG2Y65rU1/1BZ86/82ab22CItwbtbVQsgLpr49W7nr3mcsgQmAWDQ569k30Pci6b/uSP8+etQkDYS3x0XTAbhpdWAxmcZYvOoE6IWHlOoolgkAwlmn7RhCkoNLqJyeRY9dhi1Wo46VsyJ9HP2oPY1NhWuHTMZSIEYGFkEo0z+OhOVZm69JPP2gBSkwDM5X4IaDHQ7dEAe3Kpe8VqoCB1F6a7ZzBkkCeUnoFXs6/LHPvT+KjJpcOt7h+tQ70rnpYIN9ZYRt5nuMIgs6cNCjXjmykf08+J4548vvMe7MZvTMWnnyEEfxqXxMQCZPznPX/id4cnXjODjWNGMFBRUX/2aQSDE3cP/EilgtU/4mOVNGaOQkCsnTfX3FUtwqVcVxUG87gHQeAK75JB8Dnsm4IgD3sIB9F7iWJhQgx07A790WIQzedowcBRUyeCQeOJsI89XlWeUsnhcn0K2ilar44oyMAmKxFav/TVAE2Z2rlMhEA4HGCIhlpGBGtB4ynIdxAQjOGYy+kQcA2bJUWrmOmVZYoVUHvf+jUQmOmBDWSFGWytBsyDGn736dTiPtc6oO+7+xx3mriruHdSretgQjEAV8uJGeU4eKoilaRuRXtXgucYv/77HysYIPjqLtf7748cfwQihEAFIsfM/PcZ7xQYegBMWAf2VTcvXZ6MWVCIK1aDvt75zeYh4Kzdm7n16990fev36CrUMAsGV2GW5zFuFwKdYBATezTxZsPQfx8CqmZ/QmaNdNisLfoa60qkDy4atbgWmQougoEEcyTR9HZ9go0tQJOWmAX76ndzWQMCEDCZTt1W9L02CBmrQaNrWc84rVH9ZXzUNYwGtzbwmJNS9a/PetdioO/5mqVhX8aKY/BpcZlzLqYW9477WYbT+tw31q0mWhwwqfCcYzWeyJStnnYsHLSk7FtxjBGMsBiY6tjL2A3ja8biIcdmPJxzbRwOqTMTX+HBmaYt9YycKfEFPVPq3Juulr2oAsR9qGAweZ7s8FyGQYB1ku2QPzxSXoc9ff9d6z5/f43zN6shMAsGq+Ez/zpDYBgEJDgyCDKGSVWKtSAayrFIrb2/Vpg46ojmTzg7ojAMEtF1zjJwNAZh6lqhC5GazwgGs8Vg2ESvuMs1YDpY3Uw+RCjQnUg3hllTuQJo/BQ/c7TGulw9ZKwLAnEv+K5+dOWvBqEK+wjBWHJk5t2jU4vz695JnexzBf8EH/NdGM6JwoxjdcymbuVQSg8428u4lOA4xw8MxW0J6FYomFgybubbcSsUaS3y0oJwje9qhSNhKk70GlLKHDj33TkWuveBk5OmeR2L0ZDmr/w9ZZ549W32hUDJh/Vfra+v03rnsg0IzILBNqA613m1ICCikuDIdMgUfoP/vox3H5RXiNV5YOmQp7cjFNQPQBwlkh5W52E05XTYCAbn1bXid/uLv3VcLGCWQjTX0aSuaOrK/eQUwjAu3v+oat55L77YEcBm+J69FGIZI75FlyJTl6pFjmBw9iOrf3EDcbknDUCVKdyEAKxmPMI/DCfCdGPwvgyy1rbJ/DFxQ1DhWouBqUrd47oPCpN9K8JTQUjlh1cEAxZ8h7bGdrdmjDnQTGGgWAx8BQbBe7qZxXJkA2MLz5jW2Xk3Q5gWg3UFmbFduGr3hw4Cd9dJYuDcFGVxTH2lDus97bpq8N3heBXJUz7HD890iJYH8Hd8CCn+2j4ip/Rw/jNDYM8g0BHNuI7EfQSilMMGJPAdozKoyyBB9qE+x8lS8lPM6voem+NbxklfZDWs6zBOwdH8KRYOifzMuA6andU3tfiz+Za5RzBYvPVudUTq0uaFXzCXMH1rBb6ubvmgfzUg1GxbCsG+hiHcgM6KzF0Nrj5h4PU1/wrXl3UsBssWCE9ThunMIWfuHffUqH3u/dmILfNrXIUWk22cWG9TmygKQFpDdSFC+M1p0nGVHFN5ANWCCitJLX4zGxXBx9VjP2+FLA91zFkOrIVvFLq6Z8Y0I2yNpXKOIhjQ71juptQ1quGre7PMu3tBOBvo7+GeDZ+RmqFovLb4cRKAUrcCB/W55uZpnATGVQ/F9RI4/wCO7AWD8kARDsrn+XWGwH0QYPG4iHrC1t8wZbd2z6Q6/kgErNvPh1IUCmQ4DDQ1kDcuCyDFSYNg4ATeRXOqICCzAPGMFlHGqZw6vW52jTA59NmgvOXAPAWOdYSOQ5mzbfZTzaTpHD8kCPnDj6qaDC4JrlQbPJf7IRCLAZlpOgG4ds3zXeM6XAcPuC9lUmRmzRL2xbqCgfWxZxCk45akAkAGKMzPGhp+Neee/uz4f4z23D2+7v6+H8rrfyOOMy5J1xyFA+MrhPFYpi88In90n/IE3lhEEQY8v0GhWgtCTsKGPaGJdhG4EHxweGlkIrUWad1hrmrxc4Q46rqKOC5wB34F/puGgXRLwZ5A8tpkGVjOXS8eLriWYJD+Ylm7QZ1PP7W/MTjDl+be33mfYLD3PZ47eKEQKFJlAs5CFETYhThM6VqL8JtkEeFEXhC3OagjHEyp7iKeUZCJ33Eb0BuNGkS0HdmEDmkRkGBGIEDTLJGUWfJVzbMZS/Q/mFoieNE7GNjmS4imyFurgYR/bTeOqZ26LM9BxdgXapLrLxQOPiKDy8dVdePGZRng5sfRMcaNbiSP/hw/+0eqZnmNRwkhdzCmcL/PyQj+BeZQQU3h4LsfRrKXS21mn7NHdB9SOPiOPbPgcy+9jO1jV7d7DubY+ILsca2C+ygYiC8M5DVNqRYTrQZaEUR0Y4ugUiBUCDLBgu5TxlL9hDgQP0cBwu+TXYloQOWHrk8KhiprIsgxX1lPtL9pxngsDC7qfscd/zVoyCZhwJx5Dkf1ykvVETS85jUuZ9KVdduxy6a0vXmzqrTAul7msjUIzILB1kB7SSt2g0u0ROr6xf7wI+gCCHjyxu+ois+bicN6fc//gykKSCFAaEg0XSeYF4I5uggLNCM52AwNosyCgYgiQYWCLt4gmYlgJlqN6kRAFaKpi4XE3j6rUXNu95EpGQ3LC3wgVi+IoVpVsxO9/yHEkvzsMqnCdvJeucAxbbPpCMKsdxnjn+NO4quaR2E12lXlREfR5uvyogBcfamGX0Z+YnGfowDoD01zzxuMvFZh/7KX27EzbpnifRXOVX6Y5cczDFzb4osohyYAwD3gvHuQ27LiQxwnDPxeAWnSXhEncsUqyvyr9DAJgMIBAckRDCbVO2Gce/GI8KBIXlRaJHicuVPAXXd/peLuj/PF/q0VvJjH+s+3Wota1kjXh+X7x7z3cdZJbepuUxtzKN5ctgeBXjBQEzy7EW0P0JeiZpEpxDr+7z8hMFaNNsfXx7w+GdGKrShohmJKt14zk6jR6H5qb9jjvyBXMxDl3IK4EqGhggm8Zz4dgxRhPiSYmtPNROSFBlVLgZk76sdIXcp3jYRTxilM6BjY0Bfg2ois9b/m9NLmk09C8CtNv/o6y5jMZW0INF+jUX0XweDt9zgFWW01hFhNqMLvXO5BQBcEmcFiMcClpHZ9sw+arO+piMCFzqVWO0kBsOKswwjJVDmHMpqeZRDBYI2+dRAIPtXPHmtJLIVFOXIPQnvxrjFhgWc36LNvggUFhTB9I7snOvRifhN8HEsojJ6B564Dr3wHLrrmjVNgLJ7j0EHmu8Y9SQtH3MnCDLMepFeTadbI8e7L7QmeZ/06d5614+GWzuGmiq5huktCQ6RREcLL/nUa1y3uC/Fnudatb37+TAj0HMAsFJwJo/mHAgEZRrV5zzxV1b9+pTpSq6efqZrQdZEsPG6lG8FNzITPPo2WXKHDLw+gqDVUe6ZGyiwY+uzLjIwuEkAuiWHxvdVaoBZNbQzwbvO943IB49QIH5F9MY0Pbc9mRNjFlUi3ACwGtXP5CPXNZU0IdPPImshhZ6YtRdMahlLiNgsGx+HrOpbY619vDv+fwVwUwbd2HwlPy0TuwuxgphbVlUSN8VTLjUxwLxiwV9S8uo+m9itj4o9uU+I+XSVkivdUMAhO85wWrAVaTe5lXSsDGfmqAkRFRMlEJX0Bz4nbajTCOf0ZhVEs0v0aGNoGa8WpidKGvsIEx5WMftfO41icObTZfb7PMbMXmm87wUABD8Fg4q66f6TZx92cbsvVZ10+4/5ez9+cAoFeMDjlt/mrGQLHISBjev16Vf32N9U1tHpqHUIsZE6zYaegmI7o+7zEwBMwCTCqPQVzXwnkMlSKRlItIoJBsmAoIEQwmAIPKgfBShTVpoVhkmBKRHXdii8yDJTvJZqRPyYwJyGaPCzDpCBj/6MBnQWD5emd/F74As+GbG9aZNSy1q4LGb+5HIeAe99D+2QITVWptUxB2DU/cQsdawBBoDHOQIuYZxooHMiMjxXQZChliMte0S1pTQYzVkX3+qPgu7hI7LFgIJOt8qAog0Yz62VWGDVzXstIgttq8Vt83l0HaoURDqQFRflRHhv82i0a9mCD0qbGuuM+TNpS507B0Db3uohANlxYq02EZGNuwEu4kBoYnDUc+r3B9jZd3wa7Nld1PgT2fXecP4L5jt1BoPgQ+qp2SyIpYfTaBCIQWUdziIZc3/p9FwzK2DuNpGkRkwHDoDyJz9RSNKgKBmGQIJYQTl0O4m6B1UahodEFo57CyEt0JBI8q9VAQq+AoJl9imvA1HFe8ucSmGlwN+5a1R0CkBWktbgZSD6XexAQd3i5vrEUJoUlzGEsYuvglcJbFYY+goFCMOtdQWSMYOBeVxDQJUlB2v3C3rlnMeiY0XujGvDOcfNfIaW4Dao9L/AYUMNObnHswtCzWRy7wbxaS/x+inAgqMRxjDtBpFqHC67PQW/AQ5eUfC+LMgW2Qob+qbQySNzYCFOyO2/i64Y29r7Yf2G8oZJ5pD7Wf2MA+Z07VWXGtKKw2HthaUNwmKs5FwK9YHAyxqBNR3nu8/MNVwkCIm81nhJwEbfEYpOIS2LhZTvRIkk1pxKFHU2M49c6EIsBRPMriKaMR+9iMLT/LQHwbzRpsRhAOM31LUwK4yQDoS+y2Yk8GbmGyE0tpe8eAqUwo5ldYWEua0Kgm3M1rN9gNfgMN4b33s9pyPVTT8EErln9ZX3cfV8CUXUxCbPoYLMrpo/aeVDoTXYa9ui37NGCx4bUGoZKBpM6jCHSLUUGOf7qa/TNZaKmHHxqkgGtgUnhOaRPu7ynCAW4YpnBLMkVIhjQiRZtjeuNuEzBTBdJcZnuYyaeAM/FeoDgrI96bfrSB7SwsS4iHIyBtcAlbtKzZL6HETZDmGlWnXvwdQJkx/V6h3czToc6BbZn9hJ4ZB1zA3i++YQA8nfBSW+/W9VP4QXw9NMo43p28Mxa5h+uBgT6lXAyxuDk56sBjnmUKyEgQpdh91KbPZcg2wZNYk5XlXBqRYnvscCROI0tPAPRjK+xzEs57KkIBhJLM7coGIRxmtJG1ycJhdoz+yzDk2xKGwxGGzv0y3Z/4jhgJg3Y9BTk9z6oqpdfbn2cnU+vufQQ8CRctcSNSofCuMs4r1sUdg1ARWjXP75WQPgZ+2ho6QSDRusae6TpEgwk4YBM8+jScX0K/FoL1IwrFOiXLcO8b0XrZxQfuMJ5FoTKD5UhoxnXbtwdHRHH1WaxQTDw5OfsB2mL3/sdc+Tp703Nd2r++waH7puuPc+aUJArmdc24AK21SkSPibj4HWzfJhww1KMIkjrZZQVf3itarT+S8+N63EPui7ncqUhsIdY6ErPxzz4Q4LAsibRwMbOxH6Phg0lYGXQEAK1Y9dA0ARixsyudWbJYqAWTWIaxmkTgoEEXr/rzz7DBxdXF90jHNfMtLaTchIOwmZQYe6zPhAa/4yWlcxEyU4kcyKjte7cDerDgd2UrCYwx2bhMqe9bjW6y00SsB17t/8U0LTi6TIBU5/DrmQOBxeeN8GAFgPnr6sjGYp6y+DgyrobqdPxGjOkFVDBwBSM+7guXK/iNwUiXePEcxEM3AtjcZyPwHjGYlAEAOa7WIiL0kmXO91JzcYGTBpOsW6FgzHteS8Xc9SnmNXK49xPEui6qdv2iwIBa6PprCjBxWOGvap/ThmKq1h+3nm3av7l36pG10ZOna4N+nffzYLBKgheid9mweBKTPM8yK1AQMZPIqM2zTzZmtmT/k3sO6Z4P5fI/8isHBBDiaLMgi4VRTCQaVCraICmTISMRQhGaW8o9ejuk6mh/41+02qQFAwI1KtlghK/MLS+MWM9oHsT8N3BX+ZIzbOwCTM4YBwRDICxblp37rTnGSiAKYhJjGcCfByIMoWe/qvwa+pSYSSDdPyu0Z8SS/MN7hPGAMHc1mqPnc+hxQ7ISLq32evZL2EwqWOwoHiyMc8rwU3wr9jnutOECVYw2ENtbQQDcETciBAOXL/iPeEyZXIUth27GmqZUS1ERTAQx6m9/ilw8TLmTJgsGwxOgnLlZ9pyvxZXMoUahUTH5NydFPxX1rWjH8ULWpIcu3AJntggLnYtd3EGi1dfD005uv5E3Lnq555rLdJ9uzsa89zMXkGgFwzmGIO9mpe5M4cAARGsWkRdiDz0x5SUfM5eSv9F5kMROkQKAlArCMj8q0XU93ZZiyiBkJj63YNs3QgGQ+s/BaASxrswOyWvNUGycbPQFeoB6pVIX9kCbCCOYdwkkriixDdXtytTQfHz4AJDmWxVn3xcNR/dqWqFA+vUGjSXexBgvdVoLBv9y70QjBtd6WTeAm//jFzvPoJ22wD7+Mar9S4a73str36XfcJetx4tal5hLPnOE9unFvZ6ziV54rE2vkCGOEzg1Aq39JzKg2Ix8GAzBYOMf2J7gkzcIuMrrlsOPi7fm5nK33rFiG2N2XSlbzSmtUH3Gefd/n+N1ecHskAVoW7fhAPXgDhewdjxC5Msswnrv4Chf6WigBErCi5hi7febdccdOVIBdffE39xk/YVVJ2ffYNNP475zTYh0AsGJ33ZTn7eZifmumcIHCQEimCge4EHhSUvNAxkMG8w+Yhhga3xK02qPghlziuAMUou75K2UYIhMynR4KoVDvgteH5ES/2tYXhgcmV2PQHZQ7gkDhJ9GdcrW1qIJp86mrRkgMK3WuY+FgPhM6i0ayDZiXBjUXisPiDOAOtBfNxlfOZyDwIyQK59XYl0JfEAxQcKU8RtUxe6GmMFeC037FU1/q7xwTu07BPrUNucoGOFQztkLeW6N5TV73yOy5TDCkD4eLfWQQUDxrtvRbch16+xMl95hgFwzB5wHJbBkGxvF8+JX4wj0VogAxzml+/FdZ1yJAde8r7hJPgKvr5dAAXmbVWr/7bzkkPymDMDxh1DrXCo9cf520fGV1gIG/GDLqUKjHxXoL16zAN/tbLvEPh++KJaEIAcusKcHgkP9weWg6xL+1HcWfdRaB043Pm2cRC4ytR/HKTmu2cInIQAgkECEiU4n37apqMkpV8du7cEXsI0pIiluTrBIJlZ1NhINAtSti4Rs0Qz2iSFAzQ6RWiYRDXQGnVMU6PvMNdxpmdI3y/bPQWQwBvCfPT8cy3T9iHMPOCvzIevIOV85dZz5th7kp0IjbXuWvr1vv+Lqn7uxmUD3PrjkSGSSWTt57wO3utuI9zb8zqmNOH8OFcwtz8oHMD0FI330OpUAMhIKhD4rKce61I2qWTR5EkDbhNkqytRYirYz/vIfOk2JDP9OYoD4zRc/8JkaukyMYX5Fc/JABfBwMnWSqTF4BEucV3WwDn77My+8FwXfJ74EJU3un0q5EWwO/PBi/thaR/Eaiwd4MyBtSxn940GuLgUpWEoPRavvdkm0GCOjxAU6r/7bVXdulXVT19vXYsUEBQa9lGQum9s8xfrQmAWDNaF4Pz81YVAGAYIjK5EIFR9cCszYEwqYGkFAwPOPPU42iKYpLhSQCwLUuZzDv/RmsA9Te9O1CH6MW2HR+GPwWjxv0Y4wNyeQ2/UUl25IkC8gKV/tcp42B6BeQsjykl1GAFQAWEMX+g6gZlqOGF68e4HVf3eh1X1m6/bWA6ZpJnYBt6t4AtzbMpSGUNf3Q9Z+8xLz8i189M+NOSvz8IAsTdjLUgu+xET6PzF4oBQwP7IuR/HNOZD+rB8T7fO1JprHdFtUIHIsYoD9qwk65qWFk881qKooCBMsk9G9pfbDSZO1rWC4zqNeIbNXCdlKYxogmLdgypH+F6ojS80yLppONSuwYWojaVCwMEdLClL99Fq0AkGsSY98Xg0956gnv2hImcaIE4HnXVpTXF9cy04FbkitWuNZeXINm++WFU3sB48SQyCVrzMVbdOZ7x1OkwvwbfMcFvmGIMCifl1hsAQCIBRwzAgCKhF1HfVoEbN7lOLNFbmQOQrU1QIZkHAxZVITarMhIGLBqn5+2hiYWM85HP2Wf9bUxFqNZBxUoN5ZQtAEaZmxZEgPglxVvjzgDLdtwRdB77zQcSNEnMFRrMTvf9htXj/g+qaQqRa6DA9WpfmEpjLFOHbnFSWaovNXpOUpWvsqwJamXndibhGndfBPk9WG9eAGvMIFoUxLpVPeC2CQRgurQWMvez1CdVt7ZHATaFI/GbQsUhjQnFs7hvWfE64VrkhjhMOy+OOgqS1jNbgwSZpNAdvuKWO+QzF/t6F+f2GuUv2NbTvxerhetu3Yp+MuzCN6DMoJp7CnfHdd7HY4E6U+KaJ8D91nB1cqTJCM7jpLu5iNa/N71+rjn71clX/+pWq+vWvquoXz1f14+DDWLKZM+nR8rydWv/85SFCgNlty8mYgpOfy33z6wyBGQJAQNwswVQTrBZRpsEAx2jSpkCILCUgWoOPwxSpQYxgoHq6K71ggDZV32SDk3UtCnKeTiyStcXgWgUbGVaZH90brnQBnlpjIIL14wQqIvjVnBZqxqicyKt7wlBpLIwJ9cmUfvwJB519lJNHawSFxBo8uIfMyUXMfRhHGBWtZDJGapQNgJRRGgPvk313a3gVAVghWA2p+3cIc+N9asojGLjP13Eloh8ZJ2NSqCfzTpjkuAx2jOzJ/l/UZ9dtlB/iBrTt4oec0cL3wnNKUcgTZ6HUCP5S+Ds5B35GAK9jOWUd5J6pewSYai1qfsASyv4zTshLt7Bo36cOZMrgBz6T8bM2zMz17NPt9dojHNYM3JyPnsZsar1YD3AwyPzPwEVF16d/qhYcglZ9Ds775BMSJmBFuPNJhIPq+vVWMeX+jNDG3JS9O3CI8237DYFeMNjvbs69myGwRxCQYHpJJGUyJJgGJRai2auUR/bZeIEEnUEMFQxkiiQSpYh8ZSAM0IRxr3/OIUAQiyZIuetT2i4PDHyV0Nh3NaGe6grhrJ/i85UtwpLB1/xROIAAejpobfCw79Fi65bS3jQQSNZnNht9nI1XeJ9TR4lfqB/EMqRlYi73INAJZHGzcT8oKLg+1ynCH8EgQrz+8mTiqogHCuzP0xq7PxQGFJi9fK+w0JehDJqd4GK/1tcY00PsY7WvCkHn9aFva4dvghdYszCK7aFuCAdm2BL3jS6OG8UH+EwrgbirelTFxgkcZ70FzzH3CUAGFzY9fDoYDsZz7dzkr9YOBRzcomr3ouObMpTRYx/5gOMn1iLn2DyDYPDcsyiCCFB/6MMWh4zyYxzadtsmwAcugEVr5mefVneJqVIgqP/4TlXjVhQLwku3qurmC1X17DMoTR4PTrwXIzK0vfm+fYbALBjs8+zMfdtfCIRool3RhchLwaA3s4tkJxSIn6ZziWG0ZNEinhAMZCokppjhc3lPCMmE9sojEnrSlibbyJdk7cCUnLGU36/ka+EYmEuZUwUDznnwfImk0JRRNQ1iynnz3f7efA8zyVpp0MB5CnKtD+8TT7a+u1cSxqcPOj7mapS1iiGINa53XT/WYoiYq8BfqxjrWwbfOnVj6ZnO0/sTIUBroAoA3Wnc67FgeP95c3+yTvqhy5C+81qjWE+xjBR3mnX38snm1vksjjPQWlgZQ6WrYRhqxlCW/tj6HTta5mRd0xXyIfCXyo/lcftZvOa+K4KTwuLk0s2RwtzXjoc5dO7F12rhPVRy34rwcPwKBs/jwuOrJ6droZZpnwr/leMUTlyhB1hZOPsjVk7cS2Mx+JgEGx9/XNUffFjVpl2+dbOqXvhFVV1/ss0kZn9dxyfnk1rnclgQ6AWDOcbgsCZu7u0FQkDEGaKJYJA0n2iBRaI/QEj5P64UDA8xVIuIb38YBpihZGRZJpilYi0LxhloVdAHO8yJSL3UVW4c+BpCAJGUCTD1qoRTonmli7DkMugY5qF+HNcq5zruW4VRHQkgGBP9201ra6xBo+Xg1q3RrOXIVg/vduGtNexxfKx1p9CVRDeeNmfltPE4nYnzYH2blrcwhw+zh+QNzyrZGzCUCgNxGUR7LnPm/p9UPNgMbTAZd6I1Zz1FEbAW4zupI+c/JCOtFRELYlLtmpVIl0NdcFLEOSOKbkTgK61kycaEUFSXGKnlarQqKBioJOEAtMBH3Ji0YMs3Dnlf+krbCPJx94xwx7h0J3Nt7WuB0a6feqqqXiSLGRr6GpwRV08tOL0b1Mg5GDRW6wReBTNB15JYgwDuu8Ro1G9hPfjDm1X98q3q6G9+U9WvvNS5GBELoSCnC+wsHAyC9L7e1AsGJ2MKTn7e1wHM/ZohsHMIdMyCvsZh8mT0jjELE5B1jbUAl5I2hzuatGhf0GSdKhjwvcHJ5LhuA/dE4hDxqcXxIAhkPDC/cRuAiUrWjtPan9rOgT2nsiQMoFqwRzHl61tLvEHmyLlXe1r4jiFjE866Ypjh5QPiDIg1qLU2qQFUay0xnUu7phXAkt9frTKMxnla/VVwyxwJe/aIAoHCr8yhWuOVDL4PsgZ0QZIZ49kc9NVbDMbu87Y+3dMiGDyKRcQkAvpqu8b2rZiS1TMLXK9/wtJlYgItZa7jKQe7iUucR3Ebp1tXuhOpsff7ZTzj+wgGCG0GZkeA6Fwm065wtIyBP/di5dGVTIuRjG6tO5nW2X0trgnHj7XgSOb7o4+rBYx5m1lLRVRR3oyBw9DBWqcXsFYIAdcF32E1MgNf7WGYBnLrdkrcVK5f3Ggtq+JK4eq+LRaEoc3O9+0FBHps9KiTOZcZAjMEzodAx0jHzGpuegKzdMNpT8QtCHUIspbAcUEIa03sD2IFgGDWP0c7LeOvb/VpzKLEVWuBVgMQr0J84gzO7/npd6gVl8jI/BhjwFUbnOf3ao6WifbpNVzOb51nGUfnQLcPhQJdijipNkGMMhnOn/edy6SwHrxNIqvmWWuBrgESV5lUmcPT5vpyQnb1qGQmHoEhknksueyFTcentIAcsr+WmhH2xWKjnzlzkDW+SjDwmex1BDf2RlxqOC32fIFiqd373lKp1gEz8hjgrwBkjIFj3rd9JiOdsxvAba71IhAJlynFKdPCqSbcjDviudNcIZ1r3ceM5+GeWuYYy0KNxQExrZ3+0e2DI7XoIuQsUOQc4RYY4cA+OMf7BnvHZ5/E7wrIv/lldWRWM115dO3CDdE0sm1xQkbuh+7J819KvbKK3cSr3CD+oCKYe0HcVX37rap+7fXq6KWbVaUAg3tRfePZqjL+QFe50+b4/IbnO3YMAfkIrwfZe872XGYIzBAYAwEJiWZ2gxC1FpD3ufoe9wIY6Tr+qgWZDqm0I0oy+xJDEam5zTVxy0CcRrAiGCA4yFD4jK5FhUYMabK/p+tnxkMFalDNSqQPtoGZjvEa95zWh76Oy/yGuZFxdPxqOWVmbhBwRwrBBBDrkjI2W46whsEyL3nciQzsI64jmlMJ6FxaJhmNowxhAjCT+YQ1vmbJab1qwGVyvWR6+1iBUyrPvmD+tejoUlOsDGY3YhqnMWM82LkSRShwv8clkL2+b8W171pl3HGBU2scQSqDHzF+7+cyDanWEnFbZwk41VKiYKCgpMZZzbNCc2EunZPRRTzHpWCg1UecjULn2AnI1rlveM7+eLFGatyJFGpqLI21ChyFAq03rsVeuHWc2yjW69XNo3vmLhZmXbG+QMgGnrWCwh369hGXMQgEKNexIJBuVeHLOXcOpV37BudtgOzA65wFgwOfwLn7FwCBMAwgZN2HTH0nM/3D8onHI/skzpVoalaXCIYQwvCfldec702bmRgDiacIVyQ9tYDvQ/A9BEjCqUZK7aDExz5c1SIdLP7Uwthg2BcIBITg1a/fjkAWuA3lVcLUoPNUAEPTtoCAHn1IrIFMys/QjiPnzQUIRPAFGAbYqzVmjbdZadwoaxQZqE4DHtcghIR61QnGzpd7AIY4FoNozGGI/H7onB/rrg9xIRhkXAoFRbjfR2uRTGcsJVi0SnrXrOFjgxr+QYbQsavM0A3S+A7n+mRxmlV2lDNdxHHHGErhOHYtUJ8WEPCbh3c1f0KZU9z4HNM+M6uO/8nrVfXyd9WR7lziJMaxMF5J2vMda7SPvxgLl5PAP+uzMLdYP7D0la8ibNuH77+t7pra9O13q/oPb8T1qX7l5ar+1StYEMCZuGHmIL+4yM5sp5Dc5zLP0D7Pzty3/YSADAbampyACoKO9jFm3WXkWd6fNwTuE9dCCM02FA2ph4vFEnCGdkWiqQZGrapBjLod6fOuZjNlJHGwqxIbGQGZH5kBrSEyRLoznUa8u5Yu/UsYIeAJDOoHYGY8Cdnc4lh1GoUFtWcLCbNlANyFtXBW+NINzewenI9QPfNMapj/AIHiSgLzWCscqDUW1grPrlNhOKWUNa5gpvZfK4BWsbNK9jl7wL2AC1G05s5dWROZ7wFzfqx+zPUG4CoQlEDNfXQjEsjiNOMxZKCFmWMXhhNLzfwloYKZiMRfWoJOFYiAaReoLB7M2S5YGhqtl2y38fPfzZF9X6BAMbbAuAmtRoxp7AxOHP70x8S/Csjgnuo3v8IFDiUUioUj4sAWHHymxj7xM32WNJva5qism8t9oLspQmOjhVlayPkHDfEHDa5aR2RfO9JVEven6sUX7qU31SJ+n7A3HTzzk5uHwCwYbB6mc42XHQIgxOSxB0EnxafatGMEcyTxjCYN5C+hLIzQSsGAexUG1DgavOgzId4AfmTTx6aqZ4RA8hEMeFXDc6WLxK8DqkyKcQZPPtH6hgsbhbEiF5wLp45Yh0FFsPwa5oSAwsY0gGiyt0nKz+3aPt2Q/QBpknk05kaXoo6RWP/kVxgZ3CAi/CoAnycYuLdhIBv3l8LEqvtXwtA11DFUyT6GsPNThAMF773TVndrHgtin3VNfCDcEne0cqCn/+jQYxVlXsVzXhH21D6fUoRJrAbAR1yo8BQLqput24+nPLb6K59j/hXkjQlT2HE+y/5e/fDF/6pwwOnDRyojtBZoUUFgWjRvtRaQu4ynaPPT221jlEwqLfkKbOlWo3vT5wgDnH+wwL0oaZnfuN1ZEF7C6nGrqm5gcb0ODlUBZtm79d926yr/ZWXNZYbADIHBEJCIqEmDUIax099TjUkEg7GIWELF5WPGEzwMAUSTqItQcrmfhTBjMcCVCIEgTBOax8bn1y0SHC0G+hTrz6pGjZNZr2zppifjd95lZJKdiLzdCAfJKOM60LIyJkuLdcmQoGEzCNkMRbWaWdfVVbbOlIWWdQ/DiDBQm7nnMXyUE4wPuXKN9jmBJ+w3YJ9DugxA1moDzM/MvqWgHMFADXMnGDhHU4vdPWIMuAEaXJ39K3PneM/a61PbWuc51z1jT6Y1XG6SkKAXDPzRgYyFPY9odUOY1lqSOAPHrrBwsnSwaBMyPFg1CuA+p6slWvKc1H7ymcGfVeoolIPb1HAr2LsfvfZpDk4bj/jHYOznb1RHzMdCCwz044jvF2+9VVWcVNz8hfG4RxxPyinwPa3uyd+VtdDB0LbBbUkLi5WtJpuVGYx0nUzmIl/9fOvFNhWrSq3ZejAZ+tt6kJ05lxkCMwQGQaAQEJkDGQV9KyUu+i1HMDhD+7WychBqNGkgfTWkMkBq02T+zypqznpXIhh33RImM5QidpE6L5jV4y7hQUZmJ1I4eOyxs3pxdb533p1fM6qowSa3uKeR1k+93Qaeq0m2CMMhhfuSIUX3FHOTv/c+WjaI5bcwK/pdzyVMWhhBhIJYadAuNj9iX6iRnKq1d36cR5lB96/CWIS6buJOMoaFOVZQNsWle12teSZ6DMNl/VwycjJ3an619CXbDp9PtnvR869VQBynVtqDzXRViWAwUbvu+ASXgkCUGeAs8Zyw0GXotOIzWgm8T5dJlR8KCGr6mb7xxQ50V4e/k5UoLlKM9VSXpvGtbP0J4aIF7ZevVEcqkMD9C5UVwKl5/U0CgLE+KvS63iIcCF/Hve1S2lBB1a33nH/APmO/3UXArN8jpur22/T9rero735bVcQf1LoYaYF1bp3vuewFBOaZ2ItpmDtxMBAQ2apFVCgwK43BYB76E//OjvCMHEyNEFBjLcipxzL8asZWESp/48wDGYxkrFAw0GJQcLN4eUJJIJkWEJkgM004RhmxubREVmFNmCMsJc7gqSerCh/fCHbwTINLETT0cVfLhzuRGrUwq7qW9GXaeuofP/Q30ZDCQGsxcI3LWH5bFvnEwWX/onU285bru7iTKFifZNBjQWNvKxB4v68ylZMKzLbWAvZ3LAWmoMxhecvzPanizT+k8NQJBp54XH0OnBJ4rWAwsTkFAFOOetqx5xeYicm1vgrPOScyv7pM6pfuM6Ts7BnPHuGN7JNjM2mEAo9CvYKiTOlk5crI9te9XcXRg+AgcT59PorbKalcwU3Nm7gVkRkoZzVkbTNhERDKvimv63bitOdL3b7SrusIwTuxb39GuM4ZCMQeGPiN8FKbFhsBXeGgfhJc6n4o1oPTqp+/2xkEZsFgZ6CeGzp4CIShg8ArGCgUGGQlsvtaX1UpZkGMI0cKco/7kEGWak5WadKsWmLqiaFqlzXFFsFgZLP33a4mVmZVhqk7vCanxd534xX9QsaxaD2fvo7FAJcimJVGC47ZbY4R4LNg1BFN74UhiRCGUNB4SJCMiq5btnOSST2rusv8PcxaTj72PINomCFXqxjJlbAApoA8WaTcv+5bGROtNLinnFqvrkQyxGFqyCHfuR6lorTlXA4p4gZOPCZ4NgoAmdxVefyHVLnNe7QYyCwbW6HF4E+MHatoXHgcyqjiA916loHVFUahKIIegsGqdS7jqyAOw5iTksGPzad815eu7v7zkDf0hSw+GZcuLVqNZKBlSN2Tq/ozpPpd3WM/gY0xBwqb1xC4mmefqRb/8btq8eprVaX1gKDfuIMlwNq1Ct0IjfK9sNtmsQ0L8xW8yFtTBX/CIW2cf9CQGero/Q84zfmD6oiA6uqvf92ef/DkE+2c59n5z0VBYBYMLgryc7uHCQGQXIikxBJGLiehGqQXPFuQ4cihdZqxZCkpJvbTfG9LtRIFn5HQKpF44LQAAEAASURBVExIZP28bul8qpO3XMYpfu8HkLVj3XEPer4jpAgBSRPrQWeeZ6BrEUxF0yBQrUp9eUobsdDopkJ2oorUpY1nGqg5Uzi0OM8Tl1RbwYH/VYtr5h4Y6fonnY85+2I6S8OTPqwWk/0bbbiCsFax07JvOZ8IEf2px8aTjJzjezNAw2bVKRYDDzdTQIgSwHneo4nWUqIg4NoseEBBIQzehH76COPTjSqnhkczzBoXZ60a95LLZIsbxXMyt06i14S+8FSsIYwrFgOFPQXFqe5p1ndRJRY1YKqyQisCLkZHuqfhptagsFjc/iMWyU9aRY8uc57jkODxArfyuq0BLNXv2tG16AcEceklbpQLrHDGVimgH2GNS5zVyy+Rfel6ax1yfHO5EAjMgsGFgH1u9CAhIC0q5lFM0Wo9qu/RqjUEMOZgs6KRGTI6K7OAPMlSYprSuBjAFMa3eohmFI1aGCYEA4OVc/pxqvXPElJOOwP+iLwlkDJOMEwGkNWHSDAHDHWtWxAE6utYC9DQHT3xeLXQamNQpC4Kgf9A2IcBQ1uJgLl4571o0KqbBOVpCbrqQoETJOOoxlj49haDgbA9bYKdG4VfY4LiO8/+NQg185aJO/5U4hG4V6uBWmWZK58fVUp/qZ89nexKEXZg4HSRKYLBqDq3fHMsh8BFxYDuU8WNqG+2jKn/4pw33O96loFVkeHl+6zxFXUJL5Uf7gfdiHjf8J3+8yueWtEXn+IylgoXlgRVM/+1gsHoeV3RzK5/0trxBMkQdC/FInOEwqJRcfG7V2M9aN5+JxZJ5zKCbZZ6USRNg+S4IZY2DJbmvcZV9xNWUulMnbTNH4P/PkJAYM39NSlZtYTMgsE4MG/w7lkw2CAw56ouOwTAqDLPahi/hGBGow5RSZYUEW1BgGPgwDNqK2V+1PZIAEWIAwSDOowT94fQapZXMBnLuCz3lbFJIDs3gurrTpvqd+cR8eVqLvt7tXOYvGvOHjDtnn7TzVdoIA3QHLQGunUiXNVIK2RqMTA7kYyYgakWYX6Vi+tbDTvrO2d1mLUrWmaAEuZmLHB8iAtBIAf5ER8U4df1fpIxZJ9r0cnprhEK2OcKEAoLkwrPqe3WGqRgYKpG3zuefStFMJBJ67OurYNXHKB4TsHAgFnm0/fnre9jSRnAc6yFlUkZBsERi1NOQEahsyz4nJz/QXXtyU2hAwhbCE5RLhmozZ5pCEr21OEFMVHNWyRKuHMHuoVrmHjqe+ZTxUTwVcEz5XUb4yp187psPdBi54W73sL0wezPI/cjtKxGNujp4Ta6NNd5JgRmweBM0Mw/zBA4BQIRDEBcBq1F26irzVhmwfu7S+KoIGCmCRlC3YISfFwQ6Sl9KF9JEGSaFAzQFpneL2lT7eOUwmN5XsFHocAxenCNmVjMyHMeIZ/S5iE+oxYTS0GFZq5GM1fpFuIhPmOLzCfay6SH/QjtGYedJb7ju8eoiclQ0LvKMFc4FtZaC1znaI6TlrfAJOt8wD5Znhe3RucqE0FOpr93k+lutF4vBQF/zz2875lH2xzarg16UdivSdWpYNALOUPraavYyV816gqoZm5y7GdZVMZ0xjlDGIgbnvM5RCBy/hUgtND5jNbUuBKNafiUe51/E0aoQUf4aYgzuRSWUWGq9UClhULU4+AosqcdvXSzav7werV4/Y2q+uNbuC1+gLWEeKace+D6A865hNUu1mNp033GfwWVOx9Be6CruuvhYoRYUB2xBz1lfrYcOC+7LbNgsFt4z60dMgRkDAxUlFhKOBUM1na10fcWgilzr9VALWK0aSLrc0qC82SaOM+A3Og5idc+jjmJN010xED+pXOVijUEBB3hwPE+TH8GWDHO6fHl+FkCzKm8OdPAIGStBp5AKnwAf+EDzx1s4M0DuGo0BHsbY9BwCnL9JATddWV9YYKdn10Q7HN7vNsbHH8EA4Rl3W7cI8X1JkLBtO40JR2nLkUyJSddSaxb+MsQy6h4ue/dW87ZpML8aRk0rsBLtw/XURFyJtW5pYccN3s/lqwEZysUTR54O0bnUrymW5A4zs/nlU6YiP+87pIRKGRZ1tkLPBsc51kGzD3WumScWhYO93FOzoOVvxd4BT8hRElPUDbVT2AxUJGB+6OvDbEHzbu4F5kJ7Rtwjy5yJs/IHDvPwncdGNuZ80qpn/YURH+AnrLnFuzJOIvR98ZxoCSLdUmBx89z2QkEZsFgJ2CeGzl8CIg4YRZkJNQy6aOq6bM3x44dIfWBG2vN5RJMiV7nRztYOw+iTDYjCYCWBl1cJHDrFJkf3VtIC+ix9n2AnkyN/ZwLk9YRNearfubpxBpUr70BAeOkT030xwL8zgKYdbAGZEKdMxmUO1gd3n8f4k3WFrXKakdLW2dVc5m/D6PDuoOZTFYaXLZK/E2Y+6nCQcf4J42ie9g9vSzgF8FAa5nCv/c4R+51pisbdzDcfcC5Zq8+gObbYHUtg1oF93VuFYKMn3L/xyrK56mwFk4MPymZHfOPYfDEU0OYPOFTmEPxmzjSsyxqGMTMQ/508LWhgYXHzLBURyBHc242MJUf4r4h/RrYzIXdlnUF7kBZVBN7EEEMt6JrN56tGmKYmjffrBa/f5VXBYT3CVAGbxlojsYePT3ddr2W122OwnYsvjIpWKqN+1jcfot5Zq0wR9d+prKMNeM4jDeay04gMFP6nYB5buTgISANUpMmAsVPU1/NWA10BQliK0huxEiDf0HAMtxqRLx832uKz6nLe6MVwg3pZ7pa8DxMTCGX5zx9/895EOIoE6S1oDv1NH7vnNQ6lyUIQHzjFkEAcn3jOU7ofbRqHvoI5gImUwZjREnQssKmaUs58Kx++ql2Hbg+cvHH16tWIjTDBKphlplO3n8YQ/dH0gNPXOk+JpOvpSCWv1Zb2YM3ggF7XWZRdxrjR4pVYVST3szl3OUMA/bo4+SfN1Wpe93x7ZtwwNjVICcwFyZNN5vWlWjcmm5h2Y0/sRWM19gCmbsxFgOf1Wr0CM9iNYo7mamaxcWjrRhLm0jhXYtRh+Oc61rFz1Dc2y+WPX3jupI+eAE/D4iLy6NBylo4WYcLDmpsXr9dNe+8Wy08+0D3ohJX1is3CszK66bHu1Sve1r3JgUVNk2DANk8/WSEyRwMqEBppqp92zObBske1MeqmcsMgRkCKyEgo+AlwVSzaxYFrwQfSzAhXqOLRJPnJEQib4mdbhJqrGQYhpQIBggF+LhHo4pWLUJLbX8H1tG34/3dOBEM4nsLY6DmUG1SLSGey3EIoMHMCcgvPI9m7vHWHUxry/fOrWXgHKitlgFDQ5sg5I8QNmQeXXPWMbCaNHmZ/sgAuB9gJA2i9IrwHOZNgXxiEa7CHGbQ02+1/h1b3zJFCsdoy808lj3vvT6TqR0zITxAf5OqUyH+SRgd3TrUfmccE8ewjceC5xi7axg8p3AQRUPcqDLw8a26fHWVxH3q6NFWuItAPUQzL5iFkZYGXcl0i6EeXYrESa3L5Ji5WO4+4/kBwYD5j3WkZF4yluqylcAQ+qK1SqHMJBfXr1fXbt6sml/hUsSZB/Wrf6gWb9yumrffY96xFOGO6nJoLQjSN+HsNXEdnAvTMo84EnHOhAc+2p+sG9eKh0r2B6Bdwjk6Fz67vWGG8G7hPbd2yBCQOdaFyPML1KZpPVDz2CPNkYNTAEAYMCVfNIjFxC5DVPDkqiqNMdDv+mcQXAmnZvoNBOf1JyAj+Cj81GaNyDhXdeYK/qYmU4EADX8EA8zeumBVgGtY6SY5Ps8IY/p1f3inzU6k1UBmRep8ZbVk7gMsMzKG5ZArNO2J5ZikNezgXQQD4avLjNYxBYFSnA8D8HUxMt+92Yu0GESLuswklQdWvYa7Yp9DanWHMVBdBtm1I8M2aKOvqn+DvwUurWAQS4r733FHIJIhFH4dDMc0iwIjMVTOYQKvYU6HCAa2BYyiLTb4XMHKV60txn2M6cN99zrHzHlcptCUF3cyYXDZShGwhbmw0zVP4cDgZJMnICQcqYiA+V5gGW7eQzj4AuFAF7rvEIbV5PcWBIEzYQ0MgmlXL+2ZxrT6iMPQfv9aBMJrv3wpwkHrUjSzrYPAucZNM4TXAN786BWCgASjcyWKlklmIsHHCgYS+AlFxkBhgMObcom0f8R3YXoGIF8RvXEJEtvEGPB8mI11iFtHBDyERmIZH2wYqMkHO02Ay6E8osVGwUyLjae54gNffcx3Yy02rK02OxEaauIMdCdqnn2a9Qbj4rpTAJzECB8KIM/pp3A2YFdmpmeoz3lm1c/C1PXMSaw55EzNeAQD9w37DsGg0d9ZH3QVAV+TtvOugkPZ6wP2Ztq3Pq4oAJhDXf30mXa/9nn8c+N+/BEuZiDTYiDjrSuVrpJ+v05BWaGWvzZFq65E4rngqXMqDZj54/yr6dYViddGQTFW1Sn9slKfc44Z52coeD77U6v82MRYzxnSXvxc6Ibn4AR/IRSQRKF58YWqfvEXVfPqa8lg1LxHvJOnQ+ue6n4JuFnHKUP3wNgRd/ODxdv9t9C1EotGw5kMsRpI71xDc9kqBNhxc5khMENgEAQkHGoyTHMn0xxmQqFAZDYGUbaEKQF5EkwZBa4QzzGmbNNZ6oIk0fQK0zSmH2eMWh95hSCPsNcqonCA1nADNZ/R4IF+HcEOJkdNqKlLPfSMYL7Rxy+5HNRSy4iZKeTDj9CWcVl/CYi8yoKBjIzMgBrjZPNR+HI1hlPhdeTK7AQDGd+4zHQWg7hupdqy/pmPEnys1jxlZFuuBh6pZcJQAsSNxr2afW5dY+vrurGNF9eaFoJlhUDvPjWhwTI8589sRM7fqPMbBBztKhgET7IGSoKGXjBwDUyBIc8x1gUuofUn7DljTRy79V/2IuyMeVHhwFo0hW71c3AYyo3mcS7wmClPmzduE5yM9eDOHaxmupVBD0yuIK7K3itwL6+bApz10YZWOyw6C854qV+/XR2RerW6cSOWjeDGq4wTNwXqM+rpBYPP8W+tO0A/gHvDQ0j119zQc5khMEMAPIWGCSLZngiMUEAGhyYaRJHYRMQos6AWTN9P/SdlfrLnBtbnftV1SB9emY4H2c5rE0zqlHFCCIrGEDeKEM3EGEgQBvbtKqyZwB/YG5jNSZ1H5NxevEp2ogqtf8Y/BF7Ck/uEuZpagyEhxI3CgQxkzpAAD19lIsieUFMcpjpWNde5Avn00sAE1wj2OeiMw5V8HyFMty3nQobYmKJozmEYZZpHlaV94p7UQqCmW+FdRtf+79ucOmaVAB5sZnyFgmoEA9fn0nhGwYGbxWkyn7o7KhxEMBrKW9Bunlcw5Hk13FpejrlM0r/ReAmNNPNbfep+I9iVmIq6jHfs+A71/rL+jG3TGse6NMC7evrp6uilm1Xzx7er6rXXq+a1N6qFr2jvc0CaQduBt2ui7MM11sep8KO+juYmde5bxEL88Z2q/hssGN/jZkmGr5ZWnvrw/OUECDTCm+sHaD0Y6ngpwsHxb+dPMwSuMARkFGQMZB7MHuOlm0fH/k2DDHXKHEgkO4vBOIJJqyJ2rQbR/IAoSU8Xf/TRRPLECKSzWkc8BEhtqgF6hWheWX/3EzDyY+DPHCjQPfdMDhOSsDYyfjJU0ayd8twZXyU7EUyq5vucgky9OWhKocw1uO68ntHu3n8tYygzqH+5F9rjZAfrmZORIxCW/geusYZpFZBJdI+7n/zd3xTUtCr4OlowcL4svMrEhjHumOJNuEO1lW/2r2tWgYA9n8QKxmCIB9Yt4ifHL54rgt2YOp1/n7MO576HnzD2msiUOjatvyaUUBjSUnLVYqnEYcLXS7ylosoMYNfJXGSck2cfEIPgmS1Jc0o65YozV6qvdDVjzyT+oKz1ifNw1lqwWnGoa9KT4cmelJTOpF2t/oo9ZZ/nshUI3CcYbKWVudIZAocMARkFiaam1M8xqUpINHNOIkhiu+6SYTDGAPO1afgMQh6vCRWxo+mROVWbZp7vaHFE0rYzFllzv8rRCAYwBn9irI7ZDEwKBxLoMe5OVHXpCzCpIZ41mrak1HROZarGxmVIZNHGxb3lPQihjJBM2lcwrj9MmctLAnn3ia4kZqQxM43Cl0GjMjWCZUoJ88+e1iKgllw3EgUwBd+iBFAzqsDgXoiQN3YvdZ0zwYBWwUcfC3M8bZ9PGeTIZxSGVAQUHKfAJN7rYTx2/LTvIwoGPwW/uZ6nMHPOcywu7CtxpO9jGR05vmO3U2cnAAavdVaSWOj83javWilCgvRIIUGlFQJBBSN+9NKLVfNGm73ILEYLtPeVlhb3zg/L1rRNws05YhIQQJqPSeUsTsRV0/TQ1UOsJRVhc9kKBGbBYCtgnSu9VBAojIJIsGQx2YQmrVgM9Gs9pgkbCb3OFJyUpfhgN2FuwKgSuFGlQ+o+puYMi0G0h5rZZRJklDx4ZlbUHIeqLiIGH5Pho/byvbm4s0YE5nnEsvtd5lP3FTLhLD64E/ew3p3rexi0XuA73vyl/yQz6R4xlgMf6OpR3B4+BuYFrGOXuQDzGfZ1oyDWWQWSstT17by53vU7N6Yo1gQfKg36/ryy1Cn3pwLNYwSpK8D7eU1XqPNan/S7gpGZiMy45qtCk4LB5AK8YDaTqlVrwSPMoULC2CKshJnukliOFKySmWpsPSfvd4ocnwqPnFeB8kMYXNWiYOAlvBUMVAIhhMeCQMyBuK0x9uA6loTHeMXVaPHBBwiSuGNpPehp4ph9cj6wG3GfCpJPPmljr4zD4gyGuWwPAr1goG/R7Ea0PUDPNR8wBGSwdSNCMAijrHbpGBIcjwjDNsjwxJUIZsHXZNsAKY8sSedHCkQP2ap+jCn42gPIBPR3tGDQNcxzScMqkypzZJyBjJJaVRm0uRyHgETU4HHM7kc3n68q0v3dFV4eFpTibJ+3RvhduLuutBAsiDNwfSig6coSweC8OrrmLtuLFiqtYab6vE562Md5fRjNsVpjrSzh8sfChucU+GUEXddeWgEf5Dv3uppzsxX9mbmQ6ektBmPb4X6YWi0G0b5GMLDv4/f51qc1a4+9bqCpmZhkmIXRpAJ8w2jK1DNeszEZX+BeGVsULtwLCARxI9OtzODZ7Kmx82Hj3TMuHcfn/kL54ZkWiTXxlrm081dwm4KZwp2W0Zs3q/qVl6vF716tqn/8F85BeAOGHXwV99qyrqfMyxlAx/LamAiDVNANgeKmC5/n6QxYbejrfpfOQsGGIDpXc/kg0BGPBObpRqRbTTRL05EfpA5ix/bTp1OCqcVAAjqFYRBpyzR5qir1NX7mgJqWmXE6JvQzhzzBLOmDa8rGbwjQlHmazChcvmXRj8g5U7DDUlAThFw/93ZVv212os+5Re5jYAmjwh+12DJpMlYKdzKlkxnTgW3v823C12xECl+ucwP1S8pK4cL/UaXcn33NPtHtS8uA6UthOhN74AFa7vNYDJb30qiWuBmFG8xV3KDst+tErblzu2eljDvWAsddArKn9tMxaoExIxHBreK5uKiMrc/5F6cpEFiHQqKfa+BY5nJsneV+8FzzHXEk3aGV7r3adWGbezhHpds7eXX8XnHfAt66GCngct6BWYuO3Ius7YXzonvXBx9BJ9hLUWI4MRta4+JAhQ4Vcx4C6QnNKK3aLGIbamMnAD2cRnrB4HC6PPd0hsAOISBS0twsU6z2XDO7GvTeYjCmLyJLLwuCAUQzRE5tmv63Ey0GPpeTcj1R9RGI5kMg8e+LtrptbfhfEa19hDiSu735BpeCr9CeKiCgQQzRHF7Z1bizY1ySWer55xAMnmmZoZ4wljkfAA7Xm6V34eCzX+X7K0oEw6DJHCI4Jxd+p3meBI6yvoUxgI0lkL0SVxL2t/Ur9BuIquugbkTORaZlbIN5KIJAmGLdMsoe30emU4ZYxk5Ll/hOHFfWo2tycMmCDXNttrQEjctQMv7JrkSlHrPnWI/+5SpWMjcdnPv9NqSj7Tows1ytQHjn4xyolTkXDoUpHlLVVbhHeERAZz49hVxhACXUke5915+oFii2Fg/8vqre8XA06EWmxD9j98xJYPJ8t5yyF1XMGffm+iwHDu7jXjo5jAP7PAsGBzZhc3cvAAISHzRo0ZyLlL6EgYhgINKbhvjqaLt4NnXDgHz6aSscEB/QBNGBDYNcV4w3zfNHzaYIU9N/kKXPTOtX21qHiQ2elUFSe+qlZvWqZe1YAf7+J+dLVwfdRDxJtA9CVkArbij93ee/kRnrGbKyCNaZz/Ob3Ps7AmPIlVpLA5HRVGafrAGWZBrSOqN23D2ki6BaUOeMz9GcyzQqKIwSzLr94x4sZ438FGZWhlbtqwzWPpWsN5jhovxQAZKMM3xXlt+U/jo37IugM+FoKl5cToJT0uY5lWZuUaDIqHvAHNlwcn4MVqIauCbOoD9465y6Tv25nadYDPST90yDkjTgWDrUUx++el8WPCeuQzBIEL0CAnvxKHBDzFKQZr8Yu3NPebbGJu2hrHsrLkW2I01yT2otpCtz2TwEesHgZIyBn+cyQ2CGABAQ0cVagI8jGTsaU0omE8NEhCdRk2HQ5OrJkgRxNboSkZJNv+nsvCEuEvpYy2SIKBEsFrffIhAMAcF6fX7dIkH2BGQ1pxEMaGdspp11+3BIz+sDrTvXUxx09gRuRViCGv21/8J8pExZL1OeOSSgjeirzJqMiO44aIvDHCaF1oS17iNdgH2sYcn+pLscjA0CdnzOdVn4lr0uU5omnIuh88ED3FrjC18/QH89uVmXwX20GMRtkDGq/EDbG4uocHD/TwDtsRm1bnEnqSYbT3j/GM08cVCp+zwcFXD7h07IFH5M8Cn57CsY+LiStL8ca278B+sWv6PlVjhUONrEuMd35PCeCL7DSn2Lwy8VphUcgOFCBRVzlfTL2S8uIudxzSJP6tyUK8Il30XyXLPu+fFjEOgFg5MxBic/H3tq/nA1IeCGVFIXCcTUrCZNUOTP+jCRyUX7EP9RNWu+v8hNXxCPYyYYL6n8EoTL+CM4j0V25X5fudRW4pe5gOGpyXakH3LOERKcpe1VUI0GB5gZNKmG03RuChrOT9+/0uaqik7+1vavkXBTt1oaBaNkJhIWme8p9Z5s55J9TqzHo1gMnqrqZ5+u6rfwxf0LfrESylm1tfZkJwAVl7u45SAcNCWDUJG7xrYgPita8sQOwRz6WaZY6wFX8z1zZ7zO/Uf+nNMae0dXF/3rjS2IK40uUPrG79neUUByjRpwTABuyyADgygnREYtPjhnwEs/d+Mr+ANGfvHq61Vt3QpIiYGSwbPuFUU4dbCqETCS+OF9glzjy46yIv2zrXPqWdFEftJqi3LlXtpaPj+wZp3ntXkZftdyoAWPeAMt1UcKlpyUXGsZUpnkmmKa152etgLn47TrMgBy/8bQCwb717W5R3sHAZlCfXHd+KRjDPGUuMqEdrRgdJ+X8a8aCDMfaM5/AmTje4WFCyWkdNBxh1Fg7L4P0z56pN0DACpjxjRKnYu334kWrX71D50gxG1h6gfWL2wisKFR0z/4C5mZjqhPnhTbtp+OHSIpgnf8Wg3K+DPf+TOwo1fgNhke01I+81R19OLzaEnfru5+hpZThiiTPsNrrVVAgGNS8oofZDC1srnW4ws/oWb3DRYxA+vboEasOwoFapBxfWkQ6uLC0nM34KJBxQ2OuwsnkdePsx5gnBI0rauZQZpLDO+g6rZ9U3Fn1GrCWm1UggDX8Ye6LXeUtU4MR3DShx9Xd1UsIBxUD8BMitPH4LhSLZbQuJLIgIrrFGiCS91XU/cWzyFgNN+B1xUKs55479qYyzAImNbUQ9BuvlDVv/plVZM5qNY11qQVwrV3P506R103yjSvWc2wQV3tu2bB4GrP/7jRizQVCjDnNq+9zlHymIX9LkiU3Tp2wwap3+tCbeCsPtov/IIc7p3LwIUSUTrI2HLyqUhOrbzj7YlawVT3xjD4nXXAhDS66hjQnAdPAGRwZeVG+hOTQ/m85qsaORklghEbYitiMTFrh4hebdHY+V6zO3v/eKdBMy2lAcieHFq/9kbrC7/u1O794HfQQQUvte9mf0IDX5s6F4YTtq5rfOSC1M1FNyH933Uj0eXF/ajwqy8z2Wpa17lS/8gxFkGG8wsSXxAXqD10io5gIAx0p+HSKmoWGHHUxKEHUj6P0KbrZawv7Zcjgbh8+9L8HsNzS98v3z70vfRL6y1pgsXxtdpu52ouwyCgZd9MWyjz6l/cICMbCRjkDz6CP9DlthcMhlV3/l1rzvf5DVz5O3rBYI4xuPJr4XwAqFHRUsCmX/zf/2+1eP02BFQiAiEdrdXvNrfEw7c8Xz/xWHX08i0QMwTZg6Lw1yaZ+/n92tYdMsZqI2USiqsBBPMeI7KBho8RuHXr2yTCpK5OMAhh/wx/ay8DNct8ywjP5R4E3AMeLifDypkG1ZNcDyPsGmhuca3P0lRAMemPDIhpL43j8NwO0laq6Z9cnA+ZQve0riRcSckrnlNYOHZ+wdBWnGP5afCZrkSmWMW6UeNfv7cZiYSBOE6LoMoPGeNYYcp63QBe2Qie20A/jk2j9XGZnUq8pmWPAOccYmn2o7mMgADr3cxRZMbLIY8/R3g3lsRDMnV1nctBQaAXDE7GFJz8fFCjmju7HQjIEGpm5gTC5jYBs79HK/A1Gia16KMEg2UE3xJSg25FKPrgXrtxoyVUavTWUlmtCYZovBwzWkkPVjHXtUxD+rQ8hjXb6R/fRp195ePfKBg4t3G1wFLkwTJhGoCJTNpc7oeAAq4uLgq2xhloPUBQSJyBzFbKns3z/aPYz2/USprDPikrcTP8MVZFA5ILODtUcn7nywPcmT3eCf+6y8VywKuMotYy90AaWHrm/AbaO9gjcY20v7oRyTjtY7abWAxabbnujUk2gDvVdvDcBDgOhfek+0gEoUZb9ySVP0Uw2JeTdaNMmDSw1Q+Noterq+p/La6UKvRwqYyCJG6U/R3zmwOBwEzdD2Si9qabIioRqUyOmgCDUycLBhLdjprrd2o9+pFifszhJRc9aDVpCgJq0TzZUdcp/Y7jc6wWeN+I3KYA1o2LuW5kEPS31t3Jk2B1M3CeDA6fy+kQMJUfcQY57EzhgJOQK4Vp3TPmIOTTYTbkW60xungYgMxr7bkGazHaZAAT/cgYm9nL/Ov6RutSpFuJ67wXDIZ08N492UEKz2YiMvBYwcA9I57btwIub9jXyUikyyRW4Oz7fevnxvvT4bkfWASe3aC75KcogMBzF36ybhEITr6uC4OTAsHJz+vUjwU5Vry/wkKmZY8132g1s42Qef90MF+nnfnZrUNgFgy2DuJL1oCIyguCaXBaAtRkoCdveOoquEIi7JU2hJs/lB/9vOPiuGAOEltwB8YOq0EEhR1340KbaxQAMQdrNencDOJuobvMXE6HgAzg45jUFQq80KA1X+qGxdremrXp9K5cqm9lqtVKdsJBgo9LrIugnVpUdCgYqN3EVdIMXNGcGzgZwWBixZ3rU689te+mKd6zkvzwjlmhQIugypDg9HWAumeDXNUdLdPBcSiAPM9AywEKrwujPAqqCqXJFNXNBzSxTSFfejV+buIFYoprBWrxt6l/XZObcgnt9mfiA40RtB2F+bkcHAR6wWCOMTi4ubuYDkfDAHLxtbxfi4FvER0OGFTH+2vdlbovZoh9qwooWkXUpn0KwfgMrbnMwpUozktHfDy7QCIl0+Dl4TVhHK4EIMYP0pSUuo8YjPcMgsH1Jzij4r178Bxf4/yEEBAnyGjIcJixTC18XNpcq14Ti4yY69uMPObZ1yqmS1EYZPfA0Lq9t1w8Yz/VnGoxUJgp2tOJ3dzaY3ERbQOEA4dj8QVba3VPKmaeEAxyArKpaf+MUGAAtjC5qGLbpK/2NGbTf5qcwv4kffQxutjh5yH99FaFAveLmdOee7aNg+IU440JBvbDrWIf8+oXczlECPSCwcmYgpOfD3Fwc5+3BAE3fUr/5ozP3dcrX8RYIpLuEnkVxLLyuR38qCZR5kDBwFR+MgwyEYMZhR30cRdNCIcIBjAPBiiqXfW7uZwOATVnWg3MnEN2okq3otc57OwIi1P4xm7Nn/70/O0qCIgbOCQszLYByDDccVdQ66sgP6YUyyR7Omd1IBjUCAaNWbjc72aqicWANgfvefoQ/MXZJKyBZFoz25rrIdYN69qTkvHTX7XTuk8pDCn0i+NGgnJPRjS9GwoHWg2Y98pLmAgf53LXRZpDUH3zx7eq5l//nfNpPmhj24plvu/SwEkqt4GXsiafBScx1tqYHYVrhda5zBBYgkAvGCx9N7+dITBDQKKgplwmmODbGoJZG09x5fhhqJDMUScgJTc1wkGd4MR5mZwJAUAm01rhSnR047lq8TOYWDTIydDh2krpKfyZ1cw/3A+BZPfhZOmjJx+vGrP+CNcF2t7CON3/yOpvOleiBi1tc+ehCAbVn2AOyaiSjDWDhYKuGaa19rwCgo0NRK+NOZEJi8CwR3PuOpQBBsfpOpXT3SMYFCFrj/q6egY38GsHC9yIdCWKu6TrSSF/18KBaayNdXjjdnX3//uHavHaa4n7MK5Pyzod6sZb8MiQ4XOvFquHflwdvfJSdc0sWaT9zfkDQx4feo9dGtOtofXO9+0UArNgsFNwz40dFAQkmpqV9T02faHMcJi6gpgPajQTOtsRIQmkOd1z+jNE08wlF2lqnzCSC3lEH96nzU7EmQYQ4cZsRQs0szlJ96qsoS1AvmQ/8TwDNJ4RFNT29hzJUNhyn2k0tRiYhehzmEKYQA/PMp6m+gv7vbcYDB2HDBhCgMKA2tiikd1HNyIVH9nXrEn96r90zOA8BaUrx9yxDnShct6FhRYUlSHF0jN0+jdxnxYbsyR5ZtD7WAv+SAbAHDpn3INr22tM6bj1HyGoPozl8ie44RFL0Vp+aWsb5cqtn20A8eLq7AWDOcbg4iZhbnnPINDh0RxApkmXNKVBotFIXjWMBxGSOSLPeZgl/V2LD65C0q61aXu2VM7sjnAhAK9+8smq0WrAGR3NzyDI30Hwv4fxmkTgz2ztav2An3RNtp/Gw85+ShAlrkXVN2p2AcPg7XmPuWpkCM1Kc+2LamGKUl2IDMY1vsipGjxXNs4JBmRKqs2c5PkFxpqYz72ceGx1+1JiKUHg122qC7qNS5WHUgWOwugenPal29vpB+MEHm12JoUkhQOEBC0GmwrOHdpxQa5LrW3/qGufs1DqLEZ/9BpT2nWZwHcE1PqaAcewfhdhDRnT7fneC4NALxicjCk4+fnCejg3PENg5xAAkcr0alZXKFA4ULMWP2Y7MwU573wQG2sweb51pZJZ0tSuZhFrSp9SdhYOToe1mm3jDAxCfupJzjT4OfBDsKpgQucyHQLL2X5gwCMYyEhNKfJMCmpfIbB50JVxRAoEWhDUqA+XNLrWqUO3IeMKmO+kKvXsBfvsPtmnvaKig9ihuBCRqjO+9WrJzUS2kQPJpkzIRTzT4XMFItLUxmKgAkSrgRafnZdunRThIGum6+Mk2uOzLnSFZy4FghLLt+mx2dRcDh4CvWDwKAfxzGWGwAyBDgIGoyEMRJPm6aq+T4ABSPVKFTB9Ygzwe5VpMte7mrQc/gQh3bU27ZBgLwE2zsDMHxyYpPWg+vAOIwCGKRLrmZJ2wBj+osClJl64yripjRfWY4vgt2AxMOA4igAZJhjmxvV9TBHQ3nr+Xyp9AO2uudwfp38IB/Ujj/Adfd4nocCB6EJlUgHjC8zI9BXr8gcFA/a1TGQub7wKhXlfshjkLAPxnH74F1LECwU3lFc7svz90I6VhV7uP/m5fD+/XmUIaAzwehD3uV4wuMoAmcc+Q+AYBLQWxK8elwL9PNEembGi1bocu3OND7tAzssEZZ2u0ldjCnSxUDjwUrOoRnU2R58NWGGjj7IpK8lOlNSlr99GGcv3u5j+s3t22L90FoMawSAnCyt8TT3ozHnQpWaBIEBp4xT4MvPjnzF7yPu5dP/oTmjW5alNVYoVYd9KwXEGH3u6uQcZJv4lg99AbzdVz6qujJmf1fXEMmpGqi8QCEqcgW5mF1rK+Hwt7y+0Q3PjVwACs2BwBSZ5HuJICBTBQG2ap2FKJAxE7rm5dRB0IZYnX0f28dzbSx/L67kPnH0DXU3axv+/vTPvcuQo83Wm2sYMywDGxsYL2GbfubPPud//3P/uubMyMAxgjMG7PeAZGNyU7u95lZGtVnVXp5SSSqV68rRaS+US8UTEG+8SC5PiYhDgZewxlDAWKmKAd9HjEgE8xDEOSjl84fmu5/XJeJIzXph101cT2blqD2V06eFn/AOGAQo3EQOGamUMfy1ZulOWh3ZIm790bFMuq+sxLHoMwpp8nGFOtdFT0ntq0QLySp6Raxj5vNO+H8jhEpgJP8CjvTi9sVxxmnCDR5zS7tdO2/zeft/iHQMxE89rp3vmXdTqa9dtGGyRfk+VwJ4IaBjsCaS3OSMCdI4ovXjSWKWCsab7Wp4TBaEUxvDadVz0FNQM/6EPbu9Trrl0Tutsh84c7xnLtxIxyGTkUibYxOkEnaGXsnIdPwyGATv09gwlyiTkGneOh7utcjUqTNeRwBv6zBaJGSb4lne+jeGH51Bdt8vd5kWt7m9zF+6R62Is90+kjClnJkZjPJ+iYUB7Zi4Fe5PgBLkb46AMA/K+S/4HVnV5jCP8BfV5xr2GWz7wDdzIt1kyjjsP6asISoZMsokjG53BZV9y/4EZ8EcJnCYBDYPTLJfdUtXk7+b7bne7vVfRQeARp7McQuw13GAWkXRgTVHM5MT+Y2l6TFIs4yAFNtdTV2U+FDwdJYYN+y58lM4fT9jcg/Slk6xVOxh7i3HA5OyPxyvqcTUBhhMNa4b3WXu//0zGx78fBUSl42puV/41db0iB1mulNWemGfQFLwrr3vYH4e287A/T/qdxSRRiGMMEDHAMGgGy6kZBuX8iCEQz3jtsosSXPOG0s7nHhkq12eeBXMtSsbVMK+B7yw5l3u0YkLGMUeCnegxcJBxs+6dTOeWyy5LgjKfLCuvsbcDcrQ9ci6W07n+/HJ0OmzPIyUaBudRjkMuEJw0+qHh70HGPxRPe8zwqIeedxP/gGHA8pyswlPe8SjAdESN69Z5GgoCTyLKQhQZJib2jENuEyfL6zWjwKoc8h/j11nTnVA4K2u8l/WqCY/v48DYQIHg3uk4e6IHTKz0uJpArU6UIURPZ3Ui5hp84fPxSkYhg5/H7gTCFSOrXjG+lkQS9mEEb50i2m1eZfgnTYkW9J+K8YfBglF4ahEDFOjMD2JIYG3qxpr2NW8ohsIsORcMMMjGbt3nMsSLsmHIF985BkyrD6uftvqfe/Mqo2blpOjeT9qzIELtQ8FqUrOOJDD3XiZyUkYByzIzxIrJ2Dx3Z/k/K1H7u3jIAsVw0OMMUB2Uzw24uYbBDSikKUnMyNa10w7Y9Jtwvu95a4/e8eOY4vL6rAT0jreafxkKMMOHai3rvOMZZynDyvM65ymPajlLCaHIsErJi891i6+90vXZ/KrWYUdxQKGpTnnKPR9wTgnj/LfI+HW8Xb/+Tbf8+avdxf9k10yGC4zHtulv5yd94cLQqjI4WMUkRkLPuGSPhxOgvVC+rGX/+UQLXvpS17/+ete99VaWwWXp0lY/GueH38q/3E+gdhdmAjLRmESueup+Gdipq3uWT/c/+UHfUo7MJ2FOAUbBk5/LsLGki03tTs4wWLXljiEzLMcc58HyQ+RclOCScw/K36N+S/6HvgFjYPFy6vlLL64298t+DnVQ1ZHvvO9yVFvC+IvMwXHz1tvdxX/8vFu+9uu0p3dKob93723bUzs/iSMCwRBSDIOS/fl+amW4C792TbKKvkAxtFy3P81652btde/DrFt68fUQ0DC4Hu57eupGsy5PSoQYgg3ldq+TyYYkl2CPV6UU+D1l477bDJJlI2v3nXLoL7CjU2DiMVEDVuMhijBHjNKpfTw7T8ZrvHjlpW7xw+91XTrOWm6R4Qb7CIXzDJQT9l34WTrMpJlOc9m9vx9i1CciBpmMTUSiR7GgrnlcTYChFHhNPxMv6gtfTNQgr3/7ycrDTe+8q6J09VPP/69tiFaUcHYZXhKZYaUsmurRjxRilXOGECWKhrFSTgDmGpyaUonxhIxjDhVtmcgiEQM87iXXZwhf5E8mhC9eebnrv/+trn/py6t5NdTxevHfjscg32rcP9G2X/6q65HLSfsqD5FNs4/kveQ/DpDs8o6MI2pAJDb2/Y0+Gn+YMYxxH33OOpCxjPNj1aMZZb1+Xz8fnYCGwdGRH+iBtMFs0ML62+xeWePjEWgfiwdrX0ca+zJCk1d1wOM633MfQOIjkPNvGeHPa5YSPjc5jM2nwyTEzmZef2gRg21vPEjK5IeVSmo31Gef7vqvvpRO8ztdFwNhXMqwTuW/GUdxy/Xvvx/P5ce6i3gD+0/+0xh9n3Hn1aVlGKQTrnHJ4ZJNocr4nH3jM78BSkWMv1pa89lnsmzpFxIpivL42OOrtlSdKAyo9x6TCcQw6InCPP3UMGwn3dlHYd0d21hdtfM+84V65hYwvI5oQRTkWpXo1AwD6htKId7wRAoqCsiwIpTFEkHbyt9V/sspQT3HAP7qy93ie9+N8+PLKxatUMe63n7Y4r2aR/5DsWW/BZ7z3nvd8s1E3xIhXTWfpGXW5my5Pv0mRkGH/CdywFwznDeU440+kjfYoRegI7BpJ9/3dgz3r+h37lv3zm8eN46AhsG1FNkBGgsCF+8tHg683HnVGPA/2+PkUBTDYRWLWte/OhLysm1H0qBzbV4otEzCRfBmFQ+G3Fyrl43VOdihFs87Q4pqzf6Wz5b2Ld7BgzcRpQFP4jNRDBlrHs9xbXyUIRB7PZi38LvfZkOtJxORSPlXRAJjjjxwkKDtj1rnO0ZSn91BS5mgrqVO7Ha37Z9/Y6+o+p0yZn4JiuwXYhymHiwpGyY41hr6e64DNxbWFgmnXg8bnfUM2aHel3E8r55vkYK1U/NMZBhRjEQvao7BJ5kUHVnWDPa1s6/1I33FoBzWqmtEAVlsoXZ6nlEPEQTDrs/IuP7557ru2WdLgd9rfnFI0RfRxz2Z9sRQpSr7PKWKfmb5EzkhWsz8LCLHKNEsspCiPP7R8jLnyYOELoMwRs8fWW2PeWKRPXHy7U1+07/gVMOQ4kUd26vhMYeB125DAPeKx7EJ0NZppLxmH2nW7X7DpKnlbyPQotiWUrvHoR7L0ZMepZnVeogc1C6ZMzORjrM86hHu/SfSwfOiQ0VhvoZOtfLJpmaMv/19Qsp0mlVWiNBtxWgKh0sSMailC1EGeZXxk98Okb96VhSUKKI9hiHDWPht1pFMlOAnIpVIAQYTu8XSQXtMI4CH+8+z9v5TT3WLLzy1moD+MRQxvHb7kAXTknE2Z+FIoH7TnlDIyzN/XblL+ZVhELn1Z4nSYqgw36BW5LmuND3kuShrODsYPhSjoJbnrBWyWh3cVsbxHORcrsvmbj1LtJL/ml8xV+48KA95DvLsTgxB5GhezC9h19b5R+5BP1eGQRxDiRzXIgFHl3OURSuP+bmqO6TcmVjd/XcMgvcyvJSJ26xEta8jjKouxdnBLtrLP+A4Qkdo+dhH+ewrsd7nKgKHaLVXPe92/412cd9rjw2FxkejxwMZhXb5zrurUChW+9yDjoT70ODfSej23bzKW7ze6Gc+hE4Vw6CW+UuHijeQ3/aIaHIKySuTazGuWG8eT9poGEy+y70TyQMKQnkTo8SgzDTD5xAZbIZBPJddvJYYB32FwZuAvpe0rT7BgA6SIQhlGAzRFH4bhf9Wd7xdJ1OnMzGz/3zGxGc4EcNguiei2Kws+9vFYh+5bfUcby5yg2jjtSjiQ7vi2RgFGCrVxmOsMIzs1A7aK5N3I8NZQKC8uxUtmJfQGkrFMsyZSzXu4TDbIfGANCFPywiJYYjx1TaR25MjaRln2vJD5i0kWsBQUqLkDI+56QfVdFDeqx9HR0BfqIj4HvI3Rlrez3DT9J/UL+ra7KMKPHcZlAH7mtlEH3WDE5Raj0ryzf57rR6EUENg7lnxrfH/hAgZd/mbN7vl21mpgZDe3IPGnQgBQ2u6N3LfrABR3qZSmLn50GB3fU7jQRga7zavWuOf6jnz3tumCaFD5IVx9ISRMbZmeW5yv+rEmietKQ1RCFEa+Nu+D4yAKEq18dOfZ4UUlkWNJ2/eMaRzzUisTYAwEGsYwh46lnkJPO2rKefm4Wb8OXMNEjWouj7Wr0HBPO2cnE7qkKEYW8iLUsbjpUY5P0CTenimV2XG/8ukpeYRMYQIQ4XhLcj4Uzui5K6ifii9ab811pwczElrroc9SjpD5kqGR8YdwjAgndWemiMpz2MuHXWh5OmqTHbGTmQUT3oMglp8ogyDfSi4E1NEMZCPysvEax552lC2yG+MQhx8b7ydyMF7MQ7o5+Lkm3nU8rfvvrua80G0HaNzjyMW7vlPUj700xoIM0vs4ZfP1RYefmf/8mACdBSEQOMpLA/XPgVnKfCx0t+Nxf7LX9WreztegWEs4YMTdMWvNDwECas+/OaNbvmLX3YXr71eBkd5UcYx61fcY+qfStBHoR1Cw+Mcg0GeTb3NrPPIKwKSMaUwwyteAjMc5hzkjU4LjybhdTpO6sBeBf9aAqlTrKVOtIDxtxgG+4oYVKeZVZowmgiz43HC+ISdx9UEKBeiRhkXX2OwmWvAMqYL6gKXUs9m1rWrU3Bef6X9MIyEiBgTUanrtLNrONjYjMnkXdLQfyYv2nkZBifYxTK8A6WNNsz7vjzGFTFB7mSOBasxjYr6IQokZd8MbZ6HTK0obDWkHR/ItXmVcyjDiegHkG8MvamhVjveduvLkgZkRUVA8k49J2lzjyZeMk+sdASWtP7Fa1na+o1VPUCG76Js00eytPfbb3fLV6N3/Cor4TFxm0U7DtIvAAMm+4AyF+p5Xn89UvQ8WT46V6nIDOlYMnygPFzxcvw2yjD1e5Y+MDSQrEG9ZC1qhhKxvnPWzMczWc96Ju+f2rK4ERKEHpmE+6OfdBf/+C+1Nv4yxgZLeO5NjyH5NHKEIZGC6lAGgbgXifjooqkzEGI1fj5Dpoi84E2rEPLAd+JtLp2GMdiiISgMeNPI66EOOkw8d5+I5xJFJXVtWRGD1jPsmJ9cXsu2okgQKv7P/8xE5HSadKAoAnTMHg8nQB1P2VAeHUbBFzKc6FNZh//xtzKPJe22OuUdy+bhTz3fvzRDi+VBmdTNfgYYXkc71tpTz27mUYqJBpGOmieFwXeC5YkXl3aLMldDiVDgyAtpnZHeODtq00YMtDKMDhUxWBVwj0z9ZIxCnkebouwZ1z73QM6lLfa1UWQYVeR4vkd9crLoL0YHGf1gu7KVUfu+wzt5IxoSxX0ZJ9/FP/9rt2ATOpxIRLroO7atswwZej3GwE/+o1uyDPPPXo3OkGG4yLR91KuWzaqe+Y9IO4xIJ7957J3Alpri3p9/u244KIgsJdl/KgItQm2JcNvXgdwgapBxkcvX4w2IwLx4Kuvm89x4dfunn14NMUHoIACaEKBxoZTwQjmm48ALQINn2U6MjH/4p275Lz9aeRcYZsN4Qp63ryNp7GMQ1K6hUWpXY+KP3OrxCjFkig6TPDI5D547Sx8ApYOJAKuVlvBq4d1kmAHetUMdKExlGKSzpNNMPauy3rnAWjlQR1I/WocZw6A4YUyxOozH1QToyGhzjInPEps9w4lYVYUO+cN0pDUR8ID14urU3by/Us+RZVEKa94GK35FOazhmkfLTdoE7bvKNYYBkQscMswxwMGB7D2lAxmPwpaIaMn2REVrn5Z9OECIkETesI/BaBhQ5w91EHUlWsAzWQlqcLggdWcf9IM4QCLjyvtN/8lv5OeQeSLhg8HLZnkVhap+enaO7t2gDMOU+xtxSPzox6vV0ZDfGEOpv7W3TkW7HmIkUIfoF+GDjsCwZQyCf/zn7gLjgAgE0fZ91Kl7qQ73tHeicqW/pOxr/s4B69f6s2/Z59D1OBoBKjKVOt6UcYjH4zS+IQWzJBo3yQ34hzc/Xv0LBEqEDJNoF+9lzN/LX16Na6bjYmLqupeX+QIYAygnDB1COX4zocEMH0J4XPzff+gufvqzzF/IMKXyBJDmlvAh/bu+IWgJm+LxKe8FY+Lz/dgHApMOkxWJMIiyLCd7Q6zyOSOvw9jbWiEIzxZKO/k91LGuMH0aTxA85yqcQ/2iglH+qR/LrGpR9SRjcN0BeUJhNoWC+R9MPCaKxzyDz6Yz/p94cBnrDd8MS1m9T7jnbT6l5EZYwRMvPa/H1yMGsJzRbqeypbiQ43jJUbB44QRokc+p9zn0eYPjZxmFruQbO28zZLKGfMBql4PrBs7p23rq8ufWDaO5cueKNKWPwKheMo/qU5Fx1AP6vDpafrYt/5wPJ/LEwhOMwc9iG+Ukon+sMt32nkOSpr6lb8AoWGJc0lfcic5QSvDUG1x13ip/1Ydnv5uLH/+0vPoLsswcwq++kmW0n13twUEdRhY1udVui1GAM4i5jAwb+slPu4v/94/dxb/GyMCJyFBmdJDx2BMv+lHKuLUt+rnNtI3P9MMcAhoGc+hte215AjAM0uDxciDMmmHQ5Ni297zv/KEBpuHWahNR7C/wAjB5Kh1AnzGA/fPZdbU2BIoAL+MgDY3GhbcchY8GH295GQA0eoyBvMooyBb0y5qItQdleT3dPB+BzgQyvKekC2/QsQ8EPx0lhgEvDKTZXo/kDUEfYVZercb8kBEDeNKB0amUoYX3kg5zH5Us9/hTJmdnKEKtPJENkmq/jIqsHLvAbuDzKBuU10+n/SWa1z+TIUWf/2y8ku/Ey9bKp73fwPwdO8nh2RfPQSHH8VLGwLEY5jnlyUSZIxJMhC4yDCdHeXpT3qdylGEQpY7FAjKEqNowwwDL0QOveWklKkq0oIwDjCRkDvX9UAd8icBGxpXzowyDfRkimaCdKEEpuVm9p8cDDif6cF6HPJoCjBMpc5CIMFOX9lajqQd50b912RwuOa3c9On7FswbwxCKbOqoy7SnVo85DTnPnDIcQyxEgiHw43+PUZDRBMxXYFJzogirW1L2eyh/bhHmtPOKruLoIl2HrFtF5Pb+dw3a1+2FXQKFTozQN14llLb7FLY9NCIaIg0/RynxafjVUGPd9z/7RQ1f6D4fhaRChnl+ea8j6CpakA6jDIM0epYk5VomKLG6EYpyGQXcm3TuI62VylUDb4osnSoTMhFGxz7CoDpLJk6x82WU3nsRg20TsyqD4oSR0zqwGAYl6A/duZQCmo4aQ6QMrcaTdLUy3DZPw/nlMUqnScfCC+8QYXaPaQTS8dfkVIadYBiwEd1r6fyrTbV6M+1WnhUCyAraFYrUUeXG0JYQhTwXx8agzJXxR1TwpJSXpJd2yjr9GAR5MXytlpQc+oxZ9QkZjveeoUSwOHT+YY4BgqJIFD6LOyxr6NZM+QYEeESuLd/N/Lq331/NyWCFOgy+Qx/0DemXy5EUnhUVaZEKsjZXfre+mzmJ9OlvvdNd/DEbnTEaIEOQV87DDDvOyAKGO5eOgJ6CkyznL1nClXmH6Aevxhh4PXMVYiTUvAVGHFQaSec+dITcLIZ3zwINLKgBD5yq8PA4GAHpHgztA25MJ4EwIxTGeFgaXgTAEgGKIBob1AOu3eqnPIf7oeh+GC94BNxFPLw9ng/G/+HVKQU8jR5BR7pQ9vCIIAyZkFZec8ZXJryId4m/l+5HY+e1pyPPrrkFdOw0ejqVGvoSJsc+hrGXFTFhch6ekbmTp2AbIVbDiJo3kSFch1RgeCYHwrwUprB9LGOv8WzuoY4ta2Wij1aRKKIqGJNQZts1AAAvqElEQVSpH/3sDmuV7LP/n46fdvfn6eDYIZZJyGmPSwzIi5RdbRpIGQ7lePZAZmaw6nlkGTKtDTMgAlptd+a9J1y+Wr8/HkyejYcXJbUpchOuP9op8GgOIBRC2i3f+X0PcqGilMibyO9aqrXJoUNlEM86ji0cSUThaVN7cbgAI6/0h7XRGRN1I+f6iqwcwQHSdAQUYIZlfSbGVluwYl9lhWwpHSHxAqLk9PuJivQZXta/9uvVRH6em1EN5ciiPqMDsOs9cxiJLGBIZBRCLU5Cf1lzpJrc2qPsokyJuMeZWnu/1JBBIoMehyIwGgYfRAFsOwc+njDNE2lwdw6pvBwqRyd/3yjCeFOezCZHT2V88SfT+BNFWF5EKe/S8PamDKw1zDTo8u7iHcLaJ2pBKI4OtXl18CTxwitAZ0G4mbGoCEN+W7b7tfe5oCN4uRWdB94RDCXCl0/mvSIpY9Wc+6DJ12P8YBQRNcAoWHnSJl9++cRkjeyVkkCHSb4weggN76UDu/zI9V/6mpyX6BQKEyumLOJRo4zpEOqgAHY4qkNJXU1nUhEDlAzqDL/XLXe87w5JuZGXUCkiW6tcvpgJyM9leF92RO6fiAcOpjV87RoM4xsJM4kulmlfOBbSxlDMlywicJE6WceB6yP9JN5MogW8UFaP0L6HzE1/q4UDIs8xCFi9h6gByl7Jgz0wSp5LicTxQb9y6APGGAMYZLxalGJffWgpwqlHLETB8Bgm2yI/D31Qn6hHzAVkuCG6AhvnxRBaLimvfSVgKPPcb8liIuSTPp+hRNRhhsaxWR0TkTHCEmEomY8RgZzCcZa6VDpCzcXLOXXsoS7VfehPMhQ6z6+2/XT0A+QlEVYMJY+9EmAlLl5305df0r6acbDXJ3qz+wnQ6FiuEIUgw3qWn3wzjS4WOIJorwcNNI0LWZbJxdX4f5/GXNpq/sY7B+/VOeQz7/m38lryx3Zw7nB++2nuO7dD4OBhQwDiPcUbcB0RA/I97ByNB2U1wRpwu+S7AK7owLYiBum4YhyUZ4vyR/gf+sDwgyWep3jVlnSidG5Vz3Ypy4EFWCI8lqlLbATX06HQSWAcYIyc2kosh+a87f2pE0O9r9WJqPdZ5rL2NIBrlQ91aJcy2jYxZ3A+banmbcUwYIgkBvhHqY8oO8c42vNx8tDGUaYo31M7MDgxBhgvnzZbkWHa7HgM7Xv8/qgPg5yry1IGOJyGXaiPkn8ioDi4cLRQ/ulHKmoxOzK6anc1vwy5hlGAswgHyJ/vu49+AGMMHljGodNHGS5FGEMBeV5OAwQwxz7kQ+5RxZj/MAroH4ggNBnFM6nLTUcgqp40FBsMTa6to6Wlvbff9/Ce3bRrtS9Wckt0tfvc51YG4R5u7S0eTOAEpdeDE3pWv6IIf/HZrvvSi93iizEO8JKzlXys47WWtqcs01Dbi+LO5yYIxihBGnv7XIYBJ7Rr1t/3lKR2mwgblu1kHGP/xShHrIbAOuAI+WMozi0dLc+EQhGKdAJjh9ny307e8h2BinDFGKDjohM71sQpDBI6F4ZnxTio589WWJKf8Fp+lDpDh8l8DF4oG/A7hkdtyyI4udOpEygveFY/m06OxQBYpYgywjt3r7c9uaSfZIIGxbzP0IdatjQr49TywAfluNKI4s/MELDM5aGdUX4MoynP9Ql2rTE4KyKaVepYUaw8xPft7I6s2+FIXa6Jxwz3iOyuzc2OEjFAtqa9RLaykEf1I3F+1FLQO2blvtzTL8AM44C9DOgXymi/76z9f0E+YBzQXxBFz8plFV2k3+D3gxwAG15NPyDvjDJgLgpzC3hneBUMRqNg7bq6ft+JS2LYGDRDqmqneGQlkRRYeByMwKFq2cESfBY3plLH6sU46F94rlskelAK40E7staAB4Kt8TeleP39Psgb1933t12/1MNXQo7OBG8pqyXFMKjOlbWKUZyOdZB3DAFC7IydxAM+GgYzEtEEPJ0XBgHhbsoeRYa/HfrgOXgwGctOx5lwdH+H58J/1yPXc3nGcDO3gE3Oah5KW7UDlh6PJkD5UxdQJtnLgAhihgzU0IiDdLCPTtKNPYN6TtvKHJ5SIFLfVwbWcXJUQwXLAI9hQntr48GP8/jpT0GmMVQyMq7aLU6QUc7tKo/S3nE2wJ+8t6GSsx0QE7JFG6LsiYSGf0WKkLPI23ES8gx5hCxDCSbKkjl31TcwtPYYR/JWK9mxOMEwsqCMT/J2sGOtDoCN+QxEKBgmRKSgogX5bZznwPntdYBEcesYQgzR65/FcfjFlVFQc/SOqB8cIGunfsuRLmOLPI5EAGGGV5yxg196fqUU42kZFYJDlkVryFPfD8UkvrZ40lnej43X+hdfXDV8QtHHPvBy4xWKR6g2s8E42McwhNZxoQASMeCFYOd3Xoc8uD/PIgRNp/nJdNzsuD2rwxzqDNWTsa4fsUJFPI9sdMbqREYMtitRomVED1mEAKM4Q4q6J6j/TSwfUg5sl9STPns0DFLPh3kGFaU7QqJLZqed9dkvpCaJohijqB7MszsjUyi5tNPfxTDIq3Y9Hg2D3e+7kuNEJjNZFVmDck6ZHPyIPIIzHmXmlmBkN+fLPuRrdCKGzJS3/P2swkNk9FiGAeySl/7ZyIWMLOi/+FyM3kQVqVtj13EI+TDI+FHhb9+RSbza9/ZOQg9xJG8pQzZ467O08+LLXwqHF2IkpH5V2fJ8j0MRaD1QWAv6UJAv3RdhFmWxxs29lAr/ykurXYkRqrURVWlely7b/w+tcW++7/9J9+5Ig883PErJb3lDYBDh17EzM8rzsQ8MA8ZW4k1jNaZ9RgxQzskTCnrrMI/V1gYDtFYJwRDFk1kRg+R352OQE4SS7w7MMKjYDIhhCQ4lmk6W4RYMO2HZUnZBxiuG17UWBOA2x5ID05N8kmfSnjC+ca4QLWB/GIbvHexYL5dBecHBwZA92vmJGgYrJTfDQViGORG+ivjNbq9hAWsiktRjDCSU82MYRtVtDWWPUcBqe7SfGAp7ef4YMYgDJBuELjEOcH4c66AesSgHw43pI194vqK/9yIih05IAc5DHvZ+qOev2hfLz5bTJPmvzVmff27Vvio9h3q294XAaBiI4xoIoBi/8nLXf/ubeY9xwHACvLqrdUGvIUGHfuTQocZrXWNSM7di8Y2vdovvfDPzLV4YJhWR/yMfdI5ZhYmVmyrMXiH2eNdmCaDkFe88BmALs6OcH8WTNvBrIX4MTpSmUlgQ8kM5zMKcezChPbv11hjccewp9/aYRKAptCxjG8OgdkLG89k2PZw15GtSCs7jJDjSrjDAYYnXvtrZ4eti2fgYJTwXj3kZBntSTPddOgwLYVjMf0fRZRGKivDtgRGRXxTzzzGXKQyOJudS7imA2vgqz18ZZil7Ju6OkdFdISIncyQyitNjmV2CMQzKgXSs0RXUYSLoLMzx9a90/TfyYg+iYxleKwLX9H/qJUNfX0yk5OuvdH12ZO4YSkTePQ5O4JAD1g6e+Bv/ACo5K5J85eVu8b1vR2D/Vxyu8UgwfpvJnQjys7Hd7nVAtUNohlEtXvpy13/3213/za+vdmNmstV1HG0caQyCWrc6HrUl4ynnHnjN8NJHWahQN+/HNAyYp0EnyZhMOusa+zx0eHPzxvUYVCxbV0sfJmKwL0VjH2m7CfcYFNra4+KpTDBEFqRdLPF4E7Uq7yTtZo9ldhO4bJtGOPIqBT2GFd77fF7y2z2xs+1dH3F+bsz9K+qTNsZKSBgHtDWihKWYPuIWx/oziiwvhsEwlIj5QLRbZBzjxXeuX1yb1xAxKMMIDi0yepT8pQzgjZMN44A+ZF8RA/JW3GJEZcJ2zTEgsky0lH6Z8j/kwf0ZpvaZTLb9ahyIMU4Wr/2qu2AY2JvZP4DJ0BRBHQdOS3vMQd+H+pQ+kv2dkIeLb3+jW3z3W11HtMRJxwelv37z0TBgjsH6cCLnHKxjOtBnlEQEWir94u/+atWZRHBf4NX5IB6KP0UIldCOELonAQ6UmEPedmjwPAL5lQ50gTH0g+91i//1g3gEvrrqVA+ZhKvuHcOgogUoY/+ZVzZxqU7zqmum/A2PfQ0jiqLHEAd2kTzoEIeNRNGxUMdQmDBCScu4WggFwWvsWTYuftTXXFvrWqeuNmWDyduJInhMJNAUCzpBVt145qmsUvZMdhv/9SoSEyWEElqV0erTxDvfytNqEjBGAQr642Ha30ntTv1GuRtI7hUMyj+rSKEIM4SFaAFtrdrYCZUX+WcuwfrqOhgGOJ52bf4jyNyAiEE5P8IdB8SxV2Uanr/EKMEwoEz2Zpit2K3vb1MTkhmS2drvyOJAH1jpKmPsF6wCxw7DMQj+lGGvOBKrAMcyPKE6txMKMpKNMuPAYvnyxVe/0i3+9q+7/i9+uHIc0raOuSjJTnk4j4tGw2DdKCBrm9/PI7snlgs8yryYhBzleIE34p33aqz2xc9+Vp+XH0V4j+NAb2LDH6VWeXLwnC+YRPT973b9D77bda+8lFDpUyuvz3UVD54zvC+/zdreGAV/iGdt9KTtzryPgsCGP6uJccPEPLxbxzrouKhfGUJUacg66112QM6PQwrWymbrNOXeMELBIMISo6qHIV5JFJFjdZpbp/vELoATigzeToYJ1AY+ec8mQ8tu6PgPodSeGIa9JKc4xtHCWPco6rVvBxs1VuSVJ+zeli+nL3Uc5ZP2nWdV+2K4Hu2bMj2l+l9DJdMuUSyz7GbtdEtfMxoGM7ngAMEoYggXzofG4DK0w/yCjMPxUVHRlMegQM6RbpXQdgM4MfQKBwjGFTKOZ45y9DDZGu/KENDoCCxvXhH2RLYX2aH4ImVYG5aO8x5I8MyyHB96zA+kO68YWz0GPUbBN74Wx2F0hO98q+szsqCGqI1OrWOm7XY+64hayu0EPCnXNPwox/3X0xhQtNggJ0rXxR+jsP42y0HyWwkhhNFNavhDgy+3VBp9oiOLl19KlOD73eLv/2ZlHEQZOnpHslkoTJpNeHZJuDiCf7V5C2nf5Wh5zrXpMGvVmWHFklqL+qhDiZIGlBc8MKx8w+tjf5YhFmn2tZM1ad2lPnFN1m8fOsxSNFiZiNWcqKsoInScp6QcJcUne1AnUGrY3I+JhqxO9OprIbxL2ZxsLg+fsCikfca4L1n+mImo2dSv5sEwVPAQLIn+oRDXhOfBW81vp1bvaY+ZC4SHuWTch5F1USZrF/SdS6XJuYw0SP2tiAEsmlFwTAbIGowBjBL6UtJQEYOWRjK5a1vKdZFztfEXEVGMK4wDltROUR/lgCVOJvY8ydDbBeX5uzgNkq6Ln7+6mvtQUbGWml3z2q4/5jtllPx0d1dGQfqoxcsZTfC//7Zb/PVfdmUUMKmf8vU4GgENg6OhvuJBCDKUA1YmSaNf0MjxXEexvPjFLxI5eDfGQULBKGIl4NYb/vrnK55xlD/RyNuRzwg0lGO8ObXk2AvdIpGCxV8mNMiEa8YN0pmU96Vdd+T3sK5NWxhGFOOgJpcheNezsmuS8HAQVseTyDJrcDimYUBdYfMhxtwyOZDJkYyBXqS+MeRn7Ex2qUO5hqFEf4jXiogBa6MzaTse2p57U/bHVA7Wy4js7JKl9Xsc8zP1BKUm5cMmPj07fKbOLKkrRGVmlRMZGWDcNC7blgFylKFEtTrOsELQH4i67PtYCQeiAxUp4Hm0rRoqeIJdKvIMZZa5BW3VNSIp1KuqW3MqRq6lnhI5iXw76hyqVqwYAYkW1So2yDoiRyV7yNcejiEySjQZGdcTOTj2strkJ31lz8o8iVgsEt2uPKYOXrz6yzhlspoeQ5DvK9OW9z1xaLeb9b5qO0novbswFIyJxnGOLl5+pVv88Afd4i8yxPibX1tt8IZs9DgqgVGKOcfgqNwvP4yGj+LIpmf5uEC4fT4exP/z8e7i337SdW+/U+PgVxfS0NuLX/h83QcNfeOVDoNdMGsS0bcywfj730mDj1GQyEjtcoxRcFRFeYMRQpROk7A6O1sOim003iEvG+dv+3Xdk1XerHRaxzaCqBooTIxTbRMDqVsMUUOxn3O0oUQoHBhWjHmtCci5952Z9941Xfc1hfu+7HrHw19Hg8cDiYebHZAZNpCyqgm0NRQGlvvIy3APnneOR9XzGOBM1owXn2hdGVfrSsjsfK/Va9ZYJzLBZpVE41j96zrl2cPyxhyqKI0otSyuULKuDIO001n1iphW6hLebOQbkW6GFR37oD7DHa9yXhhsS4ztytucuj5cW5FR+ojINyKjibiwNOrRD/KIk+n5ONT+ftEtsqpf99k4E/7h093Fj6IjvPlWnFxJZ02OJu3tRUrncNhXTmk77UXd40gNitxjCOUiOsLi7/6m5h6iI3RfSORUo2CF6cj/j4bB5pyCze9HTtftfByCjc4tymMf5W2B9wPFNR3OxauvlnGAcKql5tqqRdVPtUYGtnUBsP55n0jXOsex082zUHprnGAEGMNX8ICyeVmWZF388Ptdn5WXagWibNpSRhB5vc6j1uLPMCLCw++xHF1ef0y4mM27xnyt53VqYnMN6BHk1WHG4GOCIuVbIe6p99nHeUkInJmQSdSgdd53yRf1ho58lzxyWRSO7IrZ/wHDIJ0lxgGeSeZs3KEe55yjHEl/85RVtCf5Kk9oaxfbtANYtNdwn7r3ATMyKDa1ogrrlj+dOQZ5X61ORKQwnX0d2+RjPb1DfqjvZQzDa/3vZ/KZ9sYkYOo5KzvFC4k8WtVz3nflt8mHehWAeDoxuBMxqGcyHIw0nNpRii2bESaqx07ltFX2ICkHSEvvthUi54Mz7bwiwjgdYE+7P/ZRq69FtiJjmedAOSDzSF/JARK0bf7uZWJZq9aFH0Ml00/ULshPR2k99kH/yosIFXI8fewi/ckSBxtGcA0rytwk5DCRXDbpxPlTDFr+19vA+ud9ZqY9i3uuf87zygmSdoNz6hPpFz/16W7B/i3oCAyT+pu/6vpMOi4HCfXpXJ0Y+8R9gHtdQys+QC7O6ZY0BCIHETxMXl1kwihr+C5++h/dxU9/ltfPu+7Xb0Y4pfFHoV3+KYpteQgaBLSx9Qa//rmds8v7egPn8/qL+6WDuRNvzScSEkRwfeHJjk1ZFt/6RiIEiRZ8LY39uaxJHM/a8YfUkL4HHCiReFgi8C9+/Ua3/E24/j5KLobB2KE84LorfwqXlGHPEJ4KkcbDgyeRITwYBtexqgJetIy9ZgfJCrenimQGS3KRjqO09x3rSNW7GAd/ZOxyFI7sDNpjZLECCmN9j3WUspv80IHzbF5L8jYocPe1h0clalWv4dNzD4ZFoVjtXB8e9bz8vXV+GJEYBuxn8kxer38mQwijzP3PR8kB6aJt73KwNk/GglOvMdp4HTI/uyRxH9eURzXtDOUQZYk9YRZwS37r2LGeD1ev3lb1o+oWOnUpN2nfPBPF9CQNg+Sf4S8M9/sga/F/mLlUd+MA2ZkLDNImMAKinNbwLeZ1sIcBCt+xD5RlhmxGzvafjYz7TGTdx1P2MQqXWfp7Vdd3LPuqPlGyf0+0JRucEbmPcdATZb6ugzpWkfhnYgBFtuN8y6pFy3//aXfx4590y1d/1S3feDsrGzK8KOWMPCxZSILh0F58b8eOfNrl43trH/ww1JP2N/o+dAQiBNnzon8h86myPwOrD6Hj9F/O8uUMlSJiSv/R5GK73vejEbiGVny0vN3cB+HtQJnMO0olHsQl8w+YmJjw2kUafpeGj4DqPkxok3XkSyFCOYoKgJcApXccn0wDbcdUAbB+DdfmOhpqPBQ94WI8cfWezyi8T6Sxo3w+FYPg2Qiq557tFq+koX/zG13HdubPRIjRcSDUTqXBoxzBDeFZXpa8F/N08jsfuSf5w5NGJ5VlKGtsf1Majpn39iyGqcAepRPvJsMsHks6WV2jZtAlvTsdmZS3zD2IbKGU01lyz1LMN+vPTg+YdlHxph6m3eAlxot7N59L+c3v1RFOuxWd2TIGT09HStievFHPd0U09bHkgXbEEAUMgxef7/o3f5PxzPFSpi33ff62k2FAOeQVFjURHkUOTkePXE0FMeO8UhCTP1YJYmgPS8AyMZiJt0y430shDjwxHIlM4OhIOy95jTJDGk7tKAdI2mWG+TH/Z0kamQ+AorYTF+pT2nvyW84GFpBAmYM1fdexD/JD28HDnHRUH5SyX/7Xh12PPKIf3Lnscy33L4MvsiHLhC4ZOhnj+tAi4aEYkRVwZj4NTkTqYYYVlTMhc5Quns+E5F++HuMgQ4vezfzEmjuXvq0iCOs6AuWY7+AZDQc+b5OzupiLcuQ60gavvPrSEUhrvpPezMvoP532kuGSLMvcvzw4Dl95aTXf8MkMo0TvoSy5j8e1ERhbsXMMrq0MHvzgpiig0CGA45HpXnihu/Otb3aLX/+mW76Whv/aaxEAeb0dI4FVChBYCSHW0mq8RyguL/CYNI8Zj2oNrr23x683cH5r33nnXBp7lN14NVlnuBSwhC9r+EPG9NaEyVj7i6+8lHQmMhDlpkuHwYZNpZTiDT0loyA5qiw2I4rvydfi89lgCuFUeDYZcdIVRymi4YXxFOHWP5/5Il+MkvdkhCHMEJjXIfBQBOlEIpD7GJgL6suHySPzAWosbtK1yxElo0/EqqJANYwi9ymDlM6m1Z9dbrzlNXCNx7A2tnoqE9iYYIlxgkJQys/EchzSzAIAGAeLz2cSMMYuE+NKMdgyXdueXkZpygUP4MsvdYsy/KOIPEbbSWdJPsf2O+XmyT/FgFGAcfFU7osiyyRZ6sR11MUpyd71HPJDfcYjySRu5FAiWd0d2h4OiR3reUtPa9+tnjyT9j1sSlcRCgzwE2a6miwdOfBk5HI8zrWJY8mkLbmgTNL24+xgfsUCzpkwX3L+OpQ6mKN4YhA+FSPluSidb8QxlUgfqy9VxI9zti6bNRkWRBWJwKAeoxCtYlzTe8s3MgqjFB3hxRe7O9+PfCf6Hd2AUQbL17MvCssfYyD8PgYCS6/+PvoBy51iLFyKriaPj5QzjU1755IMEaKdUQcy1Am5WUNXcdRkZb6KbLDkKq8v58VOxnF0lkzCqCMPlOPW5XRN/M/4sSmF1bE5p2DzezvP9yMSQBnhhVJN448QrpWLXni+W6ZxLX/9pZVh8NbbCRtmKAcTywgXYyQwFyHh4z7eshpuhMJGh5a31fua8lZtO//RIBF86+/53NN5EDb+WAwBGjnjSfE6sxIH8whIF15OFOEMH6rlFvF80tgREqV8HpHb1EeRT/jCNoJqwbKljM3E+/1IwfiQh+BtxsMcxauMpQyhInrCWuezFZOHPPKRPyNsKbPM7WA1qAX1iaULUZ4jzEdBvCbjH3lPTkBByD2qTuABylCxmssAU9ge4+A5dChMOH2RVa++0y1RDuLRq00aKx1bpIU2Uu0k5UieUi9qGVEMu0PniXaGBxCDmnG2qYcLFLh06vc6zC3yUvxbfmIc4EH/2svJ11AfSync9n7HKNQZz0gZlXxiGCPDAtPulu/HOCCvu7bp9eSUUbBqKLXeOru2xyHSs0fIMev9epoe9Zn2j7ODsdyJ4C6Q21lWuJYb3qkOJP8YmmkTNWz0Ky/XMrvV9nnWsQ/aJeXOcK7I2u53WfY7ToEl8uiPdyOmIqfmGIU95U37iVc+ijdOuookHjufm88b8l36ATI9Mh7nDwz6yMJloo6LfF6+HkciKxu+n2Fk0Q9qv55EyIl89BgKGU476gg8Ax2h6QslD4cHN1HBc1u9qWa1+t7jvMBBwzA+0sIy3egHGdpFZK2GSGIU0F4igzr0hqYjcE+PkyFAaZSUez8TLzEGeD2Wxv1EKtodBJ3H6RCgsaLM4QXJ8JclHR8rJbCiDg2d8aMJHXbvZSxkDIUSABgINc4wyi7eAa7nPcIAxaOUp6oB+S8KbW3QgzLPCyEfAVBCEO8QnQvjNyMgCQfWO14KOhoaeP7eM+kP5QbvWcbYl0A+1UaPAUCoOZ5Zoi8dghMvU3X+FPu2wqpArvRH2g4CMuHRipogBOFyHSzIJ8N8kr/lr16PEZl8VjRp6DBbmlbJ36K+5wI8h9QTDI/kkaFuTI6r+nNo+VGdVtLAhOd4w5g8zsoc1Sbyt1U5UoZTy3EAMNy3FA2G8DFUgjzR+cKq8dqC1KRTeS5tPAZ95eW9GAR06MzbqGe2fLT3R911yA8iPvfGw4tXsZSHRFZKWWwd/KNudZP+zq6wb8drikFF20b+jXVgKrsHZbjxXP2tFKAWFSUyStTskPXjQUma8hvtgyga9emtd1b9RerZToZzPW+oT7TvqlNR+vD+YpxjpB+63T8sz5TzBynvdyMH0m4qgl75zAVV7LuWPeWe9kP7JzqO44G9RugPT+kouYWOMMh75iC21fay+WTtYUGboJ+jXcSRWBOVYyDUUqf0hURZ0RHYjyaOsjKqkEkA5B/1m/J9POVM1BHZX++JFqR/G52GRCZZNYn2gY5QCwLEeMZgQFegL2x1BRnkce0EkAe87uLsS2pK2mkYXHu5bJ8ABAGNFiUfyx8hgHJUa1XHM4BRUDv5DiHDMgrS+FES6SxGw6CqwMowwCCgwTKZK58rWkDDZzgFim55ATJ2noZPVCDe9tqGfjAi7ldgts/SUa9o/OCB8sU7BzhoGav/+DDxGDhyNsIOAYqnuYRouF6XAGz5RPC3fJawTzrvUzgnZnM8Lfnl3q2zoN7QeVKHjqVwtrwR7cFgrlWR0rHdd1Rh3vfLg7+slR/3LcVn6MCOlaeWH8qKF8oOht19x675SZ2kLlb7zjtttsr/vpvf/C/N4C85lzbN0I/7jqn87rsoX9bqB3+CX2N5rPqxmaQp3x/Eo2VlVznH9dXuU6dggKIHA367rjpVfSFyYOjf6O9m5bPBzU24D9F0HF7IdPJL+Z/ygSzh1cofg5nlVlmZis0840ysXev/O05G9kDAYdgYInfCcRnHz2qORjKach0NA+Q85U6Zh0OtMsTwIYYpVrQgegHOFBxirIiXYccle47VL5xyuZxo2h5oGLwXb8IihdYiBh9LoRM58DhxAk2RoPE3xb+UijTyfK9hMayqgieARl7nDcKTzyU8yGP+TqOlzGnsNPpaei7CEIFINKE8Bfk75/D3di5DZ2osN/fJuTfpWOfXlOV9pL91kDBtwvC6Okzyc6h8NlbkreW15bf97dDvVYeHOt7q9D6eeV15amXF+17zEyi00/Vy2genU7tH40d75sX3QxzXVT+2zcsheTQG9A185nVdB/lsed1nu1nPT2s7Lb/rfzvFz40J7+v6QX1uOkLaSOPVzmPCPnpEtZ/8vfXrlC95r/4/egKfGSq8riOUXjDoEYPhsDoPPeEa68cpls8JpemBhoERgxMqoUMlpYQEQmAlEFaNnochUPOG0EPJxyDgxXcPCUhAAhKQgARuAYEoAhgDGAVlLOQzekMdGH75gF6A8o+OUA5Blf0B0I1+e6BhwI8et4BAGQcpayaOjkXePtDwN163AIlZlIAEJCABCUggBJoDsd4hsqYf8BU7oBkERgAgcnYHRVylrmFwdmVrhiQgAQlIQAISkIAEJDCZgGNFJqPyRAlIQAISkIAEJCABCZwvAQ2D8y1bcyYBCUhAAhKQgAQkIIHJBDQMJqPyRAlIQAISkIAEJCABCZwvAQ2D8y1bcyYBCUhAAhKQgAQkIIHJBDQMJqPyRAlIQAISkIAEJCABCZwvAQ2D8y1bcyYBCUhAAhKQgAQkIIHJBDQMJqPyRAlIQAISkIAEJCABCZwvAQ2D8y1bcyYBCUhAAhKQgAQkIIHJBDQMJqPyRAlIQAISkIAEJCABCZwvAQ2D8y1bcyYBCUhAAhKQgAQkIIHJBDQMJqPyRAlIQAISkIAEJCABCZwvAQ2D8y1bcyYBCUhAAhKQgAQkIIHJBDQMJqPyRAlIQAISkIAEJCABCZwvAQ2D8y1bcyYBCUhAAhKQgAQkIIHJBDQMJqPyRAlIQAISkIAEJCABCZwvAQ2D8y1bcyYBCUhAAhKQgAQkIIHJBDQMJqPyRAlIQAISkIAEJCABCZwvAQ2D8y1bcyYBCUhAAhKQgAQkIIHJBB5rZ37wwQdd3/f19fHHH++eeOKJ7s6dO+3PvktAAhKQgAQkIAEJSEACZ0ZguVx2vO7evdtdihg04+DM8mx2JCABCUhAAhKQgAQkIIErCFwyDK441z9JQAISkIAEJCABCUhAAmdKQMPgTAvWbElAAhKQgAQkIAEJSGAbAqNhwNgiDwlIQAISkIAEJCABCUjgdhIYDQPnFtzOCmCuJSABCUhAAhKQgAQkAIHRMBCHBCQgAQlIQAISkIAEJHB7CWgY3N6yN+cSkIAEJCABCUhAAhIYCYyGweYcg83v4xV+kIAEJCABCUhAAhKQgATOjsBoGGzOMdj8fnY5N0MSkIAEJCABCUhAAhKQwEhgNAzGX/wgAQlIQAISkIAEJCABCdw6AhoGt67IzbAEJCABCUhAAhKQgAQuExgNg805BZvfL1/qLxKQgAQkIAEJSEACEpDAuRAYDYPNOQWb388lw+ZDAhKQgAQkIAEJSEACErhMYDQMLv/JXyQgAQlIQAISkIAEJCCB20JAw+C2lLT5lIAEJCABCUhAAhKQwBUERsNgc07B5vcr7uGfJCABCUhAAhKQgAQkIIEbTmA0DDbnFGx+v+H5NPkSkIAEJCABCUhAAhKQwBUERsPginP8kwQkIAEJSEACEpCABCRw5gQ0DM68gM2eBCQgAQlIQAISkIAEphAYDYPNOQWb36fczHMkIAEJSEACEpCABCQggZtJYDQMNucUbH6/mdkz1RKQgAQkIAEJSEACEpDAFAJ9TlpyohGCKbg8RwISkIAEJCABCUhAAudJYIwYnGf2zJUEJCABCUhAAhKQgAQkMIWAhsEUSp4jAQlIQAISkIAEJCCBMyegYXDmBWz2JCABCUhAAhKQgAQkMIWAhsEUSp4jAQlIQAISkIAEJCCBMyegYXDmBWz2JCABCUhAAhKQgAQkMIWAhsEUSp4jAQlIQAISkIAEJCCBMyegYXDmBWz2JCABCUhAAhKQgAQkMIWAhsEUSp4jAQlIQAISkIAEJCCBMyegYXDmBWz2JCABCUhAAhKQgAQkMIWAhsEUSp4jAQlIQAISkIAEJCCBMyegYXDmBWz2JCABCUhAAhKQgAQkMIWAhsEUSp4jAQlIQAISkIAEJCCBMyegYXDmBWz2JCABCUhAAhKQgAQkMIWAhsEUSp4jAQlIQAISkIAEJCCBMyegYXDmBWz2JCABCUhAAhKQgAQkMIWAhsEUSp4jAQlIQAISkIAEJCCBMyegYXDmBWz2JCABCUhAAhKQgAQkMIWAhsEUSp4jAQlIQAISkIAEJCCBMyegYXDmBWz2JCABCUhAAhKQgAQkMIXAY+2kDz74oOv7vr4+/vjj3RNPPNHduXOn/dl3CUhAAhKQgAQkIAEJSODMCCyXy47X3bt3u0sRg2YcnFmezY4EJCABCUhAAhKQgAQkcAWBS4bBFef6JwlIQAISkIAEJCABCUjgTAloGJxpwZotCUhAAhKQgAQkIAEJbENgNAwYW+QhAQlIQAISkIAEJCABCdxOAqNh4NyC21kBzLUEJCABCUhAAhKQgAQgMBoG4pCABCQgAQlIQAISkIAEbi8BDYPbW/bmXAISkIAEJCABCUhAAiOB0TDYnGOw+X28wg8SkIAEJCABCUhAAhKQwNkRGA2DzTkGm9/PLudmSAISkIAEJCABCUhAAhIYCYyGwfiLHyQgAQlIQAISkIAEJCCBW0dAw+DWFbkZloAEJCABCUhAAhKQwGUCo2GwOadg8/vlS/1FAhKQgAQkIAEJSEACEjgXAqNhsDmnYPP7uWTYfEhAAhKQgAQkIAEJSEAClwmMhsHlP/mLBCQgAQlIQAISkIAEJHBbCGgY3JaSNp8SkIAEJCABCUhAAhK4gsBoGGzOKdj8fsU9/JMEJCABCUhAAhKQgAQkcMMJjIbB5pyCze83PJ8mXwISkIAEJCABCUhAAhK4gsBoGFxxjn+SgAQkIAEJSEACEpCABM6cgIbBmRew2ZOABCQgAQlIQAISkMAUAqNhsDmnYPP7lJt5jgQkIAEJSEACEpCABCRwMwmMhsHmnILN7zcze6ZaAhKQgAQkIAEJSEACEphCoM9JS040QjAFl+dIQAISkIAEJCABCUjgPAmMEYPzzJ65koAEJCABCUhAAhKQgASmENAwmELJcyQgAQlIQAISkIAEJHDmBDQMzryAzZ4EJCABCUhAAhKQgASmENAwmELJcyQgAQlIQAISkIAEJHDmBDQMzryAzZ4EJCABCUhAAhKQgASmENAwmELJcyQgAQlIQAISkIAEJHDmBDQMzryAzZ4EJCABCUhAAhKQgASmENAwmELJcyQgAQlIQAISkIAEJHDmBDQMzryAzZ4EJCABCUhAAhKQgASmENAwmELJcyQgAQlIQAISkIAEJHDmBDQMzryAzZ4EJCABCUhAAhKQgASmENAwmELJcyQgAQlIQAISkIAEJHDmBDQMzryAzZ4EJCABCUhAAhKQgASmENAwmELJcyQgAQlIQAISkIAEJHDmBDQMzryAzZ4EJCABCUhAAhKQgASmENAwmELJcyQgAQlIQAISkIAEJHDmBDQMzryAzZ4EJCABCUhAAhKQgASmENAwmELJcyQgAQlIQAISkIAEJHDmBDQMzryAzZ4EJCABCUhAAhKQgASmEHisnfTBBx90fd/X18cff7x74oknujt37rQ/+y4BCUhAAhKQgAQkIAEJnBmB5XLZ8bp79253KWLQjIMzy7PZkYAEJCABCUhAAhKQgASuIHDJMLjiXP8kAQlIQAISkIAEJCABCZwpAQ2DMy1YsyUBCUhAAhKQgAQkIIFtCIyGAWOLPCQgAQlIQAISkIAEJCCB20lgNAycW3A7K4C5loAEJCABCUhAAhKQAARGw0AcEpCABCQgAQlIQAISkMDtJaBhcHvL3pxLQAISkIAEJCABCUhgJDAaBptzDDa/j1f4QQISkIAEJCABCUhAAhI4OwKjYbA5x2Dz+9nl3AxJQAISkIAEJCABCUhAAiOB0TAYf/GDBCQgAQlIQAISkIAEJHDrCGgY3LoiN8MSkIAEJCABCUhAAhK4TGA0DDbnFGx+v3ypv0hAAhKQgAQkIAEJSEAC50JgNAw25xRsfj+XDJsPCUhAAhKQgAQkIAEJSOAygdEwuPwnf5GABCQgAQlIQAISkIAEbgsBDYPbUtLmUwISkIAEJCABCUhAAlcQGA2DzTkFm9+vuId/koAEJCABCUhAAhKQgARuOIHRMNicU7D5/Ybn0+RLQAISkIAEJCABCUhAAlcQGA2DK87xTxKQgAQkIAEJSEACEpDAmRPQMDjzAjZ7EpCABCQgAQlIQAISmEJgNAw25xRsfp9yM8+RgAQkIAEJSEACEpCABG4mgdEw2JxTsPn9ZmbPVEtAAhKQgAQkIAEJSEACUwj0OWnJiUYIpuDyHAlIQAISkIAEJCABCZwngTFicJ7ZM1cSkIAEJCABCUhAAhKQwBQCGgZTKHmOBCQgAQlIQAISkIAEzpyAhsGZF7DZk4AEJCABCUhAAhKQwBQCGgZTKHmOBCQgAQlIQAISkIAEzpyAhsGZF7DZk4AEJCABCUhAAhKQwBQCGgZTKHmOBCQgAQlIQAISkIAEzpyAhsGZF7DZk4AEJCABCUhAAhKQwBQCGgZTKHmOBCQgAQlIQAISkIAEzpyAhsGZF7DZk4AEJCABCUhAAhKQwBQCGgZTKHmOBCQgAQlIQAISkIAEzpzAY4fK38XFxUFuvVjs15YxnfLcZ0W1fu6TZtfJU577IKCcV87vox61eyiXGon9vMtzPxzbXebyPJhh8Kc//amlca/vczO8mRjTud8OQ57y3Gxjc77b3ufQu3ytPC8zmfOLPOfQu3ytPC8zmfOLPOfQu3ztbeF5MMPgUB6ay0U17xfTOY/f5tXy3CQy77s85/HbvFqem0TmfZfnPH6bV8tzk8i87/Kcx2/zanluEpn3/VR59s8888xyXta8WgISkIAEJCABCUhAAhK46QT2O+7hptMw/RKQgAQkIAEJSEACErilBDQMbmnBm20JSEACEpCABCQgAQmsE9AwWKfhZwlIQAISkIAEJCABCdxSAhoGt7TgzbYEJCABCUhAAhKQgATWCWgYrNPwswQkIAEJSEACEpCABG4pAQ2DW1rwZlsCEpCABCQgAQlIQALrBDQM1mn4WQISkIAEJCABCUhAAreUwP8Hf+USDnzTJrwAAAAASUVORK5CYII=;" vertex="1" parent="1">
          <mxGeometry x="529" y="253" width="84.9" height="86" as="geometry" />
        </mxCell>
        <mxCell id="aRn1iFg3sAYWJhAjc8pi-6" value="LTI - Integration" style="swimlane;whiteSpace=wrap;html=1;fillColor=#ffe6cc;strokeColor=#d79b00;" vertex="1" parent="1">
          <mxGeometry x="473" y="404" width="213" height="98" as="geometry" />
        </mxCell>
        <mxCell id="aRn1iFg3sAYWJhAjc8pi-8" value="- Courses&lt;br&gt;- Integration" style="text;html=1;align=center;verticalAlign=middle;resizable=0;points=[];autosize=1;strokeColor=none;fillColor=none;" vertex="1" parent="1">
          <mxGeometry x="529" y="438" width="82" height="41" as="geometry" />
        </mxCell>
        <mxCell id="aRn1iFg3sAYWJhAjc8pi-15" style="edgeStyle=orthogonalEdgeStyle;rounded=0;orthogonalLoop=1;jettySize=auto;html=1;fillColor=#ffe6cc;strokeColor=#d79b00;" edge="1" parent="1" source="aRn1iFg3sAYWJhAjc8pi-11">
          <mxGeometry relative="1" as="geometry">
            <mxPoint x="870" y="292" as="targetPoint" />
          </mxGeometry>
        </mxCell>
        <mxCell id="aRn1iFg3sAYWJhAjc8pi-28" value="Proxy&amp;nbsp;&lt;br&gt;Request" style="edgeLabel;html=1;align=center;verticalAlign=middle;resizable=0;points=[];" vertex="1" connectable="0" parent="aRn1iFg3sAYWJhAjc8pi-15">
          <mxGeometry x="-0.1173" y="4" relative="1" as="geometry">
            <mxPoint as="offset" />
          </mxGeometry>
        </mxCell>
        <mxCell id="aRn1iFg3sAYWJhAjc8pi-11" value="Application&amp;nbsp;&lt;br&gt;Load&lt;br&gt;Balancer" style="sketch=0;outlineConnect=0;fontColor=#232F3E;gradientColor=none;fillColor=#8C4FFF;strokeColor=none;dashed=0;verticalLabelPosition=bottom;verticalAlign=top;align=center;html=1;fontSize=12;fontStyle=0;aspect=fixed;pointerEvents=1;shape=mxgraph.aws4.application_load_balancer;" vertex="1" parent="1">
          <mxGeometry x="720" y="253" width="78" height="78" as="geometry" />
        </mxCell>
        <mxCell id="aRn1iFg3sAYWJhAjc8pi-19" value="" style="ellipse;whiteSpace=wrap;html=1;aspect=fixed;fillColor=#d5e8d4;strokeColor=#82b366;" vertex="1" parent="1">
          <mxGeometry x="877" y="231.5" width="121" height="121" as="geometry" />
        </mxCell>
        <mxCell id="aRn1iFg3sAYWJhAjc8pi-20" value="" style="sketch=0;html=1;dashed=0;whitespace=wrap;fillColor=#2875E2;strokeColor=#ffffff;points=[[0.005,0.63,0],[0.1,0.2,0],[0.9,0.2,0],[0.5,0,0],[0.995,0.63,0],[0.72,0.99,0],[0.5,1,0],[0.28,0.99,0]];verticalLabelPosition=bottom;align=center;verticalAlign=top;shape=mxgraph.kubernetes.icon;prIcon=pod" vertex="1" parent="1">
          <mxGeometry x="897" y="260" width="39" height="45" as="geometry" />
        </mxCell>
        <mxCell id="aRn1iFg3sAYWJhAjc8pi-21" value="" style="sketch=0;html=1;dashed=0;whitespace=wrap;fillColor=#2875E2;strokeColor=#ffffff;points=[[0.005,0.63,0],[0.1,0.2,0],[0.9,0.2,0],[0.5,0,0],[0.995,0.63,0],[0.72,0.99,0],[0.5,1,0],[0.28,0.99,0]];verticalLabelPosition=bottom;align=center;verticalAlign=top;shape=mxgraph.kubernetes.icon;prIcon=pod" vertex="1" parent="1">
          <mxGeometry x="938" y="260" width="39" height="45" as="geometry" />
        </mxCell>
        <mxCell id="aRn1iFg3sAYWJhAjc8pi-22" value="" style="sketch=0;html=1;dashed=0;whitespace=wrap;fillColor=#2875E2;strokeColor=#ffffff;points=[[0.005,0.63,0],[0.1,0.2,0],[0.9,0.2,0],[0.5,0,0],[0.995,0.63,0],[0.72,0.99,0],[0.5,1,0],[0.28,0.99,0]];verticalLabelPosition=bottom;align=center;verticalAlign=top;shape=mxgraph.kubernetes.icon;prIcon=pod" vertex="1" parent="1">
          <mxGeometry x="916" y="294" width="39" height="45" as="geometry" />
        </mxCell>
        <mxCell id="aRn1iFg3sAYWJhAjc8pi-23" value="JupyterHub&amp;nbsp;&lt;br&gt;Application" style="text;html=1;align=center;verticalAlign=middle;resizable=0;points=[];autosize=1;strokeColor=#d79b00;fillColor=#ffe6cc;" vertex="1" parent="1">
          <mxGeometry x="896" y="361" width="83" height="41" as="geometry" />
        </mxCell>
        <mxCell id="aRn1iFg3sAYWJhAjc8pi-24" value="Amazon EFS" style="outlineConnect=0;dashed=0;verticalLabelPosition=bottom;verticalAlign=top;align=center;html=1;shape=mxgraph.aws3.efs;fillColor=#f0a30a;strokeColor=#BD7000;fontColor=#000000;" vertex="1" parent="1">
          <mxGeometry x="1085" y="386" width="61" height="68" as="geometry" />
        </mxCell>
        <mxCell id="aRn1iFg3sAYWJhAjc8pi-25" value="" style="endArrow=classic;startArrow=classic;html=1;rounded=0;fillColor=#ffe6cc;strokeColor=#d79b00;" edge="1" parent="1">
          <mxGeometry width="50" height="50" relative="1" as="geometry">
            <mxPoint x="1081" y="387" as="sourcePoint" />
            <mxPoint x="1015" y="322" as="targetPoint" />
          </mxGeometry>
        </mxCell>
        <mxCell id="aRn1iFg3sAYWJhAjc8pi-29" value="Write&lt;br&gt;Data to Student directory" style="edgeLabel;html=1;align=center;verticalAlign=middle;resizable=0;points=[];" vertex="1" connectable="0" parent="aRn1iFg3sAYWJhAjc8pi-25">
          <mxGeometry x="0.0176" y="-4" relative="1" as="geometry">
            <mxPoint as="offset" />
          </mxGeometry>
        </mxCell>
      </root>
    </mxGraphModel>
  </diagram>
</mxfile>
